<?xml version="1.0" encoding="UTF-8" standalone="no"?>
<svg
   version="1.1"
   width="29.700220cm"
   height="21.000720cm"
   viewBox="0 0 297002200 210007200"
   id="svg236"
   sodipodi:docname="power-F_Mask.svg"
   inkscape:version="1.2.1 (9c6d41e410, 2022-07-14)"
   xmlns:inkscape="http://www.inkscape.org/namespaces/inkscape"
   xmlns:sodipodi="http://sodipodi.sourceforge.net/DTD/sodipodi-0.dtd"
   xmlns="http://www.w3.org/2000/svg"
   xmlns:svg="http://www.w3.org/2000/svg">
  <defs
     id="defs240" />
  <sodipodi:namedview
     id="namedview238"
     pagecolor="#ffffff"
     bordercolor="#666666"
     borderopacity="1.0"
     inkscape:showpageshadow="2"
     inkscape:pageopacity="0.0"
     inkscape:pagecheckerboard="0"
     inkscape:deskcolor="#d1d1d1"
     inkscape:document-units="cm"
     showgrid="false"
     inkscape:zoom="2.5275136"
     inkscape:cx="378.43516"
     inkscape:cy="393.07405"
     inkscape:window-width="1525"
     inkscape:window-height="804"
     inkscape:window-x="352"
     inkscape:window-y="105"
     inkscape:window-maximized="0"
     inkscape:current-layer="svg236" />
  <title
     id="title2">SVG Picture created as power-F_Mask.svg date 2023/03/31 16:05:19 </title>
  <desc
     id="desc4">Picture generated by PCBNEW </desc>
  <g
     style="fill:#000000; fill-opacity:1.000000;stroke:#000000; stroke-opacity:1.000000; stroke-linecap:round; stroke-linejoin:round;"
     transform="translate(0 0) scale(1 1)"
     id="g6" />
  <g
     style="fill:#000000; fill-opacity:0.0;  stroke:#000000; stroke-width:0.000000; stroke-opacity:1;  stroke-linecap:round; stroke-linejoin:round;"
     id="g8" />
  <path
     d="m 70791471,120742040 v -3250000"
     id="path10"
     style="fill:#000000;fill-opacity:0;stroke:#00ffff;stroke-width:100000;stroke-linecap:round;stroke-linejoin:round;stroke-dasharray:none;stroke-opacity:1" />
  <path
     d="m 132291460,89992043 a 3000043,3000043 0 0 0 3000010,3000000"
     id="path12"
     style="fill:#000000;fill-opacity:0;stroke:#00ffff;stroke-width:100000;stroke-linecap:round;stroke-linejoin:round;stroke-dasharray:none;stroke-opacity:1" />
  <path
     d="m 65541471,86741971 a 999929,999929 0 0 0 -1000000,1000072"
     id="path18"
     style="fill:#000000;fill-opacity:0;stroke:#00ffff;stroke-width:100000;stroke-linecap:round;stroke-linejoin:round;stroke-dasharray:none;stroke-opacity:1" />
  <path
     d="M 64541471,114492040 V 87742043"
     id="path20"
     style="fill:#000000;fill-opacity:0;stroke:#00ffff;stroke-width:100000;stroke-linecap:round;stroke-linejoin:round;stroke-dasharray:none;stroke-opacity:1" />
  <path
     d="m 137541470,120741970 a 1000071,1000071 0 0 0 1000000,-999930"
     id="path22"
     style="fill:#000000;fill-opacity:0;stroke:#00ffff;stroke-width:100000;stroke-linecap:round;stroke-linejoin:round;stroke-dasharray:none;stroke-opacity:1" />
  <path
     d="m 135291470,92992043 h 3250000"
     id="path24"
     style="fill:#000000;fill-opacity:0;stroke:#00ffff;stroke-width:100000;stroke-linecap:round;stroke-linejoin:round;stroke-dasharray:none;stroke-opacity:1" />
  <path
     d="M 67791471,114492040 H 64541471"
     id="path26"
     style="fill:#000000;fill-opacity:0;stroke:#00ffff;stroke-width:100000;stroke-linecap:round;stroke-linejoin:round;stroke-dasharray:none;stroke-opacity:1" />
  <path
     d="m 132291470,86742043 v 3250000"
     id="path28"
     style="fill:#000000;fill-opacity:0;stroke:#00ffff;stroke-width:100000;stroke-linecap:round;stroke-linejoin:round;stroke-dasharray:none;stroke-opacity:1" />
  <path
     d="M 137541470,120742040 H 70791471"
     id="path30"
     style="fill:#000000;fill-opacity:0;stroke:#00ffff;stroke-width:100000;stroke-linecap:round;stroke-linejoin:round;stroke-dasharray:none;stroke-opacity:1" />
  <path
     d="m 70791457,117492040 a 2999957,2999957 0 0 0 -2999986,-3000000"
     id="path32"
     style="fill:#000000;fill-opacity:0;stroke:#00ffff;stroke-width:100000;stroke-linecap:round;stroke-linejoin:round;stroke-dasharray:none;stroke-opacity:1" />
  <path
     d="m 65541471,86742043 h 66749999"
     id="path34"
     style="fill:#000000;fill-opacity:0;stroke:#00ffff;stroke-width:100000;stroke-linecap:round;stroke-linejoin:round;stroke-dasharray:none;stroke-opacity:1" />
  <path
     d="m 138541470,92992043 v 26749997"
     id="path36"
     style="fill:#000000;fill-opacity:0;stroke:#00ffff;stroke-width:100000;stroke-linecap:round;stroke-linejoin:round;stroke-dasharray:none;stroke-opacity:1" />
  <path
     d="M 154000000,126000000 H 49000000"
     id="path40"
     style="fill:#000000;fill-opacity:0;stroke:#ff0000;stroke-width:100000;stroke-linecap:round;stroke-linejoin:round;stroke-opacity:1" />
  <path
     d="M 49000000,126000000 V 82000000"
     id="path42"
     style="fill:#000000;fill-opacity:0;stroke:#ff0000;stroke-width:100000;stroke-linecap:round;stroke-linejoin:round;stroke-opacity:1" />
  <path
     d="M 49000000,82000000 H 154000000"
     id="path44"
     style="fill:#000000;fill-opacity:0;stroke:#ff0000;stroke-width:100000;stroke-linecap:round;stroke-linejoin:round;stroke-opacity:1" />
  <path
     d="m 154000000,82000000 v 44000000"
     id="path46"
     style="fill:#000000;fill-opacity:0;stroke:#ff0000;stroke-width:100000;stroke-linecap:round;stroke-linejoin:round;stroke-opacity:1" />
  <g
     id="g48"
     style="fill:#000000;fill-opacity:0;stroke:#000000;stroke-width:100000;stroke-linecap:round;stroke-linejoin:round;stroke-opacity:1" />
  <g
     style="fill:#000000;fill-opacity:0;stroke:#000000;stroke-width:1;stroke-linecap:round;stroke-linejoin:round;stroke-opacity:1"
     id="g50" />
  <g
     style="fill:#00ff00;fill-opacity:1;stroke:none;stroke-width:1;stroke-linecap:round;stroke-linejoin:round;stroke-opacity:1"
     id="g56">
    <path
       style="fill:#00ff00;fill-opacity:1;fill-rule:evenodd;stroke:none;stroke-width:1;stroke-linecap:round;stroke-linejoin:round;stroke-opacity:1"
       d="m 106611000,109641000 95670,19030 81110,54190 54190,81110 19030,95670 v 675000 l -19030,95670 -54190,81110 -81110,54190 -95670,19030 h -950000 l -95670,-19030 -81110,-54190 -54190,-81110 -19030,-95670 v -675000 l 19030,-95670 54190,-81110 81110,-54190 95670,-19030 z"
       id="path52" />
    <path
       style="fill:#00ff00;fill-opacity:1;fill-rule:evenodd;stroke:none;stroke-width:1;stroke-linecap:round;stroke-linejoin:round;stroke-opacity:1"
       d="m 106611000,111716000 95670,19030 81110,54190 54190,81110 19030,95670 v 675000 l -19030,95670 -54190,81110 -81110,54190 -95670,19030 h -950000 l -95670,-19030 -81110,-54190 -54190,-81110 -19030,-95670 v -675000 l 19030,-95670 54190,-81110 81110,-54190 95670,-19030 z"
       id="path54" />
  </g>
  <g
     id="g58"
     style="fill:#000000;fill-opacity:0;stroke:#000000;stroke-width:100000;stroke-linecap:round;stroke-linejoin:round;stroke-opacity:1" />
  <g
     style="fill:#00ff00;fill-opacity:1;stroke:none;stroke-width:1;stroke-linecap:round;stroke-linejoin:round;stroke-opacity:1"
     id="g64">
    <path
       style="fill:#00ff00;fill-opacity:1;fill-rule:evenodd;stroke:none;stroke-width:1;stroke-linecap:round;stroke-linejoin:round;stroke-opacity:1"
       d="m 128945000,101550000 h 5100000 v 1400000 h -5100000 z"
       id="path60" />
    <path
       style="fill:#00ff00;fill-opacity:1;fill-rule:evenodd;stroke:none;stroke-width:1;stroke-linecap:round;stroke-linejoin:round;stroke-opacity:1"
       d="m 128945000,105050000 h 5100000 v 1400000 h -5100000 z"
       id="path62" />
  </g>
  <g
     id="g66"
     style="fill:#000000;fill-opacity:0;stroke:#000000;stroke-width:100000;stroke-linecap:round;stroke-linejoin:round;stroke-opacity:1" />
  <g
     style="fill:#00ff00;fill-opacity:1;stroke:none;stroke-width:1;stroke-linecap:round;stroke-linejoin:round;stroke-opacity:1"
     id="g72">
    <path
       style="fill:#00ff00;fill-opacity:1;fill-rule:evenodd;stroke:none;stroke-width:1;stroke-linecap:round;stroke-linejoin:round;stroke-opacity:1"
       d="m 108517000,100116000 v -7700000 h 3100000 v 7700000 z"
       id="path68" />
    <path
       style="fill:#00ff00;fill-opacity:1;fill-rule:evenodd;stroke:none;stroke-width:1;stroke-linecap:round;stroke-linejoin:round;stroke-opacity:1"
       d="m 115417000,100116000 v -7700000 h 3100000 v 7700000 z"
       id="path70" />
  </g>
  <g
     id="g74"
     style="fill:#000000;fill-opacity:0;stroke:#000000;stroke-width:100000;stroke-linecap:round;stroke-linejoin:round;stroke-opacity:1" />
  <g
     style="fill:#00ff00;fill-opacity:1;stroke:none;stroke-width:1;stroke-linecap:round;stroke-linejoin:round;stroke-opacity:1"
     id="g80">
    <path
       style="fill:#00ff00;fill-opacity:1;fill-rule:evenodd;stroke:none;stroke-width:1;stroke-linecap:round;stroke-linejoin:round;stroke-opacity:1"
       d="m 116511000,111466000 -95670,-19030 -81110,-54190 -54190,-81110 -19030,-95670 v -800000 l 19030,-95670 54190,-81110 81110,-54190 95670,-19030 h 1250000 l 95670,19030 81110,54190 54190,81110 19030,95670 v 800000 l -19030,95670 -54190,81110 -81110,54190 -95670,19030 z"
       id="path76" />
    <path
       style="fill:#00ff00;fill-opacity:1;fill-rule:evenodd;stroke:none;stroke-width:1;stroke-linecap:round;stroke-linejoin:round;stroke-opacity:1"
       d="m 116511000,108366000 -95670,-19030 -81110,-54190 -54190,-81110 -19030,-95670 v -800000 l 19030,-95670 54190,-81110 81110,-54190 95670,-19030 h 1250000 l 95670,19030 81110,54190 54190,81110 19030,95670 v 800000 l -19030,95670 -54190,81110 -81110,54190 -95670,19030 z"
       id="path78" />
  </g>
  <g
     id="g82"
     style="fill:#000000;fill-opacity:0;stroke:#000000;stroke-width:100000;stroke-linecap:round;stroke-linejoin:round;stroke-opacity:1" />
  <g
     style="fill:#00ff00;fill-opacity:1;stroke:none;stroke-width:1;stroke-linecap:round;stroke-linejoin:round;stroke-opacity:1"
     id="g92">
    <path
       style="fill:#00ff00;fill-opacity:1;fill-rule:evenodd;stroke:none;stroke-width:1;stroke-linecap:round;stroke-linejoin:round;stroke-opacity:1"
       d="m 91900000,95225787 -12957,65138 -36897,55221 -55221,36897 -65139,12956 -459573,1 -65138,-12957 -55221,-36897 -36897,-55221 -12956,-65139 -1,-459573 12957,-65138 36897,-55221 55221,-36897 65139,-12956 459573,-1 65138,12957 55221,36897 36897,55221 12956,65139 z"
       id="path84" />
    <path
       style="fill:#00ff00;fill-opacity:1;fill-rule:evenodd;stroke:none;stroke-width:1;stroke-linecap:round;stroke-linejoin:round;stroke-opacity:1"
       d="m 90700000,94568340 -9718,48853 -27673,41416 -41416,27673 -48853,9718 h -344680 l -48853,-9718 -41416,-27673 -27673,-41416 -9718,-48853 v -444680 l 9718,-48853 27673,-41416 41416,-27673 48853,-9718 h 344680 l 48853,9718 41416,27673 27673,41416 9718,48853 z"
       id="path86" />
    <path
       style="fill:#00ff00;fill-opacity:1;fill-rule:evenodd;stroke:none;stroke-width:1;stroke-linecap:round;stroke-linejoin:round;stroke-opacity:1"
       d="m 90700000,95868340 -9718,48853 -27673,41416 -41416,27673 -48853,9718 h -344680 l -48853,-9718 -41416,-27673 -27673,-41416 -9718,-48853 v -444680 l 9718,-48853 27673,-41416 41416,-27673 48853,-9718 h 344680 l 48853,9718 41416,27673 27673,41416 9718,48853 z"
       id="path88" />
    <path
       style="fill:#00ff00;fill-opacity:1;fill-rule:evenodd;stroke:none;stroke-width:1;stroke-linecap:round;stroke-linejoin:round;stroke-opacity:1"
       d="m 89700000,95225787 -12957,65138 -36897,55221 -55221,36897 -65139,12956 -459573,1 -65138,-12957 -55221,-36897 -36897,-55221 -12956,-65139 -1,-459573 12957,-65138 36897,-55221 55221,-36897 65139,-12956 459573,-1 65138,12957 55221,36897 36897,55221 12956,65139 z"
       id="path90" />
  </g>
  <g
     id="g94"
     style="fill:#000000;fill-opacity:0;stroke:#000000;stroke-width:100000;stroke-linecap:round;stroke-linejoin:round;stroke-opacity:1" />
  <g
     style="fill:#00ff00;fill-opacity:1;stroke:none;stroke-width:1;stroke-linecap:round;stroke-linejoin:round;stroke-opacity:1"
     id="g98">
    <circle
       cx="92456000"
       cy="105664000"
       r="1500000"
       id="circle96"
       style="stroke:none;fill:#00ff00;fill-opacity:1" />
  </g>
  <g
     style="fill:#000000;fill-opacity:1;stroke:#000000;stroke-width:21200;stroke-linecap:round;stroke-linejoin:round;stroke-opacity:1"
     id="g100" />
  <g
     style="fill:#00ff00;fill-opacity:1;stroke:none;stroke-width:1;stroke-linecap:round;stroke-linejoin:round;stroke-opacity:1"
     id="g104">
    <circle
       cx="102456000"
       cy="103164000"
       r="1500000"
       id="circle102"
       style="stroke:none;fill:#00ff00;fill-opacity:1" />
  </g>
  <g
     style="fill:#000000;fill-opacity:1;stroke:#000000;stroke-width:21200;stroke-linecap:round;stroke-linejoin:round;stroke-opacity:1"
     id="g106" />
  <g
     style="fill:#00ff00;fill-opacity:1;stroke:none;stroke-width:1;stroke-linecap:round;stroke-linejoin:round;stroke-opacity:1"
     id="g110">
    <circle
       cx="92456000"
       cy="100664000"
       r="1500000"
       id="circle108"
       style="stroke:none;fill:#00ff00;fill-opacity:1" />
  </g>
  <g
     style="fill:#000000;fill-opacity:1;stroke:#000000;stroke-width:21200;stroke-linecap:round;stroke-linejoin:round;stroke-opacity:1"
     id="g112" />
  <g
     id="g114"
     style="fill:#000000;fill-opacity:0;stroke:#000000;stroke-width:100000;stroke-linecap:round;stroke-linejoin:round;stroke-opacity:1" />
  <g
     style="fill:#000000;fill-opacity:1;stroke:#000000;stroke-width:21200;stroke-linecap:round;stroke-linejoin:round;stroke-opacity:1"
     id="g116" />
  <g
     style="fill:#00ff00;fill-opacity:1;stroke:none;stroke-width:1;stroke-linecap:round;stroke-linejoin:round;stroke-opacity:1"
     id="g124">
    <path
       style="fill:#00ff00;fill-opacity:1;fill-rule:evenodd;stroke:none;stroke-width:1;stroke-linecap:round;stroke-linejoin:round;stroke-opacity:1"
       d="m 95193500,111676000 11418,-57400 32516,-48670 48663,-32510 57403,-11420 h 1175000 l 57403,11420 48663,32510 32516,48670 11418,57400 v 300000 l -11418,57400 -32516,48670 -48663,32510 -57403,11420 h -1175000 l -57403,-11420 -48663,-32510 -32516,-48670 -11418,-57400 z"
       id="path118" />
    <path
       style="fill:#00ff00;fill-opacity:1;fill-rule:evenodd;stroke:none;stroke-width:1;stroke-linecap:round;stroke-linejoin:round;stroke-opacity:1"
       d="m 95193500,113576000 11418,-57400 32516,-48670 48663,-32510 57403,-11420 h 1175000 l 57403,11420 48663,32510 32516,48670 11418,57400 v 300000 l -11418,57400 -32516,48670 -48663,32510 -57403,11420 h -1175000 l -57403,-11420 -48663,-32510 -32516,-48670 -11418,-57400 z"
       id="path120" />
    <path
       style="fill:#00ff00;fill-opacity:1;fill-rule:evenodd;stroke:none;stroke-width:1;stroke-linecap:round;stroke-linejoin:round;stroke-opacity:1"
       d="m 97068500,112626000 11418,-57400 32516,-48670 48663,-32510 57403,-11420 h 1175000 l 57403,11420 48663,32510 32516,48670 11418,57400 v 300000 l -11418,57400 -32516,48670 -48663,32510 -57403,11420 h -1175000 l -57403,-11420 -48663,-32510 -32516,-48670 -11418,-57400 z"
       id="path122" />
  </g>
  <g
     id="g126"
     style="fill:#000000;fill-opacity:0;stroke:#000000;stroke-width:100000;stroke-linecap:round;stroke-linejoin:round;stroke-opacity:1" />
  <g
     style="fill:#00ff00;fill-opacity:1;stroke:none;stroke-width:1;stroke-linecap:round;stroke-linejoin:round;stroke-opacity:1"
     id="g138">
    <path
       style="fill:#00ff00;fill-opacity:1;fill-rule:evenodd;stroke:none;stroke-width:1;stroke-linecap:round;stroke-linejoin:round;stroke-opacity:1"
       d="m 108716000,109641000 v -650000 h 2000000 v 650000 z"
       id="path128" />
    <path
       style="fill:#00ff00;fill-opacity:1;fill-rule:evenodd;stroke:none;stroke-width:1;stroke-linecap:round;stroke-linejoin:round;stroke-opacity:1"
       d="m 108716000,110591000 v -650000 h 2000000 v 650000 z"
       id="path130" />
    <path
       style="fill:#00ff00;fill-opacity:1;fill-rule:evenodd;stroke:none;stroke-width:1;stroke-linecap:round;stroke-linejoin:round;stroke-opacity:1"
       d="m 108716000,111541000 v -650000 h 2000000 v 650000 z"
       id="path132" />
    <path
       style="fill:#00ff00;fill-opacity:1;fill-rule:evenodd;stroke:none;stroke-width:1;stroke-linecap:round;stroke-linejoin:round;stroke-opacity:1"
       d="m 112136000,111541000 v -650000 h 2000000 v 650000 z"
       id="path134" />
    <path
       style="fill:#00ff00;fill-opacity:1;fill-rule:evenodd;stroke:none;stroke-width:1;stroke-linecap:round;stroke-linejoin:round;stroke-opacity:1"
       d="m 112136000,109641000 v -650000 h 2000000 v 650000 z"
       id="path136" />
  </g>
  <g
     id="g140"
     style="fill:#000000;fill-opacity:0;stroke:#000000;stroke-width:100000;stroke-linecap:round;stroke-linejoin:round;stroke-opacity:1" />
  <g
     style="fill:#00ff00;fill-opacity:1;stroke:none;stroke-width:1;stroke-linecap:round;stroke-linejoin:round;stroke-opacity:1"
     id="g146">
    <path
       style="fill:#00ff00;fill-opacity:1;fill-rule:evenodd;stroke:none;stroke-width:1;stroke-linecap:round;stroke-linejoin:round;stroke-opacity:1"
       d="m 121395500,102586500 90890,18080 77050,51480 51480,77050 18080,90890 v 600000 l -18080,90890 -51480,77050 -77050,51480 -90890,18080 h -475000 l -90890,-18080 -77050,-51480 -51480,-77050 -18080,-90890 v -600000 l 18080,-90890 51480,-77050 77050,-51480 90890,-18080 z"
       id="path142" />
    <path
       style="fill:#00ff00;fill-opacity:1;fill-rule:evenodd;stroke:none;stroke-width:1;stroke-linecap:round;stroke-linejoin:round;stroke-opacity:1"
       d="m 121395500,104311500 90890,18080 77050,51480 51480,77050 18080,90890 v 600000 l -18080,90890 -51480,77050 -77050,51480 -90890,18080 h -475000 l -90890,-18080 -77050,-51480 -51480,-77050 -18080,-90890 v -600000 l 18080,-90890 51480,-77050 77050,-51480 90890,-18080 z"
       id="path144" />
  </g>
  <g
     id="g148"
     style="fill:#000000;fill-opacity:0;stroke:#000000;stroke-width:100000;stroke-linecap:round;stroke-linejoin:round;stroke-opacity:1" />
  <g
     style="fill:#00ff00;fill-opacity:1;stroke:none;stroke-width:1;stroke-linecap:round;stroke-linejoin:round;stroke-opacity:1"
     id="g154">
    <path
       style="fill:#00ff00;fill-opacity:1;fill-rule:evenodd;stroke:none;stroke-width:1;stroke-linecap:round;stroke-linejoin:round;stroke-opacity:1"
       d="m 89862500,114376000 -95671,-19030 -81106,-54190 -54193,-81110 -19030,-95670 v -700000 l 19030,-95670 54193,-81110 81106,-54190 95671,-19030 h 900000 l 95671,19030 81106,54190 54193,81110 19030,95670 v 700000 l -19030,95670 -54193,81110 -81106,54190 -95671,19030 z"
       id="path150" />
    <path
       style="fill:#00ff00;fill-opacity:1;fill-rule:evenodd;stroke:none;stroke-width:1;stroke-linecap:round;stroke-linejoin:round;stroke-opacity:1"
       d="m 89862500,112376000 -95671,-19030 -81106,-54190 -54193,-81110 -19030,-95670 v -700000 l 19030,-95670 54193,-81110 81106,-54190 95671,-19030 h 900000 l 95671,19030 81106,54190 54193,81110 19030,95670 v 700000 l -19030,95670 -54193,81110 -81106,54190 -95671,19030 z"
       id="path152" />
  </g>
  <g
     id="g156"
     style="fill:#000000;fill-opacity:0;stroke:#000000;stroke-width:100000;stroke-linecap:round;stroke-linejoin:round;stroke-opacity:1" />
  <g
     style="fill:#00ff00;fill-opacity:1;stroke:none;stroke-width:1;stroke-linecap:round;stroke-linejoin:round;stroke-opacity:1"
     id="g162">
    <path
       style="fill:#00ff00;fill-opacity:1;fill-rule:evenodd;stroke:none;stroke-width:1;stroke-linecap:round;stroke-linejoin:round;stroke-opacity:1"
       d="m 114236000,101566000 v 1400000 h -1300000 v -1400000 z"
       id="path158" />
    <path
       style="fill:#00ff00;fill-opacity:1;fill-rule:evenodd;stroke:none;stroke-width:1;stroke-linecap:round;stroke-linejoin:round;stroke-opacity:1"
       d="m 111336000,101566000 v 1400000 h -1300000 v -1400000 z"
       id="path160" />
  </g>
  <g
     id="g164"
     style="fill:#000000;fill-opacity:0;stroke:#000000;stroke-width:100000;stroke-linecap:round;stroke-linejoin:round;stroke-opacity:1" />
  <g
     style="fill:#00ff00;fill-opacity:1;stroke:none;stroke-width:1;stroke-linecap:round;stroke-linejoin:round;stroke-opacity:1"
     id="g170">
    <path
       style="fill:#00ff00;fill-opacity:1;fill-rule:evenodd;stroke:none;stroke-width:1;stroke-linecap:round;stroke-linejoin:round;stroke-opacity:1"
       d="m 98408500,89278000 90887,18079 77051,51483 51483,77051 18079,90887 v 500000 l -18079,90887 -51483,77051 -77051,51483 -90887,18079 h -475000 l -90887,-18079 -77051,-51483 -51483,-77051 -18079,-90887 v -500000 l 18079,-90887 51483,-77051 77051,-51483 90887,-18079 z"
       id="path166" />
    <path
       style="fill:#00ff00;fill-opacity:1;fill-rule:evenodd;stroke:none;stroke-width:1;stroke-linecap:round;stroke-linejoin:round;stroke-opacity:1"
       d="m 98408500,91103000 90887,18079 77051,51483 51483,77051 18079,90887 v 500000 l -18079,90887 -51483,77051 -77051,51483 -90887,18079 h -475000 l -90887,-18079 -77051,-51483 -51483,-77051 -18079,-90887 v -500000 l 18079,-90887 51483,-77051 77051,-51483 90887,-18079 z"
       id="path168" />
  </g>
  <g
     id="g172"
     style="fill:#000000;fill-opacity:0;stroke:#000000;stroke-width:100000;stroke-linecap:round;stroke-linejoin:round;stroke-opacity:1" />
  <g
     style="fill:#00ff00;fill-opacity:1;stroke:none;stroke-width:1;stroke-linecap:round;stroke-linejoin:round;stroke-opacity:1"
     id="g178">
    <path
       style="fill:#00ff00;fill-opacity:1;fill-rule:evenodd;stroke:none;stroke-width:1;stroke-linecap:round;stroke-linejoin:round;stroke-opacity:1"
       d="m 109911000,105166000 19030,-95670 54190,-81110 81110,-54190 95670,-19030 h 825000 l 95670,19030 81110,54190 54190,81110 19030,95670 v 2200000 l -19030,95670 -54190,81110 -81110,54190 -95670,19030 h -825000 l -95670,-19030 -81110,-54190 -54190,-81110 -19030,-95670 z"
       id="path174" />
    <path
       style="fill:#00ff00;fill-opacity:1;fill-rule:evenodd;stroke:none;stroke-width:1;stroke-linecap:round;stroke-linejoin:round;stroke-opacity:1"
       d="m 113036000,105166000 19030,-95670 54190,-81110 81110,-54190 95670,-19030 h 825000 l 95670,19030 81110,54190 54190,81110 19030,95670 v 2200000 l -19030,95670 -54190,81110 -81110,54190 -95670,19030 h -825000 l -95670,-19030 -81110,-54190 -54190,-81110 -19030,-95670 z"
       id="path176" />
  </g>
  <g
     id="g180"
     style="fill:#000000;fill-opacity:0;stroke:#000000;stroke-width:100000;stroke-linecap:round;stroke-linejoin:round;stroke-opacity:1" />
  <g
     style="fill:#00ff00;fill-opacity:1;stroke:none;stroke-width:1;stroke-linecap:round;stroke-linejoin:round;stroke-opacity:1"
     id="g186">
    <path
       style="fill:#00ff00;fill-opacity:1;fill-rule:evenodd;stroke:none;stroke-width:1;stroke-linecap:round;stroke-linejoin:round;stroke-opacity:1"
       d="m 74650000,95050000 v 2300000 h -3500000 v -2300000 z"
       id="path182" />
    <path
       style="fill:#00ff00;fill-opacity:1;fill-rule:evenodd;stroke:none;stroke-width:1;stroke-linecap:round;stroke-linejoin:round;stroke-opacity:1"
       d="m 69250000,95050000 v 2300000 h -3500000 v -2300000 z"
       id="path184" />
  </g>
  <g
     id="g188"
     style="fill:#000000;fill-opacity:0;stroke:#000000;stroke-width:100000;stroke-linecap:round;stroke-linejoin:round;stroke-opacity:1" />
  <g
     style="fill:#00ff00;fill-opacity:1;stroke:none;stroke-width:1;stroke-linecap:round;stroke-linejoin:round;stroke-opacity:1"
     id="g194">
    <path
       style="fill:#00ff00;fill-opacity:1;fill-rule:evenodd;stroke:none;stroke-width:1;stroke-linecap:round;stroke-linejoin:round;stroke-opacity:1"
       d="m 96565000,95592000 v -1700000 h 3300000 v 1700000 z"
       id="path190" />
    <path
       style="fill:#00ff00;fill-opacity:1;fill-rule:evenodd;stroke:none;stroke-width:1;stroke-linecap:round;stroke-linejoin:round;stroke-opacity:1"
       d="m 102065000,95592000 v -1700000 h 3300000 v 1700000 z"
       id="path192" />
  </g>
  <g
     id="g196"
     style="fill:#000000;fill-opacity:0;stroke:#000000;stroke-width:100000;stroke-linecap:round;stroke-linejoin:round;stroke-opacity:1" />
  <g
     style="fill:#00ff00;fill-opacity:1;stroke:none;stroke-width:1;stroke-linecap:round;stroke-linejoin:round;stroke-opacity:1"
     id="g202">
    <path
       style="fill:#00ff00;fill-opacity:1;fill-rule:evenodd;stroke:none;stroke-width:1;stroke-linecap:round;stroke-linejoin:round;stroke-opacity:1"
       d="m 81152500,100450000 h -5100000 v -1400000 h 5100000 z"
       id="path198" />
    <path
       style="fill:#00ff00;fill-opacity:1;fill-rule:evenodd;stroke:none;stroke-width:1;stroke-linecap:round;stroke-linejoin:round;stroke-opacity:1"
       d="m 81152500,96950000 h -5100000 v -1400000 h 5100000 z"
       id="path200" />
  </g>
  <g
     id="g204"
     style="fill:#000000;fill-opacity:0;stroke:#000000;stroke-width:100000;stroke-linecap:round;stroke-linejoin:round;stroke-opacity:1" />
  <g
     style="fill:#00ff00;fill-opacity:1;stroke:none;stroke-width:1;stroke-linecap:round;stroke-linejoin:round;stroke-opacity:1"
     id="g210">
    <path
       style="fill:#00ff00;fill-opacity:1;fill-rule:evenodd;stroke:none;stroke-width:1;stroke-linecap:round;stroke-linejoin:round;stroke-opacity:1"
       d="m 93344000,111376000 90887,18080 77051,51480 51483,77050 18079,90890 v 500000 l -18079,90890 -51483,77050 -77051,51480 -90887,18080 h -475000 l -90887,-18080 -77051,-51480 -51483,-77050 -18079,-90890 v -500000 l 18079,-90890 51483,-77050 77051,-51480 90887,-18080 z"
       id="path206" />
    <path
       style="fill:#00ff00;fill-opacity:1;fill-rule:evenodd;stroke:none;stroke-width:1;stroke-linecap:round;stroke-linejoin:round;stroke-opacity:1"
       d="m 93344000,113201000 90887,18080 77051,51480 51483,77050 18079,90890 v 500000 l -18079,90890 -51483,77050 -77051,51480 -90887,18080 h -475000 l -90887,-18080 -77051,-51480 -51483,-77050 -18079,-90890 v -500000 l 18079,-90890 51483,-77050 77051,-51480 90887,-18080 z"
       id="path208" />
  </g>
  <g
     id="g212"
     style="fill:#000000;fill-opacity:0;stroke:#000000;stroke-width:100000;stroke-linecap:round;stroke-linejoin:round;stroke-opacity:1" />
  <g
     style="fill:#00ff00;fill-opacity:1;stroke:none;stroke-width:1;stroke-linecap:round;stroke-linejoin:round;stroke-opacity:1"
     id="g218">
    <path
       style="fill:#00ff00;fill-opacity:1;fill-rule:evenodd;stroke:none;stroke-width:1;stroke-linecap:round;stroke-linejoin:round;stroke-opacity:1"
       d="m 81152500,113850000 h -5100000 v -1400000 h 5100000 z"
       id="path214" />
    <path
       style="fill:#00ff00;fill-opacity:1;fill-rule:evenodd;stroke:none;stroke-width:1;stroke-linecap:round;stroke-linejoin:round;stroke-opacity:1"
       d="m 81152500,110350000 h -5100000 v -1400000 h 5100000 z"
       id="path216" />
  </g>
  <g
     id="g220"
     style="fill:#000000;fill-opacity:0;stroke:#000000;stroke-width:100000;stroke-linecap:round;stroke-linejoin:round;stroke-opacity:1" />
  <g
     style="fill:#00ff00;fill-opacity:1;stroke:none;stroke-width:1;stroke-linecap:round;stroke-linejoin:round;stroke-opacity:1"
     id="g226">
    <path
       style="fill:#00ff00;fill-opacity:1;fill-rule:evenodd;stroke:none;stroke-width:1;stroke-linecap:round;stroke-linejoin:round;stroke-opacity:1"
       d="m 74650000,110650000 v 2300000 h -3500000 v -2300000 z"
       id="path222" />
    <path
       style="fill:#00ff00;fill-opacity:1;fill-rule:evenodd;stroke:none;stroke-width:1;stroke-linecap:round;stroke-linejoin:round;stroke-opacity:1"
       d="m 69250000,110650000 v 2300000 h -3500000 v -2300000 z"
       id="path224" />
  </g>
  <g
     id="g228"
     style="fill:#000000;fill-opacity:0;stroke:#000000;stroke-width:100000;stroke-linecap:round;stroke-linejoin:round;stroke-opacity:1" />
  <g
     id="g230"
     style="fill:#000000;fill-opacity:0;stroke:#000000;stroke-width:100000;stroke-linecap:round;stroke-linejoin:round;stroke-opacity:1" />
  <g
     id="g232"
     style="fill:#000000;fill-opacity:0;stroke:#000000;stroke-width:100000;stroke-linecap:round;stroke-linejoin:round;stroke-opacity:1" />
</svg>
