<?xml version="1.0" encoding="UTF-8" standalone="no"?>
<svg
   version="1.1"
   width="29.700220cm"
   height="21.000720cm"
   viewBox="0 0 297002200 210007200"
   id="svg629"
   sodipodi:docname="power-F_Paste.svg"
   inkscape:version="1.2.1 (9c6d41e410, 2022-07-14)"
   xmlns:inkscape="http://www.inkscape.org/namespaces/inkscape"
   xmlns:sodipodi="http://sodipodi.sourceforge.net/DTD/sodipodi-0.dtd"
   xmlns="http://www.w3.org/2000/svg"
   xmlns:svg="http://www.w3.org/2000/svg">
  <defs
     id="defs633" />
  <sodipodi:namedview
     id="namedview631"
     pagecolor="#ffffff"
     bordercolor="#666666"
     borderopacity="1.0"
     inkscape:showpageshadow="2"
     inkscape:pageopacity="0.0"
     inkscape:pagecheckerboard="0"
     inkscape:deskcolor="#d1d1d1"
     inkscape:document-units="cm"
     showgrid="false"
     inkscape:zoom="2.263182"
     inkscape:cx="383.75173"
     inkscape:cy="393.0307"
     inkscape:window-width="1447"
     inkscape:window-height="1080"
     inkscape:window-x="175"
     inkscape:window-y="0"
     inkscape:window-maximized="0"
     inkscape:current-layer="svg629" />
  <title
     id="title415">SVG Picture created as power-F_Paste.svg date 2023/03/31 16:05:19 </title>
  <desc
     id="desc417">Picture generated by PCBNEW </desc>
  <g
     style="fill:#000000; fill-opacity:1.000000;stroke:#000000; stroke-opacity:1.000000; stroke-linecap:round; stroke-linejoin:round;"
     transform="translate(0 0) scale(1 1)"
     id="g419" />
  <g
     style="fill:#000000; fill-opacity:0.0;  stroke:#000000; stroke-width:0.000000; stroke-opacity:1;  stroke-linecap:round; stroke-linejoin:round;"
     id="g421" />
  <path
     d="m 70791471,120742040 v -3250000"
     id="path423"
     style="fill:#000000;fill-opacity:0;stroke:#ff0000;stroke-width:100000;stroke-linecap:round;stroke-linejoin:round;stroke-dasharray:none;stroke-opacity:1" />
  <path
     d="m 132291460,89992043 a 3000043,3000043 0 0 0 3000010,3000000"
     id="path425"
     style="fill:#000000;fill-opacity:0;stroke:#ff0000;stroke-width:100000;stroke-linecap:round;stroke-linejoin:round;stroke-dasharray:none;stroke-opacity:1" />
  <path
     d="m 65541471,86741971 a 999929,999929 0 0 0 -1000000,1000072"
     id="path431"
     style="fill:#000000;fill-opacity:0;stroke:#ff0000;stroke-width:100000;stroke-linecap:round;stroke-linejoin:round;stroke-dasharray:none;stroke-opacity:1" />
  <path
     d="M 64541471,114492040 V 87742043"
     id="path433"
     style="fill:#000000;fill-opacity:0;stroke:#ff0000;stroke-width:100000;stroke-linecap:round;stroke-linejoin:round;stroke-dasharray:none;stroke-opacity:1" />
  <path
     d="m 137541470,120741970 a 1000071,1000071 0 0 0 1000000,-999930"
     id="path435"
     style="fill:#000000;fill-opacity:0;stroke:#ff0000;stroke-width:100000;stroke-linecap:round;stroke-linejoin:round;stroke-dasharray:none;stroke-opacity:1" />
  <path
     d="m 135291470,92992043 h 3250000"
     id="path437"
     style="fill:#000000;fill-opacity:0;stroke:#ff0000;stroke-width:100000;stroke-linecap:round;stroke-linejoin:round;stroke-dasharray:none;stroke-opacity:1" />
  <path
     d="M 67791471,114492040 H 64541471"
     id="path439"
     style="fill:#000000;fill-opacity:0;stroke:#ff0000;stroke-width:100000;stroke-linecap:round;stroke-linejoin:round;stroke-dasharray:none;stroke-opacity:1" />
  <path
     d="m 132291470,86742043 v 3250000"
     id="path441"
     style="fill:#000000;fill-opacity:0;stroke:#ff0000;stroke-width:100000;stroke-linecap:round;stroke-linejoin:round;stroke-dasharray:none;stroke-opacity:1" />
  <path
     d="M 137541470,120742040 H 70791471"
     id="path443"
     style="fill:#000000;fill-opacity:0;stroke:#ff0000;stroke-width:100000;stroke-linecap:round;stroke-linejoin:round;stroke-dasharray:none;stroke-opacity:1" />
  <path
     d="m 70791457,117492040 a 2999957,2999957 0 0 0 -2999986,-3000000"
     id="path445"
     style="fill:#000000;fill-opacity:0;stroke:#ff0000;stroke-width:100000;stroke-linecap:round;stroke-linejoin:round;stroke-dasharray:none;stroke-opacity:1" />
  <path
     d="m 65541471,86742043 h 66749999"
     id="path447"
     style="fill:#000000;fill-opacity:0;stroke:#ff0000;stroke-width:100000;stroke-linecap:round;stroke-linejoin:round;stroke-dasharray:none;stroke-opacity:1" />
  <path
     d="m 138541470,92992043 v 26749997"
     id="path449"
     style="fill:#000000;fill-opacity:0;stroke:#ff0000;stroke-width:100000;stroke-linecap:round;stroke-linejoin:round;stroke-dasharray:none;stroke-opacity:1" />
  <path
     d="M 154000000,126000000 H 49000000"
     id="path453"
     style="fill:#000000;fill-opacity:0;stroke:#000000;stroke-width:100000;stroke-linecap:round;stroke-linejoin:round;stroke-opacity:0.5" />
  <path
     d="M 49000000,126000000 V 82000000"
     id="path455"
     style="fill:#000000;fill-opacity:0;stroke:#000000;stroke-width:100000;stroke-linecap:round;stroke-linejoin:round;stroke-opacity:0.5" />
  <path
     d="M 49000000,82000000 H 154000000"
     id="path457"
     style="fill:#000000;fill-opacity:0;stroke:#000000;stroke-width:100000;stroke-linecap:round;stroke-linejoin:round;stroke-opacity:0.5" />
  <path
     d="m 154000000,82000000 v 44000000"
     id="path459"
     style="fill:#000000;fill-opacity:0;stroke:#000000;stroke-width:100000;stroke-linecap:round;stroke-linejoin:round;stroke-opacity:0.5" />
  <g
     id="g461"
     style="fill:#000000;fill-opacity:0;stroke:#000000;stroke-width:100000;stroke-linecap:round;stroke-linejoin:round;stroke-opacity:1" />
  <g
     style="fill:#000000;fill-opacity:0;stroke:#000000;stroke-width:1;stroke-linecap:round;stroke-linejoin:round;stroke-opacity:1"
     id="g463" />
  <g
     style="fill:#000000;fill-opacity:1;stroke:none;stroke-width:100000.00525011;stroke-linecap:round;stroke-linejoin:round;stroke-opacity:1;stroke-dasharray:none"
     id="g469">
    <path
       style="fill:#000000;fill-opacity:1;fill-rule:evenodd;stroke:none;stroke-width:100000.00525011;stroke-linecap:round;stroke-linejoin:round;stroke-opacity:1;stroke-dasharray:none"
       d="m 106611000,109641000 95670,19030 81110,54190 54190,81110 19030,95670 v 675000 l -19030,95670 -54190,81110 -81110,54190 -95670,19030 h -950000 l -95670,-19030 -81110,-54190 -54190,-81110 -19030,-95670 v -675000 l 19030,-95670 54190,-81110 81110,-54190 95670,-19030 z"
       id="path465" />
    <path
       style="fill:#000000;fill-opacity:1;fill-rule:evenodd;stroke:none;stroke-width:100000.00525011;stroke-linecap:round;stroke-linejoin:round;stroke-opacity:1;stroke-dasharray:none"
       d="m 106611000,111716000 95670,19030 81110,54190 54190,81110 19030,95670 v 675000 l -19030,95670 -54190,81110 -81110,54190 -95670,19030 h -950000 l -95670,-19030 -81110,-54190 -54190,-81110 -19030,-95670 v -675000 l 19030,-95670 54190,-81110 81110,-54190 95670,-19030 z"
       id="path467" />
  </g>
  <g
     id="g471"
     style="fill:#000000;fill-opacity:0;stroke:#000000;stroke-width:100000;stroke-linecap:round;stroke-linejoin:round;stroke-opacity:1" />
  <g
     style="fill:#000000;fill-opacity:1;stroke:none;stroke-width:100000.00525011;stroke-linecap:round;stroke-linejoin:round;stroke-opacity:1;stroke-dasharray:none"
     id="g477">
    <path
       style="fill:#000000;fill-opacity:1;fill-rule:evenodd;stroke:none;stroke-width:100000.00525011;stroke-linecap:round;stroke-linejoin:round;stroke-opacity:1;stroke-dasharray:none"
       d="m 128945000,101550000 h 5100000 v 1400000 h -5100000 z"
       id="path473" />
    <path
       style="fill:#000000;fill-opacity:1;fill-rule:evenodd;stroke:none;stroke-width:100000.00525011;stroke-linecap:round;stroke-linejoin:round;stroke-opacity:1;stroke-dasharray:none"
       d="m 128945000,105050000 h 5100000 v 1400000 h -5100000 z"
       id="path475" />
  </g>
  <g
     id="g479"
     style="fill:#000000;fill-opacity:0;stroke:#000000;stroke-width:100000;stroke-linecap:round;stroke-linejoin:round;stroke-opacity:1" />
  <g
     style="fill:#000000;fill-opacity:1;stroke:none;stroke-width:100000.00525011;stroke-linecap:round;stroke-linejoin:round;stroke-opacity:1;stroke-dasharray:none"
     id="g485">
    <path
       style="fill:#000000;fill-opacity:1;fill-rule:evenodd;stroke:none;stroke-width:100000.00525011;stroke-linecap:round;stroke-linejoin:round;stroke-opacity:1;stroke-dasharray:none"
       d="m 108517000,100116000 v -7700000 h 3100000 v 7700000 z"
       id="path481" />
    <path
       style="fill:#000000;fill-opacity:1;fill-rule:evenodd;stroke:none;stroke-width:100000.00525011;stroke-linecap:round;stroke-linejoin:round;stroke-opacity:1;stroke-dasharray:none"
       d="m 115417000,100116000 v -7700000 h 3100000 v 7700000 z"
       id="path483" />
  </g>
  <g
     id="g487"
     style="fill:#000000;fill-opacity:0;stroke:#000000;stroke-width:100000;stroke-linecap:round;stroke-linejoin:round;stroke-opacity:1" />
  <g
     style="fill:#000000;fill-opacity:1;stroke:none;stroke-width:100000.00525011;stroke-linecap:round;stroke-linejoin:round;stroke-opacity:1;stroke-dasharray:none"
     id="g493">
    <path
       style="fill:#000000;fill-opacity:1;fill-rule:evenodd;stroke:none;stroke-width:100000.00525011;stroke-linecap:round;stroke-linejoin:round;stroke-opacity:1;stroke-dasharray:none"
       d="m 116511000,111466000 -95670,-19030 -81110,-54190 -54190,-81110 -19030,-95670 v -800000 l 19030,-95670 54190,-81110 81110,-54190 95670,-19030 h 1250000 l 95670,19030 81110,54190 54190,81110 19030,95670 v 800000 l -19030,95670 -54190,81110 -81110,54190 -95670,19030 z"
       id="path489" />
    <path
       style="fill:#000000;fill-opacity:1;fill-rule:evenodd;stroke:none;stroke-width:100000.00525011;stroke-linecap:round;stroke-linejoin:round;stroke-opacity:1;stroke-dasharray:none"
       d="m 116511000,108366000 -95670,-19030 -81110,-54190 -54190,-81110 -19030,-95670 v -800000 l 19030,-95670 54190,-81110 81110,-54190 95670,-19030 h 1250000 l 95670,19030 81110,54190 54190,81110 19030,95670 v 800000 l -19030,95670 -54190,81110 -81110,54190 -95670,19030 z"
       id="path491" />
  </g>
  <g
     id="g495"
     style="fill:#000000;fill-opacity:0;stroke:#000000;stroke-width:100000;stroke-linecap:round;stroke-linejoin:round;stroke-opacity:1" />
  <g
     style="fill:#000000;fill-opacity:1;stroke:none;stroke-width:100000.00525011;stroke-linecap:round;stroke-linejoin:round;stroke-opacity:1;stroke-dasharray:none"
     id="g505">
    <path
       style="fill:#000000;fill-opacity:1;fill-rule:evenodd;stroke:none;stroke-width:100000.00525011;stroke-linecap:round;stroke-linejoin:round;stroke-opacity:1;stroke-dasharray:none"
       d="m 91900000,95225787 -12957,65138 -36897,55221 -55221,36897 -65139,12956 -459573,1 -65138,-12957 -55221,-36897 -36897,-55221 -12956,-65139 -1,-459573 12957,-65138 36897,-55221 55221,-36897 65139,-12956 459573,-1 65138,12957 55221,36897 36897,55221 12956,65139 z"
       id="path497" />
    <path
       style="fill:#000000;fill-opacity:1;fill-rule:evenodd;stroke:none;stroke-width:100000.00525011;stroke-linecap:round;stroke-linejoin:round;stroke-opacity:1;stroke-dasharray:none"
       d="m 90700000,94568340 -9718,48853 -27673,41416 -41416,27673 -48853,9718 h -344680 l -48853,-9718 -41416,-27673 -27673,-41416 -9718,-48853 v -444680 l 9718,-48853 27673,-41416 41416,-27673 48853,-9718 h 344680 l 48853,9718 41416,27673 27673,41416 9718,48853 z"
       id="path499" />
    <path
       style="fill:#000000;fill-opacity:1;fill-rule:evenodd;stroke:none;stroke-width:100000.00525011;stroke-linecap:round;stroke-linejoin:round;stroke-opacity:1;stroke-dasharray:none"
       d="m 90700000,95868340 -9718,48853 -27673,41416 -41416,27673 -48853,9718 h -344680 l -48853,-9718 -41416,-27673 -27673,-41416 -9718,-48853 v -444680 l 9718,-48853 27673,-41416 41416,-27673 48853,-9718 h 344680 l 48853,9718 41416,27673 27673,41416 9718,48853 z"
       id="path501" />
    <path
       style="fill:#000000;fill-opacity:1;fill-rule:evenodd;stroke:none;stroke-width:100000.00525011;stroke-linecap:round;stroke-linejoin:round;stroke-opacity:1;stroke-dasharray:none"
       d="m 89700000,95225787 -12957,65138 -36897,55221 -55221,36897 -65139,12956 -459573,1 -65138,-12957 -55221,-36897 -36897,-55221 -12956,-65139 -1,-459573 12957,-65138 36897,-55221 55221,-36897 65139,-12956 459573,-1 65138,12957 55221,36897 36897,55221 12956,65139 z"
       id="path503" />
  </g>
  <g
     id="g507"
     style="fill:#000000;fill-opacity:0;stroke:#000000;stroke-width:100000;stroke-linecap:round;stroke-linejoin:round;stroke-opacity:1" />
  <g
     id="g509"
     style="fill:#000000;fill-opacity:0;stroke:#000000;stroke-width:100000;stroke-linecap:round;stroke-linejoin:round;stroke-opacity:1" />
  <g
     style="fill:#000000;fill-opacity:1;stroke:none;stroke-width:100000.00525011;stroke-linecap:round;stroke-linejoin:round;stroke-opacity:1;stroke-dasharray:none"
     id="g517">
    <path
       style="fill:#000000;fill-opacity:1;fill-rule:evenodd;stroke:none;stroke-width:100000.00525011;stroke-linecap:round;stroke-linejoin:round;stroke-opacity:1;stroke-dasharray:none"
       d="m 95193500,111676000 11418,-57400 32516,-48670 48663,-32510 57403,-11420 h 1175000 l 57403,11420 48663,32510 32516,48670 11418,57400 v 300000 l -11418,57400 -32516,48670 -48663,32510 -57403,11420 h -1175000 l -57403,-11420 -48663,-32510 -32516,-48670 -11418,-57400 z"
       id="path511" />
    <path
       style="fill:#000000;fill-opacity:1;fill-rule:evenodd;stroke:none;stroke-width:100000.00525011;stroke-linecap:round;stroke-linejoin:round;stroke-opacity:1;stroke-dasharray:none"
       d="m 95193500,113576000 11418,-57400 32516,-48670 48663,-32510 57403,-11420 h 1175000 l 57403,11420 48663,32510 32516,48670 11418,57400 v 300000 l -11418,57400 -32516,48670 -48663,32510 -57403,11420 h -1175000 l -57403,-11420 -48663,-32510 -32516,-48670 -11418,-57400 z"
       id="path513" />
    <path
       style="fill:#000000;fill-opacity:1;fill-rule:evenodd;stroke:none;stroke-width:100000.00525011;stroke-linecap:round;stroke-linejoin:round;stroke-opacity:1;stroke-dasharray:none"
       d="m 97068500,112626000 11418,-57400 32516,-48670 48663,-32510 57403,-11420 h 1175000 l 57403,11420 48663,32510 32516,48670 11418,57400 v 300000 l -11418,57400 -32516,48670 -48663,32510 -57403,11420 h -1175000 l -57403,-11420 -48663,-32510 -32516,-48670 -11418,-57400 z"
       id="path515" />
  </g>
  <g
     id="g519"
     style="fill:#000000;fill-opacity:0;stroke:#000000;stroke-width:100000;stroke-linecap:round;stroke-linejoin:round;stroke-opacity:1" />
  <g
     style="fill:#000000;fill-opacity:1;stroke:none;stroke-width:100000.00525011;stroke-linecap:round;stroke-linejoin:round;stroke-opacity:1;stroke-dasharray:none"
     id="g531">
    <path
       style="fill:#000000;fill-opacity:1;fill-rule:evenodd;stroke:none;stroke-width:100000.00525011;stroke-linecap:round;stroke-linejoin:round;stroke-opacity:1;stroke-dasharray:none"
       d="m 108716000,109641000 v -650000 h 2000000 v 650000 z"
       id="path521" />
    <path
       style="fill:#000000;fill-opacity:1;fill-rule:evenodd;stroke:none;stroke-width:100000.00525011;stroke-linecap:round;stroke-linejoin:round;stroke-opacity:1;stroke-dasharray:none"
       d="m 108716000,110591000 v -650000 h 2000000 v 650000 z"
       id="path523" />
    <path
       style="fill:#000000;fill-opacity:1;fill-rule:evenodd;stroke:none;stroke-width:100000.00525011;stroke-linecap:round;stroke-linejoin:round;stroke-opacity:1;stroke-dasharray:none"
       d="m 108716000,111541000 v -650000 h 2000000 v 650000 z"
       id="path525" />
    <path
       style="fill:#000000;fill-opacity:1;fill-rule:evenodd;stroke:none;stroke-width:100000.00525011;stroke-linecap:round;stroke-linejoin:round;stroke-opacity:1;stroke-dasharray:none"
       d="m 112136000,111541000 v -650000 h 2000000 v 650000 z"
       id="path527" />
    <path
       style="fill:#000000;fill-opacity:1;fill-rule:evenodd;stroke:none;stroke-width:100000.00525011;stroke-linecap:round;stroke-linejoin:round;stroke-opacity:1;stroke-dasharray:none"
       d="m 112136000,109641000 v -650000 h 2000000 v 650000 z"
       id="path529" />
  </g>
  <g
     id="g533"
     style="fill:#000000;fill-opacity:0;stroke:#000000;stroke-width:100000;stroke-linecap:round;stroke-linejoin:round;stroke-opacity:1" />
  <g
     style="fill:#000000;fill-opacity:1;stroke:none;stroke-width:100000.00525011;stroke-linecap:round;stroke-linejoin:round;stroke-opacity:1;stroke-dasharray:none"
     id="g539">
    <path
       style="fill:#000000;fill-opacity:1;fill-rule:evenodd;stroke:none;stroke-width:100000.00525011;stroke-linecap:round;stroke-linejoin:round;stroke-opacity:1;stroke-dasharray:none"
       d="m 121395500,102586500 90890,18080 77050,51480 51480,77050 18080,90890 v 600000 l -18080,90890 -51480,77050 -77050,51480 -90890,18080 h -475000 l -90890,-18080 -77050,-51480 -51480,-77050 -18080,-90890 v -600000 l 18080,-90890 51480,-77050 77050,-51480 90890,-18080 z"
       id="path535" />
    <path
       style="fill:#000000;fill-opacity:1;fill-rule:evenodd;stroke:none;stroke-width:100000.00525011;stroke-linecap:round;stroke-linejoin:round;stroke-opacity:1;stroke-dasharray:none"
       d="m 121395500,104311500 90890,18080 77050,51480 51480,77050 18080,90890 v 600000 l -18080,90890 -51480,77050 -77050,51480 -90890,18080 h -475000 l -90890,-18080 -77050,-51480 -51480,-77050 -18080,-90890 v -600000 l 18080,-90890 51480,-77050 77050,-51480 90890,-18080 z"
       id="path537" />
  </g>
  <g
     id="g541"
     style="fill:#000000;fill-opacity:0;stroke:#000000;stroke-width:100000;stroke-linecap:round;stroke-linejoin:round;stroke-opacity:1" />
  <g
     style="fill:#000000;fill-opacity:1;stroke:none;stroke-width:100000.00525011;stroke-linecap:round;stroke-linejoin:round;stroke-opacity:1;stroke-dasharray:none"
     id="g547">
    <path
       style="fill:#000000;fill-opacity:1;fill-rule:evenodd;stroke:none;stroke-width:100000.00525011;stroke-linecap:round;stroke-linejoin:round;stroke-opacity:1;stroke-dasharray:none"
       d="m 89862500,114376000 -95671,-19030 -81106,-54190 -54193,-81110 -19030,-95670 v -700000 l 19030,-95670 54193,-81110 81106,-54190 95671,-19030 h 900000 l 95671,19030 81106,54190 54193,81110 19030,95670 v 700000 l -19030,95670 -54193,81110 -81106,54190 -95671,19030 z"
       id="path543" />
    <path
       style="fill:#000000;fill-opacity:1;fill-rule:evenodd;stroke:none;stroke-width:100000.00525011;stroke-linecap:round;stroke-linejoin:round;stroke-opacity:1;stroke-dasharray:none"
       d="m 89862500,112376000 -95671,-19030 -81106,-54190 -54193,-81110 -19030,-95670 v -700000 l 19030,-95670 54193,-81110 81106,-54190 95671,-19030 h 900000 l 95671,19030 81106,54190 54193,81110 19030,95670 v 700000 l -19030,95670 -54193,81110 -81106,54190 -95671,19030 z"
       id="path545" />
  </g>
  <g
     id="g549"
     style="fill:#000000;fill-opacity:0;stroke:#000000;stroke-width:100000;stroke-linecap:round;stroke-linejoin:round;stroke-opacity:1" />
  <g
     style="fill:#000000;fill-opacity:1;stroke:none;stroke-width:100000.00525011;stroke-linecap:round;stroke-linejoin:round;stroke-opacity:1;stroke-dasharray:none"
     id="g555">
    <path
       style="fill:#000000;fill-opacity:1;fill-rule:evenodd;stroke:none;stroke-width:100000.00525011;stroke-linecap:round;stroke-linejoin:round;stroke-opacity:1;stroke-dasharray:none"
       d="m 114236000,101566000 v 1400000 h -1300000 v -1400000 z"
       id="path551" />
    <path
       style="fill:#000000;fill-opacity:1;fill-rule:evenodd;stroke:none;stroke-width:100000.00525011;stroke-linecap:round;stroke-linejoin:round;stroke-opacity:1;stroke-dasharray:none"
       d="m 111336000,101566000 v 1400000 h -1300000 v -1400000 z"
       id="path553" />
  </g>
  <g
     id="g557"
     style="fill:#000000;fill-opacity:0;stroke:#000000;stroke-width:100000;stroke-linecap:round;stroke-linejoin:round;stroke-opacity:1" />
  <g
     style="fill:#000000;fill-opacity:1;stroke:none;stroke-width:100000.00525011;stroke-linecap:round;stroke-linejoin:round;stroke-opacity:1;stroke-dasharray:none"
     id="g563">
    <path
       style="fill:#000000;fill-opacity:1;fill-rule:evenodd;stroke:none;stroke-width:100000.00525011;stroke-linecap:round;stroke-linejoin:round;stroke-opacity:1;stroke-dasharray:none"
       d="m 98408500,89278000 90887,18079 77051,51483 51483,77051 18079,90887 v 500000 l -18079,90887 -51483,77051 -77051,51483 -90887,18079 h -475000 l -90887,-18079 -77051,-51483 -51483,-77051 -18079,-90887 v -500000 l 18079,-90887 51483,-77051 77051,-51483 90887,-18079 z"
       id="path559" />
    <path
       style="fill:#000000;fill-opacity:1;fill-rule:evenodd;stroke:none;stroke-width:100000.00525011;stroke-linecap:round;stroke-linejoin:round;stroke-opacity:1;stroke-dasharray:none"
       d="m 98408500,91103000 90887,18079 77051,51483 51483,77051 18079,90887 v 500000 l -18079,90887 -51483,77051 -77051,51483 -90887,18079 h -475000 l -90887,-18079 -77051,-51483 -51483,-77051 -18079,-90887 v -500000 l 18079,-90887 51483,-77051 77051,-51483 90887,-18079 z"
       id="path561" />
  </g>
  <g
     id="g565"
     style="fill:#000000;fill-opacity:0;stroke:#000000;stroke-width:100000;stroke-linecap:round;stroke-linejoin:round;stroke-opacity:1" />
  <g
     style="fill:#000000;fill-opacity:1;stroke:none;stroke-width:100000.00525011;stroke-linecap:round;stroke-linejoin:round;stroke-opacity:1;stroke-dasharray:none"
     id="g571">
    <path
       style="fill:#000000;fill-opacity:1;fill-rule:evenodd;stroke:none;stroke-width:100000.00525011;stroke-linecap:round;stroke-linejoin:round;stroke-opacity:1;stroke-dasharray:none"
       d="m 109911000,105166000 19030,-95670 54190,-81110 81110,-54190 95670,-19030 h 825000 l 95670,19030 81110,54190 54190,81110 19030,95670 v 2200000 l -19030,95670 -54190,81110 -81110,54190 -95670,19030 h -825000 l -95670,-19030 -81110,-54190 -54190,-81110 -19030,-95670 z"
       id="path567" />
    <path
       style="fill:#000000;fill-opacity:1;fill-rule:evenodd;stroke:none;stroke-width:100000.00525011;stroke-linecap:round;stroke-linejoin:round;stroke-opacity:1;stroke-dasharray:none"
       d="m 113036000,105166000 19030,-95670 54190,-81110 81110,-54190 95670,-19030 h 825000 l 95670,19030 81110,54190 54190,81110 19030,95670 v 2200000 l -19030,95670 -54190,81110 -81110,54190 -95670,19030 h -825000 l -95670,-19030 -81110,-54190 -54190,-81110 -19030,-95670 z"
       id="path569" />
  </g>
  <g
     id="g573"
     style="fill:#000000;fill-opacity:0;stroke:#000000;stroke-width:100000;stroke-linecap:round;stroke-linejoin:round;stroke-opacity:1" />
  <g
     style="fill:#000000;fill-opacity:1;stroke:none;stroke-width:100000.00525011;stroke-linecap:round;stroke-linejoin:round;stroke-opacity:1;stroke-dasharray:none"
     id="g579">
    <path
       style="fill:#000000;fill-opacity:1;fill-rule:evenodd;stroke:none;stroke-width:100000.00525011;stroke-linecap:round;stroke-linejoin:round;stroke-opacity:1;stroke-dasharray:none"
       d="m 74650000,95050000 v 2300000 h -3500000 v -2300000 z"
       id="path575" />
    <path
       style="fill:#000000;fill-opacity:1;fill-rule:evenodd;stroke:none;stroke-width:100000.00525011;stroke-linecap:round;stroke-linejoin:round;stroke-opacity:1;stroke-dasharray:none"
       d="m 69250000,95050000 v 2300000 h -3500000 v -2300000 z"
       id="path577" />
  </g>
  <g
     id="g581"
     style="fill:#000000;fill-opacity:0;stroke:#000000;stroke-width:100000;stroke-linecap:round;stroke-linejoin:round;stroke-opacity:1" />
  <g
     style="fill:#000000;fill-opacity:1;stroke:none;stroke-width:100000.00525011;stroke-linecap:round;stroke-linejoin:round;stroke-opacity:1;stroke-dasharray:none"
     id="g587">
    <path
       style="fill:#000000;fill-opacity:1;fill-rule:evenodd;stroke:none;stroke-width:100000.00525011;stroke-linecap:round;stroke-linejoin:round;stroke-opacity:1;stroke-dasharray:none"
       d="m 96565000,95592000 v -1700000 h 3300000 v 1700000 z"
       id="path583" />
    <path
       style="fill:#000000;fill-opacity:1;fill-rule:evenodd;stroke:none;stroke-width:100000.00525011;stroke-linecap:round;stroke-linejoin:round;stroke-opacity:1;stroke-dasharray:none"
       d="m 102065000,95592000 v -1700000 h 3300000 v 1700000 z"
       id="path585" />
  </g>
  <g
     id="g589"
     style="fill:#000000;fill-opacity:0;stroke:#000000;stroke-width:100000;stroke-linecap:round;stroke-linejoin:round;stroke-opacity:1" />
  <g
     style="fill:#000000;fill-opacity:1;stroke:none;stroke-width:100000.00525011;stroke-linecap:round;stroke-linejoin:round;stroke-opacity:1;stroke-dasharray:none"
     id="g595">
    <path
       style="fill:#000000;fill-opacity:1;fill-rule:evenodd;stroke:none;stroke-width:100000.00525011;stroke-linecap:round;stroke-linejoin:round;stroke-opacity:1;stroke-dasharray:none"
       d="m 81152500,100450000 h -5100000 v -1400000 h 5100000 z"
       id="path591" />
    <path
       style="fill:#000000;fill-opacity:1;fill-rule:evenodd;stroke:none;stroke-width:100000.00525011;stroke-linecap:round;stroke-linejoin:round;stroke-opacity:1;stroke-dasharray:none"
       d="m 81152500,96950000 h -5100000 v -1400000 h 5100000 z"
       id="path593" />
  </g>
  <g
     id="g597"
     style="fill:#000000;fill-opacity:0;stroke:#000000;stroke-width:100000;stroke-linecap:round;stroke-linejoin:round;stroke-opacity:1" />
  <g
     style="fill:#000000;fill-opacity:1;stroke:none;stroke-width:100000.00525011;stroke-linecap:round;stroke-linejoin:round;stroke-opacity:1;stroke-dasharray:none"
     id="g603">
    <path
       style="fill:#000000;fill-opacity:1;fill-rule:evenodd;stroke:none;stroke-width:100000.00525011;stroke-linecap:round;stroke-linejoin:round;stroke-opacity:1;stroke-dasharray:none"
       d="m 93344000,111376000 90887,18080 77051,51480 51483,77050 18079,90890 v 500000 l -18079,90890 -51483,77050 -77051,51480 -90887,18080 h -475000 l -90887,-18080 -77051,-51480 -51483,-77050 -18079,-90890 v -500000 l 18079,-90890 51483,-77050 77051,-51480 90887,-18080 z"
       id="path599" />
    <path
       style="fill:#000000;fill-opacity:1;fill-rule:evenodd;stroke:none;stroke-width:100000.00525011;stroke-linecap:round;stroke-linejoin:round;stroke-opacity:1;stroke-dasharray:none"
       d="m 93344000,113201000 90887,18080 77051,51480 51483,77050 18079,90890 v 500000 l -18079,90890 -51483,77050 -77051,51480 -90887,18080 h -475000 l -90887,-18080 -77051,-51480 -51483,-77050 -18079,-90890 v -500000 l 18079,-90890 51483,-77050 77051,-51480 90887,-18080 z"
       id="path601" />
  </g>
  <g
     id="g605"
     style="fill:#000000;fill-opacity:0;stroke:#000000;stroke-width:100000;stroke-linecap:round;stroke-linejoin:round;stroke-opacity:1" />
  <g
     style="fill:#000000;fill-opacity:1;stroke:none;stroke-width:100000.00525011;stroke-linecap:round;stroke-linejoin:round;stroke-opacity:1;stroke-dasharray:none"
     id="g611">
    <path
       style="fill:#000000;fill-opacity:1;fill-rule:evenodd;stroke:none;stroke-width:100000.00525011;stroke-linecap:round;stroke-linejoin:round;stroke-opacity:1;stroke-dasharray:none"
       d="m 81152500,113850000 h -5100000 v -1400000 h 5100000 z"
       id="path607" />
    <path
       style="fill:#000000;fill-opacity:1;fill-rule:evenodd;stroke:none;stroke-width:100000.00525011;stroke-linecap:round;stroke-linejoin:round;stroke-opacity:1;stroke-dasharray:none"
       d="m 81152500,110350000 h -5100000 v -1400000 h 5100000 z"
       id="path609" />
  </g>
  <g
     id="g613"
     style="fill:#000000;fill-opacity:0;stroke:#000000;stroke-width:100000;stroke-linecap:round;stroke-linejoin:round;stroke-opacity:1" />
  <g
     style="fill:#000000;fill-opacity:1;stroke:none;stroke-width:100000.00525011;stroke-linecap:round;stroke-linejoin:round;stroke-opacity:1;stroke-dasharray:none"
     id="g619">
    <path
       style="fill:#000000;fill-opacity:1;fill-rule:evenodd;stroke:none;stroke-width:100000.00525011;stroke-linecap:round;stroke-linejoin:round;stroke-opacity:1;stroke-dasharray:none"
       d="m 74650000,110650000 v 2300000 h -3500000 v -2300000 z"
       id="path615" />
    <path
       style="fill:#000000;fill-opacity:1;fill-rule:evenodd;stroke:none;stroke-width:100000.00525011;stroke-linecap:round;stroke-linejoin:round;stroke-opacity:1;stroke-dasharray:none"
       d="m 69250000,110650000 v 2300000 h -3500000 v -2300000 z"
       id="path617" />
  </g>
  <g
     id="g621"
     style="fill:#000000;fill-opacity:0;stroke:#000000;stroke-width:100000;stroke-linecap:round;stroke-linejoin:round;stroke-opacity:1" />
  <g
     id="g623"
     style="fill:#000000;fill-opacity:0;stroke:#000000;stroke-width:100000;stroke-linecap:round;stroke-linejoin:round;stroke-opacity:1" />
  <g
     id="g625"
     style="fill:#000000;fill-opacity:0;stroke:#000000;stroke-width:100000;stroke-linecap:round;stroke-linejoin:round;stroke-opacity:1" />
</svg>
