%TF.GenerationSoftware,KiCad,Pcbnew,6.0.6*%
%TF.CreationDate,2023-03-31T16:05:06+02:00*%
%TF.ProjectId,power,706f7765-722e-46b6-9963-61645f706362,rev?*%
%TF.SameCoordinates,Original*%
%TF.FileFunction,Copper,L1,Top*%
%TF.FilePolarity,Positive*%
%FSLAX46Y46*%
G04 Gerber Fmt 4.6, Leading zero omitted, Abs format (unit mm)*
G04 Created by KiCad (PCBNEW 6.0.6) date 2023-03-31 16:05:06*
%MOMM*%
%LPD*%
G01*
G04 APERTURE LIST*
G04 Aperture macros list*
%AMRoundRect*
0 Rectangle with rounded corners*
0 $1 Rounding radius*
0 $2 $3 $4 $5 $6 $7 $8 $9 X,Y pos of 4 corners*
0 Add a 4 corners polygon primitive as box body*
4,1,4,$2,$3,$4,$5,$6,$7,$8,$9,$2,$3,0*
0 Add four circle primitives for the rounded corners*
1,1,$1+$1,$2,$3*
1,1,$1+$1,$4,$5*
1,1,$1+$1,$6,$7*
1,1,$1+$1,$8,$9*
0 Add four rect primitives between the rounded corners*
20,1,$1+$1,$2,$3,$4,$5,0*
20,1,$1+$1,$4,$5,$6,$7,0*
20,1,$1+$1,$6,$7,$8,$9,0*
20,1,$1+$1,$8,$9,$2,$3,0*%
G04 Aperture macros list end*
%TA.AperFunction,Profile*%
%ADD10C,0.090000*%
%TD*%
%TA.AperFunction,Profile*%
%ADD11C,0.100000*%
%TD*%
%TA.AperFunction,SMDPad,CuDef*%
%ADD12RoundRect,0.250000X-0.475000X0.337500X-0.475000X-0.337500X0.475000X-0.337500X0.475000X0.337500X0*%
%TD*%
%TA.AperFunction,WasherPad*%
%ADD13C,1.800000*%
%TD*%
%TA.AperFunction,SMDPad,CuDef*%
%ADD14R,5.100000X1.400000*%
%TD*%
%TA.AperFunction,SMDPad,CuDef*%
%ADD15R,3.100000X7.700000*%
%TD*%
%TA.AperFunction,SMDPad,CuDef*%
%ADD16RoundRect,0.250000X0.625000X-0.400000X0.625000X0.400000X-0.625000X0.400000X-0.625000X-0.400000X0*%
%TD*%
%TA.AperFunction,SMDPad,CuDef*%
%ADD17RoundRect,0.170213X0.229787X0.229787X-0.229787X0.229787X-0.229787X-0.229787X0.229787X-0.229787X0*%
%TD*%
%TA.AperFunction,SMDPad,CuDef*%
%ADD18RoundRect,0.127660X0.172340X0.222340X-0.172340X0.222340X-0.172340X-0.222340X0.172340X-0.222340X0*%
%TD*%
%TA.AperFunction,ComponentPad*%
%ADD19C,3.000000*%
%TD*%
%TA.AperFunction,SMDPad,CuDef*%
%ADD20RoundRect,0.150000X-0.587500X-0.150000X0.587500X-0.150000X0.587500X0.150000X-0.587500X0.150000X0*%
%TD*%
%TA.AperFunction,SMDPad,CuDef*%
%ADD21R,2.000000X0.650000*%
%TD*%
%TA.AperFunction,SMDPad,CuDef*%
%ADD22RoundRect,0.237500X-0.237500X0.300000X-0.237500X-0.300000X0.237500X-0.300000X0.237500X0.300000X0*%
%TD*%
%TA.AperFunction,SMDPad,CuDef*%
%ADD23RoundRect,0.250000X0.450000X-0.350000X0.450000X0.350000X-0.450000X0.350000X-0.450000X-0.350000X0*%
%TD*%
%TA.AperFunction,SMDPad,CuDef*%
%ADD24R,1.300000X1.400000*%
%TD*%
%TA.AperFunction,SMDPad,CuDef*%
%ADD25RoundRect,0.237500X-0.237500X0.250000X-0.237500X-0.250000X0.237500X-0.250000X0.237500X0.250000X0*%
%TD*%
%TA.AperFunction,SMDPad,CuDef*%
%ADD26RoundRect,0.250000X-0.412500X-1.100000X0.412500X-1.100000X0.412500X1.100000X-0.412500X1.100000X0*%
%TD*%
%TA.AperFunction,SMDPad,CuDef*%
%ADD27R,3.500000X2.300000*%
%TD*%
%TA.AperFunction,SMDPad,CuDef*%
%ADD28R,3.300000X1.700000*%
%TD*%
%TA.AperFunction,Conductor*%
%ADD29C,0.600000*%
%TD*%
%TA.AperFunction,Conductor*%
%ADD30C,1.200000*%
%TD*%
G04 APERTURE END LIST*
D10*
X70791471Y-120742043D02*
X70791471Y-117492043D01*
X132291457Y-89992043D02*
G75*
G03*
X135291471Y-92992043I3000043J43D01*
G01*
X83141471Y-89492043D02*
G75*
G03*
X83141471Y-89492043I-1600000J0D01*
G01*
X123141471Y-117992043D02*
G75*
G03*
X123141471Y-117992043I-1600000J0D01*
G01*
X65541471Y-86741971D02*
G75*
G03*
X64541471Y-87742043I-71J-999929D01*
G01*
X64541471Y-114492043D02*
X64541471Y-87742043D01*
X137541471Y-120741971D02*
G75*
G03*
X138541471Y-119742043I-71J1000071D01*
G01*
X135291471Y-92992043D02*
X138541471Y-92992043D01*
X67791471Y-114492043D02*
X64541471Y-114492043D01*
X132291471Y-86742043D02*
X132291471Y-89992043D01*
X137541471Y-120742043D02*
X70791471Y-120742043D01*
X70791457Y-117492043D02*
G75*
G03*
X67791471Y-114492043I-2999957J43D01*
G01*
X65541471Y-86742043D02*
X132291471Y-86742043D01*
X138541471Y-92992043D02*
X138541471Y-119742043D01*
D11*
X154000000Y-126000000D02*
X49000000Y-126000000D01*
X49000000Y-126000000D02*
X49000000Y-82000000D01*
X49000000Y-82000000D02*
X154000000Y-82000000D01*
X154000000Y-82000000D02*
X154000000Y-126000000D01*
D12*
%TO.P,C1,1*%
%TO.N,GND*%
X106136000Y-110228500D03*
%TO.P,C1,2*%
%TO.N,Net-(C1-Pad2)*%
X106136000Y-112303500D03*
%TD*%
D13*
%TO.P,J1,*%
%TO.N,*%
X126500000Y-99500000D03*
X126500000Y-108500000D03*
D14*
%TO.P,J1,1,Pin_1*%
%TO.N,Net-(C2-Pad1)*%
X131495000Y-102250000D03*
%TO.P,J1,2,Pin_2*%
%TO.N,Net-(C2-Pad2)*%
X131495000Y-105750000D03*
%TD*%
D15*
%TO.P,L1,1*%
%TO.N,Net-(D2-Pad2)*%
X110067000Y-96266000D03*
%TO.P,L1,2*%
%TO.N,Net-(C2-Pad1)*%
X116967000Y-96266000D03*
%TD*%
D16*
%TO.P,R4,1*%
%TO.N,Net-(C2-Pad2)*%
X117136000Y-110816000D03*
%TO.P,R4,2*%
%TO.N,+12V*%
X117136000Y-107716000D03*
%TD*%
D17*
%TO.P,C4,1,1*%
%TO.N,+12V*%
X91500000Y-94996000D03*
D18*
%TO.P,C4,2,2*%
%TO.N,GND*%
X90400000Y-94346000D03*
X90400000Y-95646000D03*
D17*
%TO.P,C4,3,3*%
%TO.N,Net-(C4-Pad3)*%
X89300000Y-94996000D03*
%TD*%
D19*
%TO.P,RV1,1,1*%
%TO.N,Net-(Q1-Pad3)*%
X92456000Y-105664000D03*
%TO.P,RV1,2,2*%
%TO.N,Net-(C1-Pad2)*%
X102456000Y-103164000D03*
%TO.P,RV1,3,3*%
%TO.N,Net-(D1-Pad1)*%
X92456000Y-100664000D03*
%TD*%
D20*
%TO.P,Q1,1,G*%
%TO.N,Net-(Q1-Pad1)*%
X95931000Y-111826000D03*
%TO.P,Q1,2,S*%
%TO.N,GND*%
X95931000Y-113726000D03*
%TO.P,Q1,3,D*%
%TO.N,Net-(Q1-Pad3)*%
X97806000Y-112776000D03*
%TD*%
D21*
%TO.P,U1,1,Lx*%
%TO.N,Net-(D2-Pad2)*%
X109716000Y-109316000D03*
%TO.P,U1,2,GND*%
%TO.N,GND*%
X109716000Y-110266000D03*
%TO.P,U1,3,Vset*%
%TO.N,Net-(C1-Pad2)*%
X109716000Y-111216000D03*
%TO.P,U1,4,Isense*%
%TO.N,Net-(C2-Pad2)*%
X113136000Y-111216000D03*
%TO.P,U1,5,Vin*%
%TO.N,+12V*%
X113136000Y-109316000D03*
%TD*%
D22*
%TO.P,C2,1*%
%TO.N,Net-(C2-Pad1)*%
X121158000Y-103124000D03*
%TO.P,C2,2*%
%TO.N,Net-(C2-Pad2)*%
X121158000Y-104849000D03*
%TD*%
D23*
%TO.P,R3,1*%
%TO.N,Net-(D4-Pad1)*%
X90312500Y-113776000D03*
%TO.P,R3,2*%
%TO.N,Net-(Q1-Pad1)*%
X90312500Y-111776000D03*
%TD*%
D24*
%TO.P,D2,1,K*%
%TO.N,+12V*%
X113586000Y-102266000D03*
%TO.P,D2,2,A*%
%TO.N,Net-(D2-Pad2)*%
X110686000Y-102266000D03*
%TD*%
D25*
%TO.P,R1,1*%
%TO.N,+12V*%
X98171000Y-89765500D03*
%TO.P,R1,2*%
%TO.N,Net-(D1-Pad1)*%
X98171000Y-91590500D03*
%TD*%
D26*
%TO.P,C3,1*%
%TO.N,GND*%
X110573500Y-106266000D03*
%TO.P,C3,2*%
%TO.N,+12V*%
X113698500Y-106266000D03*
%TD*%
D27*
%TO.P,D3,1,A1*%
%TO.N,Net-(C4-Pad3)*%
X72900000Y-96200000D03*
%TO.P,D3,2,A2*%
%TO.N,GND*%
X67500000Y-96200000D03*
%TD*%
D28*
%TO.P,D1,1,K*%
%TO.N,Net-(D1-Pad1)*%
X98215000Y-94742000D03*
%TO.P,D1,2,A*%
%TO.N,GND*%
X103715000Y-94742000D03*
%TD*%
D13*
%TO.P,J2,*%
%TO.N,*%
X83597500Y-102500000D03*
X83597500Y-93500000D03*
D14*
%TO.P,J2,1,Pin_1*%
%TO.N,GND*%
X78602500Y-99750000D03*
%TO.P,J2,2,Pin_2*%
%TO.N,Net-(C4-Pad3)*%
X78602500Y-96250000D03*
%TD*%
D25*
%TO.P,R2,1*%
%TO.N,Net-(Q1-Pad1)*%
X93106500Y-111863500D03*
%TO.P,R2,2*%
%TO.N,GND*%
X93106500Y-113688500D03*
%TD*%
D13*
%TO.P,J3,*%
%TO.N,*%
X83597500Y-106900000D03*
X83597500Y-115900000D03*
D14*
%TO.P,J3,1,Pin_1*%
%TO.N,Net-(D4-Pad1)*%
X78602500Y-113150000D03*
%TO.P,J3,2,Pin_2*%
%TO.N,GND*%
X78602500Y-109650000D03*
%TD*%
D27*
%TO.P,D4,1,A1*%
%TO.N,Net-(D4-Pad1)*%
X72900000Y-111800000D03*
%TO.P,D4,2,A2*%
%TO.N,GND*%
X67500000Y-111800000D03*
%TD*%
D29*
%TO.N,GND*%
X89408000Y-99592000D02*
X89408000Y-104013000D01*
D30*
X78613000Y-104648000D02*
X69552000Y-104648000D01*
D29*
X89893000Y-91948000D02*
X90400000Y-92455000D01*
X65852000Y-91948000D02*
X89893000Y-91948000D01*
X111326000Y-108709000D02*
X110573500Y-107956500D01*
X111311000Y-110266000D02*
X111326000Y-110251000D01*
X90400000Y-98600000D02*
X89408000Y-99592000D01*
D30*
X78486000Y-104775000D02*
X78486000Y-109533500D01*
D29*
X90400000Y-95646000D02*
X90400000Y-98600000D01*
X88773000Y-104648000D02*
X85725000Y-104648000D01*
X65400000Y-113800000D02*
X65151471Y-113551471D01*
X93106500Y-113688500D02*
X93106500Y-117856000D01*
X89408000Y-104013000D02*
X88773000Y-104648000D01*
D30*
X78613000Y-104648000D02*
X78486000Y-104775000D01*
D29*
X109716000Y-110266000D02*
X106173500Y-110266000D01*
X76327000Y-117856000D02*
X72271000Y-113800000D01*
X90400000Y-92455000D02*
X90400000Y-94345000D01*
D30*
X67500000Y-106700000D02*
X67500000Y-111800000D01*
D29*
X111326000Y-110251000D02*
X111326000Y-108709000D01*
X72271000Y-113800000D02*
X65400000Y-113800000D01*
X65151471Y-92648529D02*
X65852000Y-91948000D01*
X110573500Y-107956500D02*
X110573500Y-106266000D01*
X111326000Y-113210000D02*
X106680000Y-117856000D01*
X106680000Y-117856000D02*
X76327000Y-117856000D01*
X109716000Y-110266000D02*
X111311000Y-110266000D01*
D30*
X78486000Y-104521000D02*
X78486000Y-99866500D01*
D29*
X95931000Y-113726000D02*
X93144000Y-113726000D01*
D30*
X78486000Y-109533500D02*
X78602500Y-109650000D01*
X78486000Y-99866500D02*
X78602500Y-99750000D01*
X69552000Y-104648000D02*
X67500000Y-106700000D01*
X78613000Y-104648000D02*
X78486000Y-104521000D01*
D29*
X111326000Y-110251000D02*
X111326000Y-113210000D01*
X65151471Y-113551471D02*
X65151471Y-92648529D01*
D30*
X69048000Y-104648000D02*
X67500000Y-103100000D01*
X69552000Y-104648000D02*
X69048000Y-104648000D01*
X67500000Y-103100000D02*
X67500000Y-96200000D01*
X85725000Y-104648000D02*
X78613000Y-104648000D01*
D29*
%TO.N,Net-(C1-Pad2)*%
X109716000Y-111216000D02*
X108494000Y-111216000D01*
X102456000Y-111092000D02*
X102456000Y-103164000D01*
X107406500Y-112303500D02*
X106136000Y-112303500D01*
X103667500Y-112303500D02*
X102456000Y-111092000D01*
X108494000Y-111216000D02*
X107406500Y-112303500D01*
X106136000Y-112303500D02*
X103667500Y-112303500D01*
D30*
%TO.N,+12V*%
X93091000Y-94309000D02*
X92400000Y-95000000D01*
X113586000Y-102266000D02*
X113586000Y-106153500D01*
X93091000Y-92792000D02*
X93091000Y-94309000D01*
D29*
X113136000Y-106828500D02*
X113698500Y-106266000D01*
D30*
X112649000Y-89408000D02*
X96475000Y-89408000D01*
X91610000Y-94998153D02*
X91556076Y-95052077D01*
X96475000Y-89408000D02*
X93091000Y-92792000D01*
X113586000Y-106153500D02*
X113698500Y-106266000D01*
X92398153Y-94998153D02*
X91610000Y-94998153D01*
D29*
X113136000Y-109316000D02*
X113136000Y-106828500D01*
D30*
X115148500Y-107716000D02*
X113698500Y-106266000D01*
X113538000Y-102218000D02*
X113538000Y-90297000D01*
X92400000Y-95000000D02*
X92398153Y-94998153D01*
X117136000Y-107716000D02*
X115148500Y-107716000D01*
X113538000Y-90297000D02*
X112649000Y-89408000D01*
%TO.N,Net-(C2-Pad1)*%
X131495000Y-102250000D02*
X124550000Y-102250000D01*
X123676000Y-103124000D02*
X121158000Y-103124000D01*
X116967000Y-96266000D02*
X116967000Y-100767000D01*
X124550000Y-102250000D02*
X123676000Y-103124000D01*
X119324000Y-103124000D02*
X121158000Y-103124000D01*
X116967000Y-100767000D02*
X119324000Y-103124000D01*
D29*
%TO.N,Net-(D1-Pad1)*%
X92456000Y-100664000D02*
X98215000Y-94905000D01*
X98171000Y-91590500D02*
X98171000Y-94698000D01*
D30*
%TO.N,Net-(D2-Pad2)*%
X109686000Y-102658000D02*
X109001000Y-103343000D01*
X109686000Y-96647000D02*
X109686000Y-102658000D01*
X109001000Y-108601000D02*
X109431000Y-109031000D01*
D29*
X109716000Y-109316000D02*
X109716000Y-108846000D01*
X109716000Y-108846000D02*
X109101000Y-108231000D01*
D30*
X109001000Y-103343000D02*
X109001000Y-108601000D01*
X109431000Y-109031000D02*
X109716000Y-109031000D01*
D29*
%TO.N,Net-(C2-Pad2)*%
X113136000Y-111216000D02*
X115352000Y-111216000D01*
D30*
X124600000Y-105800000D02*
X123649000Y-104849000D01*
D29*
X115352000Y-111216000D02*
X115443000Y-111125000D01*
D30*
X119384000Y-110816000D02*
X117136000Y-110816000D01*
X115443000Y-111125000D02*
X116827000Y-111125000D01*
X131445000Y-105800000D02*
X124600000Y-105800000D01*
X123649000Y-104849000D02*
X121158000Y-104849000D01*
X121158000Y-104849000D02*
X121158000Y-109042000D01*
X121158000Y-109042000D02*
X119384000Y-110816000D01*
X116827000Y-111125000D02*
X117136000Y-110816000D01*
D29*
%TO.N,Net-(Q1-Pad1)*%
X95931000Y-111826000D02*
X93144000Y-111826000D01*
X93106500Y-111863500D02*
X90400000Y-111863500D01*
%TO.N,Net-(Q1-Pad3)*%
X92456000Y-105664000D02*
X97806000Y-111014000D01*
X97806000Y-111014000D02*
X97806000Y-111594000D01*
X97806000Y-112776000D02*
X97806000Y-111594000D01*
D30*
%TO.N,Net-(C4-Pad3)*%
X84967000Y-96233000D02*
X86201847Y-94998153D01*
X78486000Y-96233000D02*
X84967000Y-96233000D01*
X86201847Y-94998153D02*
X89190000Y-94998153D01*
X89190000Y-94998153D02*
X89243924Y-95052077D01*
X78602500Y-96250000D02*
X72950000Y-96250000D01*
D29*
%TO.N,Net-(D4-Pad1)*%
X78486000Y-113063000D02*
X79023000Y-113600000D01*
D30*
X75000000Y-111800000D02*
X76350000Y-113150000D01*
X76350000Y-113150000D02*
X78602500Y-113150000D01*
X72900000Y-111800000D02*
X74600000Y-111800000D01*
X72900000Y-111800000D02*
X75000000Y-111800000D01*
D29*
X79023000Y-113600000D02*
X90136500Y-113600000D01*
%TD*%
%TA.AperFunction,Conductor*%
%TO.N,GND*%
G36*
X131923092Y-87072545D02*
G01*
X131969585Y-87126201D01*
X131980971Y-87178543D01*
X131980971Y-89953858D01*
X131979057Y-89975735D01*
X131978096Y-89981183D01*
X131978096Y-89981186D01*
X131976181Y-89992048D01*
X131976513Y-89993928D01*
X131994579Y-90338563D01*
X131995092Y-90341804D01*
X131995093Y-90341810D01*
X132014931Y-90467051D01*
X132048864Y-90681281D01*
X132082363Y-90806295D01*
X132136404Y-91007968D01*
X132138676Y-91016448D01*
X132139859Y-91019529D01*
X132139861Y-91019536D01*
X132158832Y-91068956D01*
X132263029Y-91340391D01*
X132420562Y-91649561D01*
X132609548Y-91940571D01*
X132827918Y-92210233D01*
X133073278Y-92455592D01*
X133075842Y-92457668D01*
X133075845Y-92457671D01*
X133270992Y-92615698D01*
X133342941Y-92673961D01*
X133633952Y-92862946D01*
X133636884Y-92864440D01*
X133636891Y-92864444D01*
X133940188Y-93018982D01*
X133940195Y-93018985D01*
X133943123Y-93020477D01*
X133946195Y-93021656D01*
X133946199Y-93021658D01*
X133949349Y-93022867D01*
X134267067Y-93144829D01*
X134602234Y-93234639D01*
X134788704Y-93264174D01*
X134941706Y-93288409D01*
X134941712Y-93288410D01*
X134944953Y-93288923D01*
X135289475Y-93306982D01*
X135291468Y-93307333D01*
X135307779Y-93304457D01*
X135329658Y-93302543D01*
X138104971Y-93302543D01*
X138173092Y-93322545D01*
X138219585Y-93376201D01*
X138230971Y-93428543D01*
X138230971Y-119703821D01*
X138229054Y-119725717D01*
X138228096Y-119731143D01*
X138228096Y-119731146D01*
X138226181Y-119741998D01*
X138228093Y-119752852D01*
X138228092Y-119763877D01*
X138227075Y-119763877D01*
X138227555Y-119776631D01*
X138218923Y-119864159D01*
X138214102Y-119888379D01*
X138209001Y-119905192D01*
X138182060Y-119993972D01*
X138172606Y-120016789D01*
X138120584Y-120114097D01*
X138106864Y-120134629D01*
X138036850Y-120219933D01*
X138019399Y-120237383D01*
X137934088Y-120307393D01*
X137913561Y-120321108D01*
X137816238Y-120373129D01*
X137793425Y-120382578D01*
X137687830Y-120414614D01*
X137663620Y-120419431D01*
X137575818Y-120428084D01*
X137563328Y-120427609D01*
X137563328Y-120428666D01*
X137552307Y-120428667D01*
X137541449Y-120426753D01*
X137530593Y-120428668D01*
X137530592Y-120428668D01*
X137525157Y-120429627D01*
X137503268Y-120431543D01*
X71227971Y-120431543D01*
X71159850Y-120411541D01*
X71113357Y-120357885D01*
X71101971Y-120305543D01*
X71101971Y-117931879D01*
X119627036Y-117931879D01*
X119629400Y-117992043D01*
X119637658Y-118202226D01*
X119686266Y-118468379D01*
X119771891Y-118725027D01*
X119773883Y-118729014D01*
X119773884Y-118729016D01*
X119853477Y-118888306D01*
X119892823Y-118967051D01*
X120046650Y-119189620D01*
X120049672Y-119192889D01*
X120227287Y-119385033D01*
X120227292Y-119385038D01*
X120230303Y-119388295D01*
X120440117Y-119559111D01*
X120443934Y-119561409D01*
X120668091Y-119696362D01*
X120668095Y-119696364D01*
X120671907Y-119698659D01*
X120710153Y-119714854D01*
X120916943Y-119802419D01*
X120916948Y-119802421D01*
X120921046Y-119804156D01*
X120925343Y-119805295D01*
X120925348Y-119805297D01*
X121051806Y-119838826D01*
X121182565Y-119873496D01*
X121451244Y-119905297D01*
X121721724Y-119898922D01*
X121726118Y-119898191D01*
X121726125Y-119898190D01*
X121984206Y-119855234D01*
X121984210Y-119855233D01*
X121988608Y-119854501D01*
X122246569Y-119772918D01*
X122250580Y-119770992D01*
X122250585Y-119770990D01*
X122486444Y-119657732D01*
X122486445Y-119657731D01*
X122490463Y-119655802D01*
X122631732Y-119561409D01*
X122711713Y-119507968D01*
X122711717Y-119507965D01*
X122715421Y-119505490D01*
X122718738Y-119502519D01*
X122718742Y-119502516D01*
X122913638Y-119327952D01*
X122913639Y-119327951D01*
X122916956Y-119324980D01*
X123091046Y-119117875D01*
X123096717Y-119108783D01*
X123231854Y-118892097D01*
X123231856Y-118892094D01*
X123234218Y-118888306D01*
X123343615Y-118640855D01*
X123417055Y-118380458D01*
X123453071Y-118112311D01*
X123456851Y-117992043D01*
X123452907Y-117936331D01*
X123438058Y-117726613D01*
X123437743Y-117722164D01*
X123380798Y-117457669D01*
X123359582Y-117400158D01*
X123288696Y-117208014D01*
X123287155Y-117203837D01*
X123255694Y-117145530D01*
X123160793Y-116969647D01*
X123158680Y-116965731D01*
X122997937Y-116748103D01*
X122808135Y-116555295D01*
X122756931Y-116516217D01*
X122596598Y-116393856D01*
X122593058Y-116391154D01*
X122475121Y-116325106D01*
X122360886Y-116261131D01*
X122360883Y-116261130D01*
X122357000Y-116258955D01*
X122352855Y-116257351D01*
X122352852Y-116257350D01*
X122213334Y-116203375D01*
X122104670Y-116161336D01*
X121841102Y-116100245D01*
X121571556Y-116076899D01*
X121567121Y-116077143D01*
X121567117Y-116077143D01*
X121457177Y-116083194D01*
X121301410Y-116091766D01*
X121297047Y-116092634D01*
X121297046Y-116092634D01*
X121040422Y-116143680D01*
X121040420Y-116143681D01*
X121036054Y-116144549D01*
X120780782Y-116234194D01*
X120540688Y-116358913D01*
X120537073Y-116361496D01*
X120537067Y-116361500D01*
X120324183Y-116513629D01*
X120324179Y-116513632D01*
X120320562Y-116516217D01*
X120124796Y-116702968D01*
X119957297Y-116915440D01*
X119928086Y-116965731D01*
X119823641Y-117145545D01*
X119823638Y-117145551D01*
X119821407Y-117149392D01*
X119819737Y-117153515D01*
X119741249Y-117347293D01*
X119719836Y-117400158D01*
X119654612Y-117662733D01*
X119627036Y-117931879D01*
X71101971Y-117931879D01*
X71101971Y-117530233D01*
X71103886Y-117508351D01*
X71104847Y-117502901D01*
X71106761Y-117492048D01*
X71106390Y-117489942D01*
X71090722Y-117190910D01*
X71088517Y-117148824D01*
X71088516Y-117148816D01*
X71088344Y-117145530D01*
X71072149Y-117043266D01*
X71034583Y-116806068D01*
X71034067Y-116802809D01*
X70944262Y-116467639D01*
X70819914Y-116143692D01*
X70800468Y-116105525D01*
X70695749Y-115900000D01*
X82382376Y-115900000D01*
X82400836Y-116111004D01*
X82455657Y-116315597D01*
X82457979Y-116320578D01*
X82457980Y-116320579D01*
X82526556Y-116467639D01*
X82545172Y-116507562D01*
X82666661Y-116681067D01*
X82816433Y-116830839D01*
X82989938Y-116952328D01*
X82994916Y-116954649D01*
X82994919Y-116954651D01*
X83176921Y-117039520D01*
X83181903Y-117041843D01*
X83187211Y-117043265D01*
X83187213Y-117043266D01*
X83249691Y-117060007D01*
X83386496Y-117096664D01*
X83597500Y-117115124D01*
X83808504Y-117096664D01*
X83945309Y-117060007D01*
X84007787Y-117043266D01*
X84007789Y-117043265D01*
X84013097Y-117041843D01*
X84018079Y-117039520D01*
X84200081Y-116954651D01*
X84200084Y-116954649D01*
X84205062Y-116952328D01*
X84378567Y-116830839D01*
X84528339Y-116681067D01*
X84649828Y-116507562D01*
X84668445Y-116467639D01*
X84737020Y-116320579D01*
X84737021Y-116320578D01*
X84739343Y-116315597D01*
X84794164Y-116111004D01*
X84812624Y-115900000D01*
X84794164Y-115688996D01*
X84739343Y-115484403D01*
X84649828Y-115292438D01*
X84528339Y-115118933D01*
X84378567Y-114969161D01*
X84205062Y-114847672D01*
X84200084Y-114845351D01*
X84200081Y-114845349D01*
X84018079Y-114760480D01*
X84018078Y-114760479D01*
X84013097Y-114758157D01*
X84007789Y-114756735D01*
X84007787Y-114756734D01*
X83945309Y-114739993D01*
X83808504Y-114703336D01*
X83597500Y-114684876D01*
X83386496Y-114703336D01*
X83249691Y-114739993D01*
X83187213Y-114756734D01*
X83187211Y-114756735D01*
X83181903Y-114758157D01*
X83176922Y-114760479D01*
X83176921Y-114760480D01*
X82994919Y-114845349D01*
X82994916Y-114845351D01*
X82989938Y-114847672D01*
X82816433Y-114969161D01*
X82666661Y-115118933D01*
X82545172Y-115292438D01*
X82455657Y-115484403D01*
X82400836Y-115688996D01*
X82382376Y-115900000D01*
X70695749Y-115900000D01*
X70663880Y-115837452D01*
X70663879Y-115837451D01*
X70662385Y-115834518D01*
X70473401Y-115543505D01*
X70429842Y-115489713D01*
X70257108Y-115276404D01*
X70255032Y-115273840D01*
X70009672Y-115028478D01*
X69941232Y-114973056D01*
X69790291Y-114850827D01*
X69740008Y-114810109D01*
X69575592Y-114703336D01*
X69451746Y-114622909D01*
X69451739Y-114622905D01*
X69448995Y-114621123D01*
X69444350Y-114618756D01*
X69142762Y-114465090D01*
X69139822Y-114463592D01*
X68815876Y-114339243D01*
X68480706Y-114249436D01*
X68477460Y-114248922D01*
X68477451Y-114248920D01*
X68258868Y-114214302D01*
X68137985Y-114195157D01*
X67920707Y-114183772D01*
X67805012Y-114177709D01*
X67805011Y-114177709D01*
X67793461Y-114177104D01*
X67791468Y-114176753D01*
X67775158Y-114179629D01*
X67753278Y-114181543D01*
X64977971Y-114181543D01*
X64909850Y-114161541D01*
X64863357Y-114107885D01*
X64851971Y-114055543D01*
X64851971Y-112994669D01*
X65242001Y-112994669D01*
X65242371Y-113001490D01*
X65247895Y-113052352D01*
X65251521Y-113067604D01*
X65296676Y-113188054D01*
X65305214Y-113203649D01*
X65381715Y-113305724D01*
X65394276Y-113318285D01*
X65496351Y-113394786D01*
X65511946Y-113403324D01*
X65632394Y-113448478D01*
X65647649Y-113452105D01*
X65698514Y-113457631D01*
X65705328Y-113458000D01*
X67181885Y-113458000D01*
X67197124Y-113453525D01*
X67198329Y-113452135D01*
X67200000Y-113444452D01*
X67200000Y-113439884D01*
X67800000Y-113439884D01*
X67804475Y-113455123D01*
X67805865Y-113456328D01*
X67813548Y-113457999D01*
X69294669Y-113457999D01*
X69301490Y-113457629D01*
X69352352Y-113452105D01*
X69367604Y-113448479D01*
X69488054Y-113403324D01*
X69503649Y-113394786D01*
X69605724Y-113318285D01*
X69618285Y-113305724D01*
X69694786Y-113203649D01*
X69703324Y-113188054D01*
X69748478Y-113067606D01*
X69752105Y-113052351D01*
X69757631Y-113001486D01*
X69758000Y-112994672D01*
X69758000Y-112118115D01*
X69753525Y-112102876D01*
X69752135Y-112101671D01*
X69744452Y-112100000D01*
X67818115Y-112100000D01*
X67802876Y-112104475D01*
X67801671Y-112105865D01*
X67800000Y-112113548D01*
X67800000Y-113439884D01*
X67200000Y-113439884D01*
X67200000Y-112118115D01*
X67195525Y-112102876D01*
X67194135Y-112101671D01*
X67186452Y-112100000D01*
X65260116Y-112100000D01*
X65244877Y-112104475D01*
X65243672Y-112105865D01*
X65242001Y-112113548D01*
X65242001Y-112994669D01*
X64851971Y-112994669D01*
X64851971Y-111481885D01*
X65242000Y-111481885D01*
X65246475Y-111497124D01*
X65247865Y-111498329D01*
X65255548Y-111500000D01*
X67181885Y-111500000D01*
X67197124Y-111495525D01*
X67198329Y-111494135D01*
X67200000Y-111486452D01*
X67200000Y-111481885D01*
X67800000Y-111481885D01*
X67804475Y-111497124D01*
X67805865Y-111498329D01*
X67813548Y-111500000D01*
X69739884Y-111500000D01*
X69755123Y-111495525D01*
X69756328Y-111494135D01*
X69757999Y-111486452D01*
X69757999Y-110605331D01*
X69757920Y-110603871D01*
X70839500Y-110603871D01*
X70839501Y-112996128D01*
X70842722Y-113023204D01*
X70889677Y-113128915D01*
X70971539Y-113210635D01*
X70982176Y-113215338D01*
X70982178Y-113215339D01*
X71068666Y-113253575D01*
X71068667Y-113253575D01*
X71077332Y-113257406D01*
X71103871Y-113260500D01*
X72885168Y-113260500D01*
X74696128Y-113260499D01*
X74723204Y-113257278D01*
X74754050Y-113243577D01*
X74818280Y-113215047D01*
X74828915Y-113210323D01*
X74851146Y-113188054D01*
X74886576Y-113152562D01*
X74948859Y-113118483D01*
X75019679Y-113123486D01*
X75064844Y-113152485D01*
X75648496Y-113736137D01*
X75661337Y-113751171D01*
X75669640Y-113762599D01*
X75700313Y-113790217D01*
X75737551Y-113850660D01*
X75742001Y-113883851D01*
X75742001Y-113896128D01*
X75745222Y-113923204D01*
X75792177Y-114028915D01*
X75800410Y-114037134D01*
X75800411Y-114037135D01*
X75802828Y-114039548D01*
X75874039Y-114110635D01*
X75884676Y-114115338D01*
X75884678Y-114115339D01*
X75971166Y-114153575D01*
X75971167Y-114153575D01*
X75979832Y-114157406D01*
X76006371Y-114160500D01*
X76311613Y-114160500D01*
X78745735Y-114160499D01*
X78791007Y-114169134D01*
X78796474Y-114172140D01*
X78804156Y-114174112D01*
X78804158Y-114174113D01*
X78815029Y-114176904D01*
X78833730Y-114183306D01*
X78851322Y-114190919D01*
X78859151Y-114192159D01*
X78893189Y-114197550D01*
X78904812Y-114199957D01*
X78930535Y-114206561D01*
X78945876Y-114210500D01*
X78965038Y-114210500D01*
X78984748Y-114212051D01*
X78995841Y-114213808D01*
X78995842Y-114213808D01*
X79003671Y-114215048D01*
X79011563Y-114214302D01*
X79016790Y-114213808D01*
X79045873Y-114211059D01*
X79057730Y-114210500D01*
X89206629Y-114210500D01*
X89274750Y-114230502D01*
X89323037Y-114288281D01*
X89372904Y-114408669D01*
X89377930Y-114415219D01*
X89377931Y-114415220D01*
X89457718Y-114519201D01*
X89462746Y-114525754D01*
X89579832Y-114615596D01*
X89716180Y-114672074D01*
X89724364Y-114673151D01*
X89724366Y-114673152D01*
X89821672Y-114685962D01*
X89825759Y-114686500D01*
X90312440Y-114686500D01*
X90799240Y-114686499D01*
X90803324Y-114685961D01*
X90803330Y-114685961D01*
X90900633Y-114673152D01*
X90900635Y-114673151D01*
X90908820Y-114672074D01*
X91045169Y-114615596D01*
X91153687Y-114532328D01*
X91155703Y-114530781D01*
X91155704Y-114530780D01*
X91162254Y-114525754D01*
X91252096Y-114408668D01*
X91308574Y-114272320D01*
X91311475Y-114250289D01*
X91322462Y-114166828D01*
X91322462Y-114166827D01*
X91323000Y-114162741D01*
X91323000Y-114005261D01*
X92125288Y-114005261D01*
X92133575Y-114085132D01*
X92136468Y-114098528D01*
X92186988Y-114249953D01*
X92193153Y-114263115D01*
X92276926Y-114398492D01*
X92285960Y-114409890D01*
X92398629Y-114522363D01*
X92410040Y-114531375D01*
X92545563Y-114614912D01*
X92558741Y-114621056D01*
X92710267Y-114671315D01*
X92723632Y-114674181D01*
X92788477Y-114680824D01*
X92803177Y-114678096D01*
X92806500Y-114665863D01*
X92806500Y-114664539D01*
X93406500Y-114664539D01*
X93410704Y-114678856D01*
X93423261Y-114680915D01*
X93490632Y-114673925D01*
X93504028Y-114671032D01*
X93655453Y-114620512D01*
X93668615Y-114614347D01*
X93803992Y-114530574D01*
X93815390Y-114521540D01*
X93927863Y-114408871D01*
X93936875Y-114397460D01*
X94020412Y-114261937D01*
X94026556Y-114248759D01*
X94076815Y-114097234D01*
X94079681Y-114083868D01*
X94084393Y-114037871D01*
X94705321Y-114037871D01*
X94732606Y-114131787D01*
X94738853Y-114146223D01*
X94815411Y-114275678D01*
X94825051Y-114288104D01*
X94931396Y-114394449D01*
X94943822Y-114404089D01*
X95073279Y-114480648D01*
X95087710Y-114486893D01*
X95233565Y-114529269D01*
X95246167Y-114531570D01*
X95274584Y-114533807D01*
X95279514Y-114534000D01*
X95612885Y-114534000D01*
X95628124Y-114529525D01*
X95629329Y-114528135D01*
X95631000Y-114520452D01*
X95631000Y-114515884D01*
X96231000Y-114515884D01*
X96235475Y-114531123D01*
X96236865Y-114532328D01*
X96244548Y-114533999D01*
X96582484Y-114533999D01*
X96587420Y-114533805D01*
X96615836Y-114531570D01*
X96628431Y-114529270D01*
X96774290Y-114486893D01*
X96788721Y-114480648D01*
X96918178Y-114404089D01*
X96930604Y-114394449D01*
X97036949Y-114288104D01*
X97046589Y-114275678D01*
X97123147Y-114146223D01*
X97129394Y-114131787D01*
X97155074Y-114043395D01*
X97155034Y-114029295D01*
X97147764Y-114026000D01*
X96249115Y-114026000D01*
X96233876Y-114030475D01*
X96232671Y-114031865D01*
X96231000Y-114039548D01*
X96231000Y-114515884D01*
X95631000Y-114515884D01*
X95631000Y-114044115D01*
X95626525Y-114028876D01*
X95625135Y-114027671D01*
X95617452Y-114026000D01*
X94719987Y-114026000D01*
X94706456Y-114029973D01*
X94705321Y-114037871D01*
X94084393Y-114037871D01*
X94087605Y-114006523D01*
X94084877Y-113991824D01*
X94072642Y-113988500D01*
X93424615Y-113988500D01*
X93409376Y-113992975D01*
X93408171Y-113994365D01*
X93406500Y-114002048D01*
X93406500Y-114664539D01*
X92806500Y-114664539D01*
X92806500Y-114006615D01*
X92802025Y-113991376D01*
X92800635Y-113990171D01*
X92792952Y-113988500D01*
X92141664Y-113988500D01*
X92127347Y-113992704D01*
X92125288Y-114005261D01*
X91323000Y-114005261D01*
X91322999Y-113408605D01*
X94706926Y-113408605D01*
X94706966Y-113422705D01*
X94714236Y-113426000D01*
X95612885Y-113426000D01*
X95628124Y-113421525D01*
X95629329Y-113420135D01*
X95631000Y-113412452D01*
X95631000Y-112936116D01*
X95626525Y-112920877D01*
X95625135Y-112919672D01*
X95617452Y-112918001D01*
X95279517Y-112918001D01*
X95274580Y-112918195D01*
X95246164Y-112920430D01*
X95233569Y-112922730D01*
X95087710Y-112965107D01*
X95073279Y-112971352D01*
X94943822Y-113047911D01*
X94931396Y-113057551D01*
X94825051Y-113163896D01*
X94815411Y-113176322D01*
X94738853Y-113305777D01*
X94732606Y-113320213D01*
X94706926Y-113408605D01*
X91322999Y-113408605D01*
X91322999Y-113389260D01*
X91321900Y-113380907D01*
X91309652Y-113287867D01*
X91309651Y-113287865D01*
X91308574Y-113279680D01*
X91252096Y-113143331D01*
X91207175Y-113084789D01*
X91167281Y-113032797D01*
X91167280Y-113032796D01*
X91162254Y-113026246D01*
X91045168Y-112936404D01*
X90938956Y-112892409D01*
X90883676Y-112847860D01*
X90861255Y-112780497D01*
X90878813Y-112711705D01*
X90930776Y-112663327D01*
X90938956Y-112659591D01*
X90960457Y-112650685D01*
X91045169Y-112615596D01*
X91135439Y-112546330D01*
X91155708Y-112530777D01*
X91162254Y-112525754D01*
X91167277Y-112519208D01*
X91173122Y-112513363D01*
X91175073Y-112515314D01*
X91221476Y-112481430D01*
X91264103Y-112474000D01*
X92396682Y-112474000D01*
X92464803Y-112494002D01*
X92477643Y-112504349D01*
X92477862Y-112504638D01*
X92541554Y-112552983D01*
X92548831Y-112558506D01*
X92590998Y-112615624D01*
X92595591Y-112686472D01*
X92561152Y-112748556D01*
X92538955Y-112766014D01*
X92409004Y-112846429D01*
X92397610Y-112855460D01*
X92285137Y-112968129D01*
X92276125Y-112979540D01*
X92192588Y-113115063D01*
X92186444Y-113128241D01*
X92136185Y-113279766D01*
X92133319Y-113293132D01*
X92125395Y-113370477D01*
X92128123Y-113385176D01*
X92140358Y-113388500D01*
X94071336Y-113388500D01*
X94085653Y-113384296D01*
X94087712Y-113371739D01*
X94079425Y-113291868D01*
X94076532Y-113278472D01*
X94026012Y-113127047D01*
X94019847Y-113113885D01*
X93936074Y-112978508D01*
X93927040Y-112967110D01*
X93814371Y-112854637D01*
X93802960Y-112845625D01*
X93674125Y-112766210D01*
X93626632Y-112713438D01*
X93615208Y-112643366D01*
X93643482Y-112578242D01*
X93664062Y-112558587D01*
X93680137Y-112546386D01*
X93735138Y-112504638D01*
X93749041Y-112486321D01*
X93806158Y-112444154D01*
X93849404Y-112436500D01*
X95969408Y-112436500D01*
X95969411Y-112436499D01*
X96573530Y-112436499D01*
X96576480Y-112436220D01*
X96576485Y-112436220D01*
X96598114Y-112434176D01*
X96598115Y-112434176D01*
X96605764Y-112433453D01*
X96608123Y-112432624D01*
X96676718Y-112437408D01*
X96733630Y-112479854D01*
X96758559Y-112546330D01*
X96758363Y-112565041D01*
X96758419Y-112565044D01*
X96758346Y-112566583D01*
X96758338Y-112567387D01*
X96758279Y-112568010D01*
X96758279Y-112568015D01*
X96758000Y-112570969D01*
X96758001Y-112772310D01*
X96758001Y-112795311D01*
X96737999Y-112863432D01*
X96684344Y-112909925D01*
X96622117Y-112920924D01*
X96587418Y-112918194D01*
X96582486Y-112918000D01*
X96249115Y-112918000D01*
X96233876Y-112922475D01*
X96232671Y-112923865D01*
X96231000Y-112931548D01*
X96231000Y-113407885D01*
X96235475Y-113423124D01*
X96236865Y-113424329D01*
X96244548Y-113426000D01*
X97142013Y-113426000D01*
X97167995Y-113418371D01*
X97209645Y-113391604D01*
X97245144Y-113386500D01*
X97736378Y-113386500D01*
X97758318Y-113388574D01*
X97759577Y-113388653D01*
X97767362Y-113390138D01*
X97775276Y-113389640D01*
X97775277Y-113389640D01*
X97821233Y-113386748D01*
X97829146Y-113386499D01*
X98448530Y-113386499D01*
X98451480Y-113386220D01*
X98451485Y-113386220D01*
X98473114Y-113384176D01*
X98473115Y-113384176D01*
X98480764Y-113383453D01*
X98488012Y-113380908D01*
X98488015Y-113380907D01*
X98532199Y-113365390D01*
X98611416Y-113337571D01*
X98722801Y-113255301D01*
X98805071Y-113143916D01*
X98838786Y-113047911D01*
X98848408Y-113020512D01*
X98848409Y-113020509D01*
X98850953Y-113013264D01*
X98852224Y-112999824D01*
X98852573Y-112996128D01*
X98854000Y-112981031D01*
X98853999Y-112570970D01*
X98853720Y-112568010D01*
X98851676Y-112546386D01*
X98851676Y-112546385D01*
X98850953Y-112538736D01*
X98844094Y-112519203D01*
X98817738Y-112444154D01*
X98805071Y-112408084D01*
X98781962Y-112376796D01*
X98728396Y-112304274D01*
X98722801Y-112296699D01*
X98611416Y-112214429D01*
X98500751Y-112175566D01*
X98443106Y-112134123D01*
X98417018Y-112068094D01*
X98416500Y-112056684D01*
X98416500Y-111089736D01*
X98416998Y-111079171D01*
X98418621Y-111071910D01*
X98416562Y-111006391D01*
X98416500Y-111002433D01*
X98416500Y-110975592D01*
X98416004Y-110971664D01*
X98415950Y-110970810D01*
X98415108Y-110960113D01*
X98414025Y-110925658D01*
X98414025Y-110925657D01*
X98413776Y-110917738D01*
X98411566Y-110910130D01*
X98411565Y-110910125D01*
X98408430Y-110899333D01*
X98404422Y-110879979D01*
X98403013Y-110868829D01*
X98402020Y-110860968D01*
X98397097Y-110848534D01*
X98386415Y-110821552D01*
X98382571Y-110810325D01*
X98372956Y-110777233D01*
X98372955Y-110777230D01*
X98370742Y-110769614D01*
X98360986Y-110753117D01*
X98352291Y-110735369D01*
X98349611Y-110728600D01*
X98345237Y-110717552D01*
X98320324Y-110683262D01*
X98313806Y-110673340D01*
X98296260Y-110643670D01*
X98296256Y-110643665D01*
X98292224Y-110636847D01*
X98278675Y-110623298D01*
X98265833Y-110608263D01*
X98265805Y-110608224D01*
X98254572Y-110592763D01*
X98221907Y-110565740D01*
X98213128Y-110557751D01*
X94154738Y-106499361D01*
X94120712Y-106437049D01*
X94125777Y-106366234D01*
X94128943Y-106358533D01*
X94162084Y-106284964D01*
X94186632Y-106197925D01*
X94233859Y-106030472D01*
X94233860Y-106030469D01*
X94235129Y-106025968D01*
X94242758Y-105966000D01*
X94268691Y-105762151D01*
X94268691Y-105762145D01*
X94269089Y-105759020D01*
X94271577Y-105664000D01*
X94251634Y-105395641D01*
X94192245Y-105133177D01*
X94151292Y-105027867D01*
X94096406Y-104886727D01*
X94096405Y-104886725D01*
X94094713Y-104882374D01*
X94088969Y-104872324D01*
X93963501Y-104652799D01*
X93963499Y-104652797D01*
X93961182Y-104648742D01*
X93794584Y-104437414D01*
X93636723Y-104288913D01*
X93601981Y-104256231D01*
X93601978Y-104256229D01*
X93598580Y-104253032D01*
X93477973Y-104169364D01*
X93381307Y-104102304D01*
X93381304Y-104102302D01*
X93377475Y-104099646D01*
X93373298Y-104097586D01*
X93373291Y-104097582D01*
X93140313Y-103982690D01*
X93140309Y-103982689D01*
X93136127Y-103980626D01*
X92879838Y-103898588D01*
X92875231Y-103897838D01*
X92875228Y-103897837D01*
X92618849Y-103856083D01*
X92618850Y-103856083D01*
X92614238Y-103855332D01*
X92483410Y-103853619D01*
X92349839Y-103851870D01*
X92349836Y-103851870D01*
X92345162Y-103851809D01*
X92144629Y-103879101D01*
X92083148Y-103887468D01*
X92083146Y-103887468D01*
X92078520Y-103888098D01*
X92074038Y-103889404D01*
X92074035Y-103889405D01*
X92015084Y-103906588D01*
X91820172Y-103963400D01*
X91815925Y-103965358D01*
X91815922Y-103965359D01*
X91729485Y-104005207D01*
X91575791Y-104076061D01*
X91531610Y-104105027D01*
X91354660Y-104221040D01*
X91354655Y-104221044D01*
X91350747Y-104223606D01*
X91149983Y-104402794D01*
X90977911Y-104609689D01*
X90975488Y-104613682D01*
X90843897Y-104830537D01*
X90838309Y-104839745D01*
X90836502Y-104844053D01*
X90836502Y-104844054D01*
X90759423Y-105027867D01*
X90734245Y-105087909D01*
X90733094Y-105092441D01*
X90733093Y-105092444D01*
X90726373Y-105118905D01*
X90668006Y-105348728D01*
X90641045Y-105616474D01*
X90641269Y-105621140D01*
X90641269Y-105621145D01*
X90645194Y-105702857D01*
X90653956Y-105885263D01*
X90671419Y-105973056D01*
X90701334Y-106123445D01*
X90706455Y-106149192D01*
X90708034Y-106153590D01*
X90708036Y-106153597D01*
X90767758Y-106319935D01*
X90797388Y-106402462D01*
X90924758Y-106639509D01*
X90927553Y-106643253D01*
X90927555Y-106643255D01*
X91082975Y-106851388D01*
X91082980Y-106851394D01*
X91085767Y-106855126D01*
X91089076Y-106858406D01*
X91089081Y-106858412D01*
X91258925Y-107026780D01*
X91276877Y-107044576D01*
X91280639Y-107047334D01*
X91280642Y-107047337D01*
X91458663Y-107177867D01*
X91493891Y-107203697D01*
X91498034Y-107205877D01*
X91498036Y-107205878D01*
X91727890Y-107326810D01*
X91727895Y-107326812D01*
X91732040Y-107328993D01*
X91736463Y-107330538D01*
X91736464Y-107330538D01*
X91879997Y-107380662D01*
X91986094Y-107417713D01*
X91990687Y-107418585D01*
X92245882Y-107467035D01*
X92245885Y-107467035D01*
X92250471Y-107467906D01*
X92384917Y-107473189D01*
X92514695Y-107478288D01*
X92514701Y-107478288D01*
X92519363Y-107478471D01*
X92602420Y-107469375D01*
X92782210Y-107449685D01*
X92782215Y-107449684D01*
X92786863Y-107449175D01*
X92801395Y-107445349D01*
X93042567Y-107381854D01*
X93042569Y-107381853D01*
X93047094Y-107380662D01*
X93152039Y-107335574D01*
X93222520Y-107327062D01*
X93290869Y-107362247D01*
X97158595Y-111229973D01*
X97192621Y-111292285D01*
X97195500Y-111319068D01*
X97195500Y-111474844D01*
X97175498Y-111542965D01*
X97121842Y-111589458D01*
X97051568Y-111599562D01*
X96986988Y-111570068D01*
X96950618Y-111516593D01*
X96948582Y-111510796D01*
X96930071Y-111458084D01*
X96912263Y-111433973D01*
X96853396Y-111354274D01*
X96847801Y-111346699D01*
X96833838Y-111336386D01*
X96743994Y-111270026D01*
X96743993Y-111270026D01*
X96736416Y-111264429D01*
X96646914Y-111232998D01*
X96613012Y-111221092D01*
X96613009Y-111221091D01*
X96605764Y-111218547D01*
X96598120Y-111217824D01*
X96598118Y-111217824D01*
X96589366Y-111216997D01*
X96573531Y-111215500D01*
X93768501Y-111215500D01*
X93700380Y-111195498D01*
X93692322Y-111189863D01*
X93622385Y-111136778D01*
X93622382Y-111136776D01*
X93615544Y-111131586D01*
X93607563Y-111128426D01*
X93607561Y-111128425D01*
X93534779Y-111099609D01*
X93475945Y-111076315D01*
X93467907Y-111075342D01*
X93467906Y-111075342D01*
X93436561Y-111071549D01*
X93386574Y-111065500D01*
X92826426Y-111065500D01*
X92776439Y-111071549D01*
X92745094Y-111075342D01*
X92745093Y-111075342D01*
X92737055Y-111076315D01*
X92678221Y-111099609D01*
X92605439Y-111128425D01*
X92605437Y-111128426D01*
X92597456Y-111131586D01*
X92477862Y-111222362D01*
X92476818Y-111220987D01*
X92423465Y-111250121D01*
X92396682Y-111253000D01*
X91381714Y-111253000D01*
X91313593Y-111232998D01*
X91265306Y-111175220D01*
X91255258Y-111150964D01*
X91255257Y-111150962D01*
X91252096Y-111143331D01*
X91200673Y-111076315D01*
X91167281Y-111032797D01*
X91167280Y-111032796D01*
X91162254Y-111026246D01*
X91045168Y-110936404D01*
X90908820Y-110879926D01*
X90900636Y-110878849D01*
X90900634Y-110878848D01*
X90803328Y-110866038D01*
X90803327Y-110866038D01*
X90799241Y-110865500D01*
X90312560Y-110865500D01*
X89825760Y-110865501D01*
X89821676Y-110866039D01*
X89821670Y-110866039D01*
X89724367Y-110878848D01*
X89724365Y-110878849D01*
X89716180Y-110879926D01*
X89579831Y-110936404D01*
X89559888Y-110951707D01*
X89469299Y-111021218D01*
X89462746Y-111026246D01*
X89372904Y-111143332D01*
X89316426Y-111279680D01*
X89315349Y-111287864D01*
X89315348Y-111287866D01*
X89306606Y-111354274D01*
X89302000Y-111389259D01*
X89302001Y-112162740D01*
X89302539Y-112166824D01*
X89302539Y-112166830D01*
X89308394Y-112211308D01*
X89316426Y-112272320D01*
X89372904Y-112408669D01*
X89462746Y-112525754D01*
X89579832Y-112615596D01*
X89646874Y-112643366D01*
X89686044Y-112659591D01*
X89741324Y-112704140D01*
X89763745Y-112771503D01*
X89746187Y-112840295D01*
X89694224Y-112888673D01*
X89686048Y-112892407D01*
X89579831Y-112936404D01*
X89546830Y-112961727D01*
X89544567Y-112963463D01*
X89478347Y-112989063D01*
X89467864Y-112989500D01*
X81588999Y-112989500D01*
X81520878Y-112969498D01*
X81474385Y-112915842D01*
X81462999Y-112863500D01*
X81462999Y-112403872D01*
X81459778Y-112376796D01*
X81412823Y-112271085D01*
X81330961Y-112189365D01*
X81320324Y-112184662D01*
X81320322Y-112184661D01*
X81233834Y-112146425D01*
X81233833Y-112146425D01*
X81225168Y-112142594D01*
X81198629Y-112139500D01*
X80898818Y-112139500D01*
X76679332Y-112139501D01*
X76611211Y-112119499D01*
X76590237Y-112102596D01*
X75701504Y-111213863D01*
X75688663Y-111198829D01*
X75684243Y-111192746D01*
X75680360Y-111187401D01*
X75648708Y-111158901D01*
X75629415Y-111141530D01*
X75624630Y-111136989D01*
X75610081Y-111122440D01*
X75602581Y-111116367D01*
X75594087Y-111109488D01*
X75589072Y-111105204D01*
X75543035Y-111063752D01*
X75543029Y-111063747D01*
X75538126Y-111059333D01*
X75532409Y-111056032D01*
X75525897Y-111052272D01*
X75509603Y-111041073D01*
X75503762Y-111036343D01*
X75503756Y-111036339D01*
X75498626Y-111032185D01*
X75437549Y-111001065D01*
X75431750Y-110997917D01*
X75414722Y-110988086D01*
X75372373Y-110963635D01*
X75366095Y-110961595D01*
X75358943Y-110959271D01*
X75340682Y-110951707D01*
X75333977Y-110948291D01*
X75333973Y-110948289D01*
X75328092Y-110945293D01*
X75261859Y-110927546D01*
X75255547Y-110925676D01*
X75190346Y-110904491D01*
X75176302Y-110903015D01*
X75156859Y-110899412D01*
X75143218Y-110895757D01*
X75136627Y-110895412D01*
X75136623Y-110895411D01*
X75079905Y-110892439D01*
X75012924Y-110868900D01*
X74969303Y-110812884D01*
X74960499Y-110766612D01*
X74960499Y-110603872D01*
X74957278Y-110576796D01*
X74910323Y-110471085D01*
X74891558Y-110452352D01*
X74836693Y-110397583D01*
X74833774Y-110394669D01*
X75544501Y-110394669D01*
X75544871Y-110401490D01*
X75550395Y-110452352D01*
X75554021Y-110467604D01*
X75599176Y-110588054D01*
X75607714Y-110603649D01*
X75684215Y-110705724D01*
X75696776Y-110718285D01*
X75798851Y-110794786D01*
X75814446Y-110803324D01*
X75934894Y-110848478D01*
X75950149Y-110852105D01*
X76001014Y-110857631D01*
X76007828Y-110858000D01*
X78284385Y-110858000D01*
X78299624Y-110853525D01*
X78300829Y-110852135D01*
X78302500Y-110844452D01*
X78302500Y-110839884D01*
X78902500Y-110839884D01*
X78906975Y-110855123D01*
X78908365Y-110856328D01*
X78916048Y-110857999D01*
X81197169Y-110857999D01*
X81203990Y-110857629D01*
X81254852Y-110852105D01*
X81270104Y-110848479D01*
X81390554Y-110803324D01*
X81406149Y-110794786D01*
X81508224Y-110718285D01*
X81520785Y-110705724D01*
X81597286Y-110603649D01*
X81605824Y-110588054D01*
X81650978Y-110467606D01*
X81654605Y-110452351D01*
X81660131Y-110401486D01*
X81660500Y-110394672D01*
X81660500Y-109968115D01*
X81656025Y-109952876D01*
X81654635Y-109951671D01*
X81646952Y-109950000D01*
X78920615Y-109950000D01*
X78905376Y-109954475D01*
X78904171Y-109955865D01*
X78902500Y-109963548D01*
X78902500Y-110839884D01*
X78302500Y-110839884D01*
X78302500Y-109968115D01*
X78298025Y-109952876D01*
X78296635Y-109951671D01*
X78288952Y-109950000D01*
X75562616Y-109950000D01*
X75547377Y-109954475D01*
X75546172Y-109955865D01*
X75544501Y-109963548D01*
X75544501Y-110394669D01*
X74833774Y-110394669D01*
X74828461Y-110389365D01*
X74817824Y-110384662D01*
X74817822Y-110384661D01*
X74731334Y-110346425D01*
X74731333Y-110346425D01*
X74722668Y-110342594D01*
X74696129Y-110339500D01*
X72914833Y-110339500D01*
X71103872Y-110339501D01*
X71076796Y-110342722D01*
X71068151Y-110346562D01*
X70982378Y-110384661D01*
X70971085Y-110389677D01*
X70962866Y-110397910D01*
X70962865Y-110397911D01*
X70930023Y-110430811D01*
X70889365Y-110471539D01*
X70884662Y-110482176D01*
X70884661Y-110482178D01*
X70847719Y-110565740D01*
X70842594Y-110577332D01*
X70839500Y-110603871D01*
X69757920Y-110603871D01*
X69757629Y-110598510D01*
X69752105Y-110547648D01*
X69748479Y-110532396D01*
X69703324Y-110411946D01*
X69694786Y-110396351D01*
X69618285Y-110294276D01*
X69605724Y-110281715D01*
X69503649Y-110205214D01*
X69488054Y-110196676D01*
X69367606Y-110151522D01*
X69352351Y-110147895D01*
X69301486Y-110142369D01*
X69294672Y-110142000D01*
X67818115Y-110142000D01*
X67802876Y-110146475D01*
X67801671Y-110147865D01*
X67800000Y-110155548D01*
X67800000Y-111481885D01*
X67200000Y-111481885D01*
X67200000Y-110160116D01*
X67195525Y-110144877D01*
X67194135Y-110143672D01*
X67186452Y-110142001D01*
X65705331Y-110142001D01*
X65698510Y-110142371D01*
X65647648Y-110147895D01*
X65632396Y-110151521D01*
X65511946Y-110196676D01*
X65496351Y-110205214D01*
X65394276Y-110281715D01*
X65381715Y-110294276D01*
X65305214Y-110396351D01*
X65296676Y-110411946D01*
X65251522Y-110532394D01*
X65247895Y-110547649D01*
X65242369Y-110598514D01*
X65242000Y-110605328D01*
X65242000Y-111481885D01*
X64851971Y-111481885D01*
X64851971Y-109331885D01*
X75544500Y-109331885D01*
X75548975Y-109347124D01*
X75550365Y-109348329D01*
X75558048Y-109350000D01*
X78284385Y-109350000D01*
X78299624Y-109345525D01*
X78300829Y-109344135D01*
X78302500Y-109336452D01*
X78302500Y-109331885D01*
X78902500Y-109331885D01*
X78906975Y-109347124D01*
X78908365Y-109348329D01*
X78916048Y-109350000D01*
X81642384Y-109350000D01*
X81657623Y-109345525D01*
X81658828Y-109344135D01*
X81660499Y-109336452D01*
X81660499Y-108905331D01*
X81660129Y-108898510D01*
X81654605Y-108847648D01*
X81650979Y-108832396D01*
X81605824Y-108711946D01*
X81597286Y-108696351D01*
X81520785Y-108594276D01*
X81508224Y-108581715D01*
X81406149Y-108505214D01*
X81390554Y-108496676D01*
X81270106Y-108451522D01*
X81254851Y-108447895D01*
X81203986Y-108442369D01*
X81197172Y-108442000D01*
X78920615Y-108442000D01*
X78905376Y-108446475D01*
X78904171Y-108447865D01*
X78902500Y-108455548D01*
X78902500Y-109331885D01*
X78302500Y-109331885D01*
X78302500Y-108460116D01*
X78298025Y-108444877D01*
X78296635Y-108443672D01*
X78288952Y-108442001D01*
X76007831Y-108442001D01*
X76001010Y-108442371D01*
X75950148Y-108447895D01*
X75934896Y-108451521D01*
X75814446Y-108496676D01*
X75798851Y-108505214D01*
X75696776Y-108581715D01*
X75684215Y-108594276D01*
X75607714Y-108696351D01*
X75599176Y-108711946D01*
X75554022Y-108832394D01*
X75550395Y-108847649D01*
X75544869Y-108898514D01*
X75544500Y-108905328D01*
X75544500Y-109331885D01*
X64851971Y-109331885D01*
X64851971Y-106900000D01*
X82382376Y-106900000D01*
X82400836Y-107111004D01*
X82418752Y-107177867D01*
X82452372Y-107303336D01*
X82455657Y-107315597D01*
X82457979Y-107320578D01*
X82457980Y-107320579D01*
X82531607Y-107478471D01*
X82545172Y-107507562D01*
X82666661Y-107681067D01*
X82816433Y-107830839D01*
X82989938Y-107952328D01*
X82994916Y-107954649D01*
X82994919Y-107954651D01*
X83058669Y-107984378D01*
X83181903Y-108041843D01*
X83187211Y-108043265D01*
X83187213Y-108043266D01*
X83221671Y-108052499D01*
X83386496Y-108096664D01*
X83597500Y-108115124D01*
X83808504Y-108096664D01*
X83973329Y-108052499D01*
X84007787Y-108043266D01*
X84007789Y-108043265D01*
X84013097Y-108041843D01*
X84136331Y-107984378D01*
X84200081Y-107954651D01*
X84200084Y-107954649D01*
X84205062Y-107952328D01*
X84378567Y-107830839D01*
X84528339Y-107681067D01*
X84649828Y-107507562D01*
X84663394Y-107478471D01*
X84737020Y-107320579D01*
X84737021Y-107320578D01*
X84739343Y-107315597D01*
X84742629Y-107303336D01*
X84776248Y-107177867D01*
X84794164Y-107111004D01*
X84812624Y-106900000D01*
X84794164Y-106688996D01*
X84747611Y-106515260D01*
X84740766Y-106489713D01*
X84740765Y-106489711D01*
X84739343Y-106484403D01*
X84735063Y-106475224D01*
X84652151Y-106297419D01*
X84652149Y-106297416D01*
X84649828Y-106292438D01*
X84528339Y-106118933D01*
X84378567Y-105969161D01*
X84371667Y-105964329D01*
X84316855Y-105925950D01*
X84205062Y-105847672D01*
X84200084Y-105845351D01*
X84200081Y-105845349D01*
X84018079Y-105760480D01*
X84018078Y-105760479D01*
X84013097Y-105758157D01*
X84007789Y-105756735D01*
X84007787Y-105756734D01*
X83945309Y-105739993D01*
X83808504Y-105703336D01*
X83597500Y-105684876D01*
X83386496Y-105703336D01*
X83249691Y-105739993D01*
X83187213Y-105756734D01*
X83187211Y-105756735D01*
X83181903Y-105758157D01*
X83176922Y-105760479D01*
X83176921Y-105760480D01*
X82994919Y-105845349D01*
X82994916Y-105845351D01*
X82989938Y-105847672D01*
X82878145Y-105925950D01*
X82823334Y-105964329D01*
X82816433Y-105969161D01*
X82666661Y-106118933D01*
X82545172Y-106292438D01*
X82542851Y-106297416D01*
X82542849Y-106297419D01*
X82459937Y-106475224D01*
X82455657Y-106484403D01*
X82454235Y-106489711D01*
X82454234Y-106489713D01*
X82447389Y-106515260D01*
X82400836Y-106688996D01*
X82382376Y-106900000D01*
X64851971Y-106900000D01*
X64851971Y-102500000D01*
X82382376Y-102500000D01*
X82400836Y-102711004D01*
X82436523Y-102844189D01*
X82449090Y-102891087D01*
X82455657Y-102915597D01*
X82457979Y-102920578D01*
X82457980Y-102920579D01*
X82535798Y-103087459D01*
X82545172Y-103107562D01*
X82666661Y-103281067D01*
X82816433Y-103430839D01*
X82989938Y-103552328D01*
X82994916Y-103554649D01*
X82994919Y-103554651D01*
X83176921Y-103639520D01*
X83181903Y-103641843D01*
X83187211Y-103643265D01*
X83187213Y-103643266D01*
X83225769Y-103653597D01*
X83386496Y-103696664D01*
X83597500Y-103715124D01*
X83808504Y-103696664D01*
X83969231Y-103653597D01*
X84007787Y-103643266D01*
X84007789Y-103643265D01*
X84013097Y-103641843D01*
X84018079Y-103639520D01*
X84200081Y-103554651D01*
X84200084Y-103554649D01*
X84205062Y-103552328D01*
X84378567Y-103430839D01*
X84528339Y-103281067D01*
X84643588Y-103116474D01*
X100641045Y-103116474D01*
X100641269Y-103121140D01*
X100641269Y-103121145D01*
X100645157Y-103202089D01*
X100653956Y-103385263D01*
X100661775Y-103424572D01*
X100687650Y-103554651D01*
X100706455Y-103649192D01*
X100708034Y-103653590D01*
X100708036Y-103653597D01*
X100761906Y-103803636D01*
X100797388Y-103902462D01*
X100924758Y-104139509D01*
X100927553Y-104143253D01*
X100927555Y-104143255D01*
X101082975Y-104351388D01*
X101082980Y-104351394D01*
X101085767Y-104355126D01*
X101089076Y-104358406D01*
X101089081Y-104358412D01*
X101248027Y-104515977D01*
X101276877Y-104544576D01*
X101280639Y-104547334D01*
X101280642Y-104547337D01*
X101432460Y-104658654D01*
X101493891Y-104703697D01*
X101498034Y-104705877D01*
X101498036Y-104705878D01*
X101727890Y-104826810D01*
X101727895Y-104826812D01*
X101732040Y-104828993D01*
X101736460Y-104830536D01*
X101736461Y-104830537D01*
X101761042Y-104839121D01*
X101818760Y-104880464D01*
X101844962Y-104946449D01*
X101845500Y-104958076D01*
X101845500Y-111016264D01*
X101845002Y-111026829D01*
X101843379Y-111034090D01*
X101843628Y-111042013D01*
X101845438Y-111099609D01*
X101845500Y-111103567D01*
X101845500Y-111130408D01*
X101845996Y-111134336D01*
X101846050Y-111135190D01*
X101846892Y-111145887D01*
X101847585Y-111167937D01*
X101848224Y-111188262D01*
X101850434Y-111195870D01*
X101850435Y-111195875D01*
X101853570Y-111206667D01*
X101857578Y-111226021D01*
X101859980Y-111245032D01*
X101862897Y-111252400D01*
X101862898Y-111252403D01*
X101875585Y-111284448D01*
X101879429Y-111295675D01*
X101889046Y-111328774D01*
X101891258Y-111336386D01*
X101895290Y-111343205D01*
X101895291Y-111343206D01*
X101901011Y-111352878D01*
X101909708Y-111370630D01*
X101916763Y-111388448D01*
X101921420Y-111394858D01*
X101921424Y-111394865D01*
X101941680Y-111422744D01*
X101948198Y-111432667D01*
X101969776Y-111469154D01*
X101983327Y-111482705D01*
X101996168Y-111497738D01*
X102007428Y-111513237D01*
X102013536Y-111518290D01*
X102013537Y-111518291D01*
X102040088Y-111540256D01*
X102048867Y-111548245D01*
X103182254Y-112681631D01*
X103189376Y-112689457D01*
X103193363Y-112695740D01*
X103199141Y-112701166D01*
X103199142Y-112701167D01*
X103241165Y-112740629D01*
X103244007Y-112743384D01*
X103262970Y-112762347D01*
X103266102Y-112764776D01*
X103266723Y-112765324D01*
X103274901Y-112772309D01*
X103305805Y-112801330D01*
X103312744Y-112805145D01*
X103312750Y-112805149D01*
X103322592Y-112810559D01*
X103339121Y-112821416D01*
X103354260Y-112833160D01*
X103361532Y-112836307D01*
X103361534Y-112836308D01*
X103393178Y-112850002D01*
X103403838Y-112855224D01*
X103440974Y-112875640D01*
X103448656Y-112877612D01*
X103448658Y-112877613D01*
X103459529Y-112880404D01*
X103478230Y-112886806D01*
X103495822Y-112894419D01*
X103503651Y-112895659D01*
X103537689Y-112901050D01*
X103549312Y-112903457D01*
X103571155Y-112909065D01*
X103590376Y-112914000D01*
X103609538Y-112914000D01*
X103629248Y-112915551D01*
X103640341Y-112917308D01*
X103640342Y-112917308D01*
X103648171Y-112918548D01*
X103656063Y-112917802D01*
X103661290Y-112917308D01*
X103690373Y-112914559D01*
X103702230Y-112914000D01*
X105101848Y-112914000D01*
X105169969Y-112934002D01*
X105201811Y-112963297D01*
X105256216Y-113034200D01*
X105256220Y-113034204D01*
X105261246Y-113040754D01*
X105378332Y-113130596D01*
X105514680Y-113187074D01*
X105522864Y-113188151D01*
X105522866Y-113188152D01*
X105620172Y-113200962D01*
X105624259Y-113201500D01*
X106135937Y-113201500D01*
X106647740Y-113201499D01*
X106651824Y-113200961D01*
X106651830Y-113200961D01*
X106749133Y-113188152D01*
X106749135Y-113188151D01*
X106757320Y-113187074D01*
X106893669Y-113130596D01*
X106995639Y-113052352D01*
X107004203Y-113045781D01*
X107004204Y-113045780D01*
X107010754Y-113040754D01*
X107070188Y-112963297D01*
X107127526Y-112921429D01*
X107170151Y-112914000D01*
X107330764Y-112914000D01*
X107341329Y-112914498D01*
X107348590Y-112916121D01*
X107356513Y-112915872D01*
X107414109Y-112914062D01*
X107418067Y-112914000D01*
X107444908Y-112914000D01*
X107448836Y-112913504D01*
X107449690Y-112913450D01*
X107460387Y-112912608D01*
X107494842Y-112911525D01*
X107494843Y-112911525D01*
X107502762Y-112911276D01*
X107510370Y-112909066D01*
X107510375Y-112909065D01*
X107521167Y-112905930D01*
X107540521Y-112901922D01*
X107544198Y-112901457D01*
X107559532Y-112899520D01*
X107566900Y-112896603D01*
X107566903Y-112896602D01*
X107598948Y-112883915D01*
X107610175Y-112880071D01*
X107643274Y-112870454D01*
X107643277Y-112870453D01*
X107650886Y-112868242D01*
X107667378Y-112858489D01*
X107685130Y-112849792D01*
X107695577Y-112845656D01*
X107695580Y-112845654D01*
X107702948Y-112842737D01*
X107709358Y-112838080D01*
X107709365Y-112838076D01*
X107737244Y-112817820D01*
X107747167Y-112811302D01*
X107776828Y-112793761D01*
X107776829Y-112793760D01*
X107783654Y-112789724D01*
X107797205Y-112776173D01*
X107812239Y-112763332D01*
X107821323Y-112756732D01*
X107827737Y-112752072D01*
X107834925Y-112743384D01*
X107854751Y-112719418D01*
X107862739Y-112710639D01*
X108269104Y-112304274D01*
X108684972Y-111888405D01*
X108747285Y-111854380D01*
X108774068Y-111851500D01*
X110626245Y-111851499D01*
X110762128Y-111851499D01*
X110789204Y-111848278D01*
X110853326Y-111819796D01*
X110884280Y-111806047D01*
X110894915Y-111801323D01*
X110976635Y-111719461D01*
X110981338Y-111708824D01*
X110981339Y-111708822D01*
X111019575Y-111622334D01*
X111019575Y-111622333D01*
X111023406Y-111613668D01*
X111026500Y-111587129D01*
X111026499Y-111056206D01*
X111046501Y-110988086D01*
X111066419Y-110966684D01*
X111065372Y-110965637D01*
X111084288Y-110946721D01*
X111160620Y-110844871D01*
X111825500Y-110844871D01*
X111825501Y-111587128D01*
X111828722Y-111614204D01*
X111875677Y-111719915D01*
X111957539Y-111801635D01*
X111968176Y-111806338D01*
X111968178Y-111806339D01*
X112054666Y-111844575D01*
X112054667Y-111844575D01*
X112063332Y-111848406D01*
X112089871Y-111851500D01*
X113127361Y-111851500D01*
X114182128Y-111851499D01*
X114194588Y-111850017D01*
X114199816Y-111849395D01*
X114199817Y-111849395D01*
X114209204Y-111848278D01*
X114233812Y-111837348D01*
X114284958Y-111826500D01*
X114813008Y-111826500D01*
X114881129Y-111846502D01*
X114897321Y-111858866D01*
X114904874Y-111865667D01*
X114910595Y-111868970D01*
X115005797Y-111923935D01*
X115070627Y-111961365D01*
X115252654Y-112020509D01*
X115259215Y-112021199D01*
X115259217Y-112021199D01*
X115300987Y-112025589D01*
X115395285Y-112035500D01*
X116745428Y-112035500D01*
X116765139Y-112037051D01*
X116772569Y-112038228D01*
X116772571Y-112038228D01*
X116779086Y-112039260D01*
X116785673Y-112038915D01*
X116785678Y-112038915D01*
X116847529Y-112035673D01*
X116854123Y-112035500D01*
X116874715Y-112035500D01*
X116880864Y-112034854D01*
X116895202Y-112033347D01*
X116901777Y-112032830D01*
X116963624Y-112029589D01*
X116963628Y-112029588D01*
X116970218Y-112029243D01*
X116983859Y-112025588D01*
X117003302Y-112021985D01*
X117010781Y-112021199D01*
X117017346Y-112020509D01*
X117082547Y-111999324D01*
X117088859Y-111997454D01*
X117155092Y-111979707D01*
X117160973Y-111976711D01*
X117160977Y-111976709D01*
X117167682Y-111973293D01*
X117185943Y-111965729D01*
X117193095Y-111963405D01*
X117193096Y-111963404D01*
X117199373Y-111961365D01*
X117258750Y-111927083D01*
X117264549Y-111923935D01*
X117319742Y-111895813D01*
X117325626Y-111892815D01*
X117330756Y-111888661D01*
X117330762Y-111888657D01*
X117336603Y-111883927D01*
X117352897Y-111872728D01*
X117359409Y-111868968D01*
X117359410Y-111868967D01*
X117365126Y-111865667D01*
X117370029Y-111861253D01*
X117370035Y-111861248D01*
X117416072Y-111819796D01*
X117421087Y-111815512D01*
X117434588Y-111804579D01*
X117500115Y-111777253D01*
X117513883Y-111776499D01*
X117797740Y-111776499D01*
X117801824Y-111775961D01*
X117801830Y-111775961D01*
X117899133Y-111763152D01*
X117899135Y-111763151D01*
X117907320Y-111762074D01*
X117970049Y-111736091D01*
X118018266Y-111726500D01*
X119302428Y-111726500D01*
X119322139Y-111728051D01*
X119329569Y-111729228D01*
X119329571Y-111729228D01*
X119336086Y-111730260D01*
X119342673Y-111729915D01*
X119342678Y-111729915D01*
X119404529Y-111726673D01*
X119411123Y-111726500D01*
X119431715Y-111726500D01*
X119437864Y-111725854D01*
X119452202Y-111724347D01*
X119458777Y-111723830D01*
X119520624Y-111720589D01*
X119520628Y-111720588D01*
X119527218Y-111720243D01*
X119540859Y-111716588D01*
X119560302Y-111712985D01*
X119567781Y-111712199D01*
X119574346Y-111711509D01*
X119639547Y-111690324D01*
X119645859Y-111688454D01*
X119712092Y-111670707D01*
X119717973Y-111667711D01*
X119717977Y-111667709D01*
X119724682Y-111664293D01*
X119742943Y-111656729D01*
X119750095Y-111654405D01*
X119750096Y-111654404D01*
X119756373Y-111652365D01*
X119815750Y-111618083D01*
X119821549Y-111614935D01*
X119876742Y-111586813D01*
X119882626Y-111583815D01*
X119887756Y-111579661D01*
X119887762Y-111579657D01*
X119893603Y-111574927D01*
X119909897Y-111563728D01*
X119916409Y-111559968D01*
X119916410Y-111559967D01*
X119922126Y-111556667D01*
X119927029Y-111552253D01*
X119927035Y-111552248D01*
X119973072Y-111510796D01*
X119978087Y-111506512D01*
X119991517Y-111495636D01*
X119994081Y-111493560D01*
X120008630Y-111479011D01*
X120013415Y-111474470D01*
X120059449Y-111433021D01*
X120059450Y-111433020D01*
X120064360Y-111428599D01*
X120072663Y-111417171D01*
X120085504Y-111402137D01*
X121744137Y-109743504D01*
X121759171Y-109730663D01*
X121760672Y-109729572D01*
X121770599Y-109722360D01*
X121793305Y-109697143D01*
X121816470Y-109671415D01*
X121821011Y-109666630D01*
X121835560Y-109652081D01*
X121848512Y-109636087D01*
X121852789Y-109631081D01*
X121894243Y-109585040D01*
X121894245Y-109585037D01*
X121898667Y-109580126D01*
X121902080Y-109574216D01*
X121905725Y-109567901D01*
X121916926Y-109551603D01*
X121921662Y-109545755D01*
X121921663Y-109545753D01*
X121925816Y-109540625D01*
X121928815Y-109534740D01*
X121956948Y-109479527D01*
X121960095Y-109473731D01*
X121991061Y-109420096D01*
X121991062Y-109420095D01*
X121994365Y-109414373D01*
X121996406Y-109408092D01*
X121996408Y-109408087D01*
X121998729Y-109400943D01*
X122006293Y-109382682D01*
X122009709Y-109375977D01*
X122009711Y-109375973D01*
X122012707Y-109370092D01*
X122030454Y-109303859D01*
X122032326Y-109297541D01*
X122036413Y-109284962D01*
X122053509Y-109232346D01*
X122054985Y-109218302D01*
X122058589Y-109198853D01*
X122059599Y-109195087D01*
X122062243Y-109185218D01*
X122064031Y-109151116D01*
X122065830Y-109116777D01*
X122066347Y-109110202D01*
X122068156Y-109092987D01*
X122068500Y-109089715D01*
X122068500Y-109069123D01*
X122068673Y-109062529D01*
X122071915Y-109000678D01*
X122071915Y-109000673D01*
X122072260Y-108994086D01*
X122070051Y-108980139D01*
X122068500Y-108960428D01*
X122068500Y-108500000D01*
X125284876Y-108500000D01*
X125303336Y-108711004D01*
X125333393Y-108823178D01*
X125353580Y-108898514D01*
X125358157Y-108915597D01*
X125360479Y-108920578D01*
X125360480Y-108920579D01*
X125441228Y-109093742D01*
X125447672Y-109107562D01*
X125569161Y-109281067D01*
X125718933Y-109430839D01*
X125892438Y-109552328D01*
X125897416Y-109554649D01*
X125897419Y-109554651D01*
X126079421Y-109639520D01*
X126084403Y-109641843D01*
X126089711Y-109643265D01*
X126089713Y-109643266D01*
X126113057Y-109649521D01*
X126288996Y-109696664D01*
X126500000Y-109715124D01*
X126711004Y-109696664D01*
X126886943Y-109649521D01*
X126910287Y-109643266D01*
X126910289Y-109643265D01*
X126915597Y-109641843D01*
X126920579Y-109639520D01*
X127102581Y-109554651D01*
X127102584Y-109554649D01*
X127107562Y-109552328D01*
X127281067Y-109430839D01*
X127430839Y-109281067D01*
X127552328Y-109107562D01*
X127558773Y-109093742D01*
X127639520Y-108920579D01*
X127639521Y-108920578D01*
X127641843Y-108915597D01*
X127646421Y-108898514D01*
X127666607Y-108823178D01*
X127696664Y-108711004D01*
X127715124Y-108500000D01*
X127696664Y-108288996D01*
X127645257Y-108097143D01*
X127643266Y-108089713D01*
X127643265Y-108089711D01*
X127641843Y-108084403D01*
X127639520Y-108079421D01*
X127554651Y-107897419D01*
X127554649Y-107897416D01*
X127552328Y-107892438D01*
X127430839Y-107718933D01*
X127281067Y-107569161D01*
X127107562Y-107447672D01*
X127102584Y-107445351D01*
X127102581Y-107445349D01*
X126920579Y-107360480D01*
X126920578Y-107360479D01*
X126915597Y-107358157D01*
X126910289Y-107356735D01*
X126910287Y-107356734D01*
X126806756Y-107328993D01*
X126711004Y-107303336D01*
X126500000Y-107284876D01*
X126288996Y-107303336D01*
X126193244Y-107328993D01*
X126089713Y-107356734D01*
X126089711Y-107356735D01*
X126084403Y-107358157D01*
X126079422Y-107360479D01*
X126079421Y-107360480D01*
X125897419Y-107445349D01*
X125897416Y-107445351D01*
X125892438Y-107447672D01*
X125718933Y-107569161D01*
X125569161Y-107718933D01*
X125447672Y-107892438D01*
X125445351Y-107897416D01*
X125445349Y-107897419D01*
X125360480Y-108079421D01*
X125358157Y-108084403D01*
X125356735Y-108089711D01*
X125356734Y-108089713D01*
X125354743Y-108097143D01*
X125303336Y-108288996D01*
X125284876Y-108500000D01*
X122068500Y-108500000D01*
X122068500Y-105885500D01*
X122088502Y-105817379D01*
X122142158Y-105770886D01*
X122194500Y-105759500D01*
X123219669Y-105759500D01*
X123287790Y-105779502D01*
X123308764Y-105796405D01*
X123898496Y-106386137D01*
X123911337Y-106401171D01*
X123919640Y-106412599D01*
X123924550Y-106417020D01*
X123924551Y-106417021D01*
X123970585Y-106458470D01*
X123975370Y-106463011D01*
X123989919Y-106477560D01*
X123992483Y-106479636D01*
X124005913Y-106490512D01*
X124010928Y-106494796D01*
X124056965Y-106536248D01*
X124056971Y-106536253D01*
X124061874Y-106540667D01*
X124067590Y-106543967D01*
X124067591Y-106543968D01*
X124074103Y-106547728D01*
X124090397Y-106558927D01*
X124096238Y-106563657D01*
X124096244Y-106563661D01*
X124101374Y-106567815D01*
X124107258Y-106570813D01*
X124162451Y-106598935D01*
X124168250Y-106602083D01*
X124227627Y-106636365D01*
X124233904Y-106638404D01*
X124233905Y-106638405D01*
X124241057Y-106640729D01*
X124259318Y-106648293D01*
X124266023Y-106651709D01*
X124266027Y-106651711D01*
X124271908Y-106654707D01*
X124338141Y-106672454D01*
X124344453Y-106674324D01*
X124409654Y-106695509D01*
X124416219Y-106696199D01*
X124423698Y-106696985D01*
X124443141Y-106700588D01*
X124456782Y-106704243D01*
X124463372Y-106704588D01*
X124463376Y-106704589D01*
X124525223Y-106707830D01*
X124531798Y-106708347D01*
X124546136Y-106709854D01*
X124552285Y-106710500D01*
X124572877Y-106710500D01*
X124579471Y-106710673D01*
X124641322Y-106713915D01*
X124641327Y-106713915D01*
X124647914Y-106714260D01*
X124654429Y-106713228D01*
X124654431Y-106713228D01*
X124661861Y-106712051D01*
X124681572Y-106710500D01*
X128739624Y-106710500D01*
X128790572Y-106721260D01*
X128863666Y-106753575D01*
X128863667Y-106753575D01*
X128872332Y-106757406D01*
X128898871Y-106760500D01*
X131473561Y-106760500D01*
X134091128Y-106760499D01*
X134118204Y-106757278D01*
X134223915Y-106710323D01*
X134238704Y-106695509D01*
X134277729Y-106656415D01*
X134305635Y-106628461D01*
X134310338Y-106617824D01*
X134310339Y-106617822D01*
X134348575Y-106531334D01*
X134348575Y-106531333D01*
X134352406Y-106522668D01*
X134355500Y-106496129D01*
X134355499Y-105003872D01*
X134352278Y-104976796D01*
X134312213Y-104886597D01*
X134310047Y-104881720D01*
X134305323Y-104871085D01*
X134273304Y-104839121D01*
X134231693Y-104797583D01*
X134223461Y-104789365D01*
X134212824Y-104784662D01*
X134212822Y-104784661D01*
X134126334Y-104746425D01*
X134126333Y-104746425D01*
X134117668Y-104742594D01*
X134091129Y-104739500D01*
X131516439Y-104739500D01*
X128898872Y-104739501D01*
X128871796Y-104742722D01*
X128863151Y-104746562D01*
X128777378Y-104784661D01*
X128766085Y-104789677D01*
X128757866Y-104797910D01*
X128757865Y-104797911D01*
X128703353Y-104852518D01*
X128641070Y-104886597D01*
X128614180Y-104889500D01*
X125029331Y-104889500D01*
X124961210Y-104869498D01*
X124940236Y-104852595D01*
X124350504Y-104262863D01*
X124337663Y-104247829D01*
X124333243Y-104241746D01*
X124329360Y-104236401D01*
X124318612Y-104226723D01*
X124278415Y-104190530D01*
X124273630Y-104185989D01*
X124259081Y-104171440D01*
X124251581Y-104165367D01*
X124243087Y-104158488D01*
X124238072Y-104154204D01*
X124192035Y-104112752D01*
X124192029Y-104112747D01*
X124187126Y-104108333D01*
X124181415Y-104105035D01*
X124181403Y-104105027D01*
X124181399Y-104105025D01*
X124181397Y-104105023D01*
X124176065Y-104101149D01*
X124176774Y-104100173D01*
X124132410Y-104053638D01*
X124118981Y-103983923D01*
X124145374Y-103918015D01*
X124173348Y-103892466D01*
X124174626Y-103891815D01*
X124179754Y-103887663D01*
X124179761Y-103887658D01*
X124185603Y-103882927D01*
X124201897Y-103871728D01*
X124208409Y-103867968D01*
X124208410Y-103867967D01*
X124214126Y-103864667D01*
X124219029Y-103860253D01*
X124219035Y-103860248D01*
X124265072Y-103818796D01*
X124270087Y-103814512D01*
X124283517Y-103803636D01*
X124286081Y-103801560D01*
X124300630Y-103787011D01*
X124305415Y-103782470D01*
X124351449Y-103741021D01*
X124351450Y-103741020D01*
X124356360Y-103736599D01*
X124360244Y-103731254D01*
X124364660Y-103725175D01*
X124377501Y-103710140D01*
X124890238Y-103197404D01*
X124952550Y-103163379D01*
X124979333Y-103160500D01*
X128664190Y-103160500D01*
X128732311Y-103180502D01*
X128753208Y-103197328D01*
X128758304Y-103202415D01*
X128758306Y-103202417D01*
X128766539Y-103210635D01*
X128777176Y-103215338D01*
X128777178Y-103215339D01*
X128863666Y-103253575D01*
X128863667Y-103253575D01*
X128872332Y-103257406D01*
X128898871Y-103260500D01*
X131473561Y-103260500D01*
X134091128Y-103260499D01*
X134118204Y-103257278D01*
X134206431Y-103218089D01*
X134213280Y-103215047D01*
X134223915Y-103210323D01*
X134236888Y-103197328D01*
X134297417Y-103136693D01*
X134305635Y-103128461D01*
X134310338Y-103117824D01*
X134310339Y-103117822D01*
X134348575Y-103031334D01*
X134348575Y-103031333D01*
X134352406Y-103022668D01*
X134355500Y-102996129D01*
X134355499Y-101503872D01*
X134352278Y-101476796D01*
X134317539Y-101398588D01*
X134310047Y-101381720D01*
X134305323Y-101371085D01*
X134283612Y-101349411D01*
X134236638Y-101302519D01*
X134223461Y-101289365D01*
X134212824Y-101284662D01*
X134212822Y-101284661D01*
X134126334Y-101246425D01*
X134126333Y-101246425D01*
X134117668Y-101242594D01*
X134091129Y-101239500D01*
X131516439Y-101239500D01*
X128898872Y-101239501D01*
X128871796Y-101242722D01*
X128766085Y-101289677D01*
X128753264Y-101302520D01*
X128690983Y-101336597D01*
X128664094Y-101339500D01*
X124631573Y-101339500D01*
X124611862Y-101337949D01*
X124604432Y-101336772D01*
X124604430Y-101336772D01*
X124597915Y-101335740D01*
X124591328Y-101336085D01*
X124591323Y-101336085D01*
X124529472Y-101339327D01*
X124522878Y-101339500D01*
X124502285Y-101339500D01*
X124496136Y-101340146D01*
X124481798Y-101341653D01*
X124475223Y-101342170D01*
X124413376Y-101345411D01*
X124413372Y-101345412D01*
X124406782Y-101345757D01*
X124393141Y-101349412D01*
X124373698Y-101353015D01*
X124359654Y-101354491D01*
X124294453Y-101375676D01*
X124288141Y-101377546D01*
X124252541Y-101387085D01*
X124235579Y-101391630D01*
X124221908Y-101395293D01*
X124216027Y-101398289D01*
X124216023Y-101398291D01*
X124209318Y-101401707D01*
X124191057Y-101409271D01*
X124183913Y-101411592D01*
X124183908Y-101411594D01*
X124177627Y-101413635D01*
X124171905Y-101416938D01*
X124171904Y-101416939D01*
X124118269Y-101447905D01*
X124112473Y-101451052D01*
X124057260Y-101479185D01*
X124057257Y-101479187D01*
X124051375Y-101482184D01*
X124046247Y-101486337D01*
X124046245Y-101486338D01*
X124040397Y-101491074D01*
X124024099Y-101502275D01*
X124011874Y-101509333D01*
X124006965Y-101513753D01*
X124006961Y-101513756D01*
X123960940Y-101555194D01*
X123955923Y-101559479D01*
X123939919Y-101572439D01*
X123925361Y-101586997D01*
X123920576Y-101591538D01*
X123869640Y-101637401D01*
X123865760Y-101642742D01*
X123865755Y-101642747D01*
X123861341Y-101648823D01*
X123848502Y-101663856D01*
X123578145Y-101934214D01*
X123335764Y-102176595D01*
X123273451Y-102210620D01*
X123246668Y-102213500D01*
X119753331Y-102213500D01*
X119685210Y-102193498D01*
X119664236Y-102176595D01*
X118129235Y-100641594D01*
X118095209Y-100579282D01*
X118100274Y-100508467D01*
X118142821Y-100451631D01*
X118209341Y-100426820D01*
X118218330Y-100426499D01*
X118563128Y-100426499D01*
X118590204Y-100423278D01*
X118652424Y-100395641D01*
X118685280Y-100381047D01*
X118695915Y-100376323D01*
X118777635Y-100294461D01*
X118782338Y-100283824D01*
X118782339Y-100283822D01*
X118820575Y-100197334D01*
X118820575Y-100197333D01*
X118824406Y-100188668D01*
X118827500Y-100162129D01*
X118827500Y-99500000D01*
X125284876Y-99500000D01*
X125303336Y-99711004D01*
X125358157Y-99915597D01*
X125360479Y-99920578D01*
X125360480Y-99920579D01*
X125438508Y-100087909D01*
X125447672Y-100107562D01*
X125569161Y-100281067D01*
X125718933Y-100430839D01*
X125892438Y-100552328D01*
X125897416Y-100554649D01*
X125897419Y-100554651D01*
X126029999Y-100616474D01*
X126084403Y-100641843D01*
X126089711Y-100643265D01*
X126089713Y-100643266D01*
X126152191Y-100660007D01*
X126288996Y-100696664D01*
X126500000Y-100715124D01*
X126711004Y-100696664D01*
X126847809Y-100660007D01*
X126910287Y-100643266D01*
X126910289Y-100643265D01*
X126915597Y-100641843D01*
X126970001Y-100616474D01*
X127102581Y-100554651D01*
X127102584Y-100554649D01*
X127107562Y-100552328D01*
X127281067Y-100430839D01*
X127430839Y-100281067D01*
X127552328Y-100107562D01*
X127561493Y-100087909D01*
X127639520Y-99920579D01*
X127639521Y-99920578D01*
X127641843Y-99915597D01*
X127696664Y-99711004D01*
X127715124Y-99500000D01*
X127696664Y-99288996D01*
X127641843Y-99084403D01*
X127637953Y-99076061D01*
X127554651Y-98897419D01*
X127554649Y-98897416D01*
X127552328Y-98892438D01*
X127430839Y-98718933D01*
X127281067Y-98569161D01*
X127107562Y-98447672D01*
X127102584Y-98445351D01*
X127102581Y-98445349D01*
X126920579Y-98360480D01*
X126920578Y-98360479D01*
X126915597Y-98358157D01*
X126910289Y-98356735D01*
X126910287Y-98356734D01*
X126847809Y-98339993D01*
X126711004Y-98303336D01*
X126500000Y-98284876D01*
X126288996Y-98303336D01*
X126152191Y-98339993D01*
X126089713Y-98356734D01*
X126089711Y-98356735D01*
X126084403Y-98358157D01*
X126079422Y-98360479D01*
X126079421Y-98360480D01*
X125897419Y-98445349D01*
X125897416Y-98445351D01*
X125892438Y-98447672D01*
X125718933Y-98569161D01*
X125569161Y-98718933D01*
X125447672Y-98892438D01*
X125445351Y-98897416D01*
X125445349Y-98897419D01*
X125362047Y-99076061D01*
X125358157Y-99084403D01*
X125303336Y-99288996D01*
X125284876Y-99500000D01*
X118827500Y-99500000D01*
X118827499Y-92369872D01*
X118824278Y-92342796D01*
X118777323Y-92237085D01*
X118761970Y-92221758D01*
X118736189Y-92196023D01*
X118695461Y-92155365D01*
X118684824Y-92150662D01*
X118684822Y-92150661D01*
X118598334Y-92112425D01*
X118598333Y-92112425D01*
X118589668Y-92108594D01*
X118563129Y-92105500D01*
X116980181Y-92105500D01*
X115370872Y-92105501D01*
X115343796Y-92108722D01*
X115335151Y-92112562D01*
X115249378Y-92150661D01*
X115238085Y-92155677D01*
X115229866Y-92163910D01*
X115229865Y-92163911D01*
X115209329Y-92184483D01*
X115156365Y-92237539D01*
X115151662Y-92248176D01*
X115151661Y-92248178D01*
X115113653Y-92334151D01*
X115109594Y-92343332D01*
X115106500Y-92369871D01*
X115106501Y-100162128D01*
X115109722Y-100189204D01*
X115156677Y-100294915D01*
X115238539Y-100376635D01*
X115249176Y-100381338D01*
X115249178Y-100381339D01*
X115335666Y-100419575D01*
X115335667Y-100419575D01*
X115344332Y-100423406D01*
X115370871Y-100426500D01*
X115930500Y-100426500D01*
X115998621Y-100446502D01*
X116045114Y-100500158D01*
X116056500Y-100552500D01*
X116056500Y-100685428D01*
X116054949Y-100705139D01*
X116052740Y-100719086D01*
X116053085Y-100725673D01*
X116053085Y-100725678D01*
X116056327Y-100787529D01*
X116056500Y-100794123D01*
X116056500Y-100814715D01*
X116056844Y-100817987D01*
X116058653Y-100835202D01*
X116059170Y-100841777D01*
X116062396Y-100903324D01*
X116062757Y-100910218D01*
X116064465Y-100916591D01*
X116066411Y-100923853D01*
X116070015Y-100943302D01*
X116071491Y-100957346D01*
X116092674Y-101022541D01*
X116094546Y-101028859D01*
X116112293Y-101095092D01*
X116115289Y-101100973D01*
X116115291Y-101100977D01*
X116118707Y-101107682D01*
X116126271Y-101125943D01*
X116130635Y-101139373D01*
X116155156Y-101181843D01*
X116164917Y-101198750D01*
X116168065Y-101204549D01*
X116199185Y-101265626D01*
X116203339Y-101270756D01*
X116203343Y-101270762D01*
X116208073Y-101276603D01*
X116219272Y-101292897D01*
X116223032Y-101299409D01*
X116226333Y-101305126D01*
X116230747Y-101310029D01*
X116230752Y-101310035D01*
X116272204Y-101356072D01*
X116276488Y-101361087D01*
X116289440Y-101377081D01*
X116303989Y-101391630D01*
X116308530Y-101396415D01*
X116354401Y-101447360D01*
X116359746Y-101451243D01*
X116365829Y-101455663D01*
X116380863Y-101468504D01*
X118622496Y-103710137D01*
X118635337Y-103725171D01*
X118643640Y-103736599D01*
X118648550Y-103741020D01*
X118648551Y-103741021D01*
X118694585Y-103782470D01*
X118699370Y-103787011D01*
X118713919Y-103801560D01*
X118716483Y-103803636D01*
X118729913Y-103814512D01*
X118734928Y-103818796D01*
X118780965Y-103860248D01*
X118780971Y-103860253D01*
X118785874Y-103864667D01*
X118791590Y-103867967D01*
X118791591Y-103867968D01*
X118798103Y-103871728D01*
X118814397Y-103882927D01*
X118820238Y-103887657D01*
X118820240Y-103887658D01*
X118825374Y-103891815D01*
X118831258Y-103894813D01*
X118886451Y-103922935D01*
X118892250Y-103926083D01*
X118951627Y-103960365D01*
X118957904Y-103962404D01*
X118957905Y-103962405D01*
X118965057Y-103964729D01*
X118983318Y-103972293D01*
X118990023Y-103975709D01*
X118990027Y-103975711D01*
X118995908Y-103978707D01*
X119002281Y-103980415D01*
X119002282Y-103980415D01*
X119010773Y-103982690D01*
X119062141Y-103996454D01*
X119068453Y-103998324D01*
X119133654Y-104019509D01*
X119140219Y-104020199D01*
X119147698Y-104020985D01*
X119167141Y-104024588D01*
X119180782Y-104028243D01*
X119187372Y-104028588D01*
X119187376Y-104028589D01*
X119249223Y-104031830D01*
X119255798Y-104032347D01*
X119270136Y-104033854D01*
X119276285Y-104034500D01*
X119296877Y-104034500D01*
X119303471Y-104034673D01*
X119365322Y-104037915D01*
X119365327Y-104037915D01*
X119371914Y-104038260D01*
X119378429Y-104037228D01*
X119378431Y-104037228D01*
X119385861Y-104036051D01*
X119405572Y-104034500D01*
X120369174Y-104034500D01*
X120437295Y-104054502D01*
X120483788Y-104108158D01*
X120493892Y-104178432D01*
X120469537Y-104236679D01*
X120443780Y-104270613D01*
X120438586Y-104277456D01*
X120435424Y-104285443D01*
X120434213Y-104287592D01*
X120425119Y-104300248D01*
X120425635Y-104300623D01*
X120421755Y-104305963D01*
X120417333Y-104310874D01*
X120414030Y-104316596D01*
X120414025Y-104316602D01*
X120396645Y-104346705D01*
X120389464Y-104357764D01*
X120365141Y-104391242D01*
X120351648Y-104421548D01*
X120348312Y-104429041D01*
X120342326Y-104440789D01*
X120321635Y-104476627D01*
X120319594Y-104482909D01*
X120319592Y-104482913D01*
X120308849Y-104515977D01*
X120304124Y-104528286D01*
X120287293Y-104566090D01*
X120285920Y-104572548D01*
X120285920Y-104572549D01*
X120278690Y-104606566D01*
X120275276Y-104619307D01*
X120264532Y-104652371D01*
X120264531Y-104652375D01*
X120262491Y-104658654D01*
X120258336Y-104698193D01*
X120258167Y-104699798D01*
X120256103Y-104712827D01*
X120248873Y-104746839D01*
X120248872Y-104746848D01*
X120247500Y-104753303D01*
X120247500Y-108612669D01*
X120227498Y-108680790D01*
X120210595Y-108701764D01*
X119043764Y-109868595D01*
X118981452Y-109902621D01*
X118954669Y-109905500D01*
X118018267Y-109905500D01*
X117970049Y-109895909D01*
X117914949Y-109873086D01*
X117914948Y-109873086D01*
X117907320Y-109869926D01*
X117899136Y-109868849D01*
X117899134Y-109868848D01*
X117801828Y-109856038D01*
X117801827Y-109856038D01*
X117797741Y-109855500D01*
X117136081Y-109855500D01*
X116474260Y-109855501D01*
X116470176Y-109856039D01*
X116470170Y-109856039D01*
X116372867Y-109868848D01*
X116372865Y-109868849D01*
X116364680Y-109869926D01*
X116228331Y-109926404D01*
X116111246Y-110016246D01*
X116021404Y-110133332D01*
X116018243Y-110140964D01*
X116014114Y-110148115D01*
X116011866Y-110146817D01*
X115975440Y-110192008D01*
X115903592Y-110214500D01*
X115395285Y-110214500D01*
X115312115Y-110223241D01*
X115259217Y-110228801D01*
X115259215Y-110228801D01*
X115252654Y-110229491D01*
X115070627Y-110288635D01*
X115064905Y-110291938D01*
X115064904Y-110291939D01*
X115005354Y-110326321D01*
X114904874Y-110384333D01*
X114899967Y-110388751D01*
X114899966Y-110388752D01*
X114829332Y-110452351D01*
X114762640Y-110512401D01*
X114737031Y-110547649D01*
X114732735Y-110553562D01*
X114676512Y-110596915D01*
X114630799Y-110605500D01*
X114284828Y-110605500D01*
X114233883Y-110594741D01*
X114208668Y-110583594D01*
X114182129Y-110580500D01*
X113144639Y-110580500D01*
X112089872Y-110580501D01*
X112062796Y-110583722D01*
X112054151Y-110587562D01*
X111973698Y-110623298D01*
X111957085Y-110630677D01*
X111948866Y-110638910D01*
X111948865Y-110638911D01*
X111936540Y-110651258D01*
X111875365Y-110712539D01*
X111870662Y-110723176D01*
X111870661Y-110723178D01*
X111836657Y-110800093D01*
X111828594Y-110818332D01*
X111825500Y-110844871D01*
X111160620Y-110844871D01*
X111160786Y-110844649D01*
X111169324Y-110829054D01*
X111214478Y-110708606D01*
X111218105Y-110693351D01*
X111223631Y-110642486D01*
X111224000Y-110635672D01*
X111224000Y-110584115D01*
X111219525Y-110568876D01*
X111218135Y-110567671D01*
X111210452Y-110566000D01*
X108226116Y-110566000D01*
X108210877Y-110570475D01*
X108209672Y-110571865D01*
X108208001Y-110579548D01*
X108208001Y-110603999D01*
X108187999Y-110672120D01*
X108146142Y-110712451D01*
X108116846Y-110729777D01*
X108103298Y-110743325D01*
X108088266Y-110756164D01*
X108072763Y-110767428D01*
X108045740Y-110800093D01*
X108037751Y-110808872D01*
X107229411Y-111617212D01*
X107167099Y-111651238D01*
X107096284Y-111646173D01*
X107040353Y-111604820D01*
X107015784Y-111572800D01*
X107015780Y-111572796D01*
X107010754Y-111566246D01*
X106895113Y-111477512D01*
X106853245Y-111420175D01*
X106849023Y-111349305D01*
X106883786Y-111287401D01*
X106921915Y-111264137D01*
X106921156Y-111262517D01*
X106940962Y-111253239D01*
X107078807Y-111167937D01*
X107090208Y-111158901D01*
X107204739Y-111044171D01*
X107213751Y-111032760D01*
X107298816Y-110894757D01*
X107304963Y-110881576D01*
X107356138Y-110727290D01*
X107359005Y-110713914D01*
X107368672Y-110619562D01*
X107369000Y-110613146D01*
X107369000Y-110546615D01*
X107364525Y-110531376D01*
X107363135Y-110530171D01*
X107355452Y-110528500D01*
X104921116Y-110528500D01*
X104905877Y-110532975D01*
X104904672Y-110534365D01*
X104903001Y-110542048D01*
X104903001Y-110613095D01*
X104903338Y-110619614D01*
X104913257Y-110715206D01*
X104916149Y-110728600D01*
X104967588Y-110882784D01*
X104973761Y-110895962D01*
X105059063Y-111033807D01*
X105068099Y-111045208D01*
X105182829Y-111159739D01*
X105194240Y-111168751D01*
X105332243Y-111253816D01*
X105352057Y-111263056D01*
X105350802Y-111265747D01*
X105398087Y-111298524D01*
X105425307Y-111364095D01*
X105412755Y-111433973D01*
X105376742Y-111477623D01*
X105267800Y-111561216D01*
X105267796Y-111561220D01*
X105261246Y-111566246D01*
X105248033Y-111583466D01*
X105201812Y-111643703D01*
X105144474Y-111685571D01*
X105101849Y-111693000D01*
X103972569Y-111693000D01*
X103904448Y-111672998D01*
X103883474Y-111656096D01*
X103103405Y-110876028D01*
X103069380Y-110813715D01*
X103066500Y-110786932D01*
X103066500Y-109910385D01*
X104903000Y-109910385D01*
X104907475Y-109925624D01*
X104908865Y-109926829D01*
X104916548Y-109928500D01*
X105817885Y-109928500D01*
X105833124Y-109924025D01*
X105834329Y-109922635D01*
X105836000Y-109914952D01*
X105836000Y-109910385D01*
X106436000Y-109910385D01*
X106440475Y-109925624D01*
X106441865Y-109926829D01*
X106449548Y-109928500D01*
X107350884Y-109928500D01*
X107366123Y-109924025D01*
X107367328Y-109922635D01*
X107368999Y-109914952D01*
X107368999Y-109843905D01*
X107368662Y-109837386D01*
X107358743Y-109741794D01*
X107355851Y-109728400D01*
X107304412Y-109574216D01*
X107298239Y-109561038D01*
X107212937Y-109423193D01*
X107203901Y-109411792D01*
X107089171Y-109297261D01*
X107077760Y-109288249D01*
X106939757Y-109203184D01*
X106926576Y-109197037D01*
X106772290Y-109145862D01*
X106758914Y-109142995D01*
X106664562Y-109133328D01*
X106658145Y-109133000D01*
X106454115Y-109133000D01*
X106438876Y-109137475D01*
X106437671Y-109138865D01*
X106436000Y-109146548D01*
X106436000Y-109910385D01*
X105836000Y-109910385D01*
X105836000Y-109151116D01*
X105831525Y-109135877D01*
X105830135Y-109134672D01*
X105822452Y-109133001D01*
X105613905Y-109133001D01*
X105607386Y-109133338D01*
X105511794Y-109143257D01*
X105498400Y-109146149D01*
X105344216Y-109197588D01*
X105331038Y-109203761D01*
X105193193Y-109289063D01*
X105181792Y-109298099D01*
X105067261Y-109412829D01*
X105058249Y-109424240D01*
X104973184Y-109562243D01*
X104967037Y-109575424D01*
X104915862Y-109729710D01*
X104912995Y-109743086D01*
X104903328Y-109837438D01*
X104903000Y-109843854D01*
X104903000Y-109910385D01*
X103066500Y-109910385D01*
X103066500Y-108553086D01*
X108086740Y-108553086D01*
X108087085Y-108559673D01*
X108087085Y-108559678D01*
X108090327Y-108621529D01*
X108090500Y-108628123D01*
X108090500Y-108648715D01*
X108090844Y-108651987D01*
X108092653Y-108669202D01*
X108093170Y-108675777D01*
X108095800Y-108725953D01*
X108096757Y-108744218D01*
X108098465Y-108750591D01*
X108100411Y-108757853D01*
X108104015Y-108777302D01*
X108105491Y-108791346D01*
X108123785Y-108847649D01*
X108126674Y-108856541D01*
X108128546Y-108862859D01*
X108146293Y-108929092D01*
X108149289Y-108934973D01*
X108149291Y-108934977D01*
X108152707Y-108941682D01*
X108160271Y-108959943D01*
X108164635Y-108973373D01*
X108176594Y-108994086D01*
X108198917Y-109032750D01*
X108202065Y-109038549D01*
X108233185Y-109099626D01*
X108237339Y-109104756D01*
X108237343Y-109104762D01*
X108242073Y-109110603D01*
X108253272Y-109126897D01*
X108256985Y-109133328D01*
X108260333Y-109139126D01*
X108264747Y-109144029D01*
X108264752Y-109144035D01*
X108306204Y-109190072D01*
X108310488Y-109195087D01*
X108313538Y-109198853D01*
X108323440Y-109211081D01*
X108337989Y-109225630D01*
X108342511Y-109230394D01*
X108373138Y-109264408D01*
X108403854Y-109328415D01*
X108405500Y-109348716D01*
X108405500Y-109475794D01*
X108385499Y-109543913D01*
X108365581Y-109565316D01*
X108366628Y-109566363D01*
X108347712Y-109585279D01*
X108271214Y-109687351D01*
X108262676Y-109702946D01*
X108217522Y-109823394D01*
X108213895Y-109838649D01*
X108208369Y-109889514D01*
X108208000Y-109896328D01*
X108208000Y-109947885D01*
X108212475Y-109963124D01*
X108213865Y-109964329D01*
X108221548Y-109966000D01*
X111205884Y-109966000D01*
X111221123Y-109961525D01*
X111222328Y-109960135D01*
X111223999Y-109952452D01*
X111223999Y-109896331D01*
X111223629Y-109889510D01*
X111218105Y-109838648D01*
X111214479Y-109823396D01*
X111169324Y-109702946D01*
X111160786Y-109687351D01*
X111084288Y-109585279D01*
X111065373Y-109566364D01*
X111067598Y-109564139D01*
X111034412Y-109519738D01*
X111026500Y-109475793D01*
X111026499Y-108948596D01*
X111026499Y-108944872D01*
X111023278Y-108917796D01*
X110992120Y-108847649D01*
X110981047Y-108822720D01*
X110976323Y-108812085D01*
X110894461Y-108730365D01*
X110883824Y-108725662D01*
X110883822Y-108725661D01*
X110797334Y-108687425D01*
X110797333Y-108687425D01*
X110788668Y-108683594D01*
X110762129Y-108680500D01*
X110638438Y-108680500D01*
X110570317Y-108660498D01*
X110523333Y-108605751D01*
X110508859Y-108573243D01*
X110504978Y-108567901D01*
X110400243Y-108423745D01*
X110400241Y-108423743D01*
X110396360Y-108418401D01*
X110385471Y-108408596D01*
X110347561Y-108374462D01*
X110272123Y-108306538D01*
X110234884Y-108246093D01*
X110236236Y-108175110D01*
X110261209Y-108130391D01*
X110271829Y-108118135D01*
X110273500Y-108110452D01*
X110273500Y-108105884D01*
X110873500Y-108105884D01*
X110877975Y-108121123D01*
X110879365Y-108122328D01*
X110887048Y-108123999D01*
X111033095Y-108123999D01*
X111039614Y-108123662D01*
X111135206Y-108113743D01*
X111148600Y-108110851D01*
X111302784Y-108059412D01*
X111315962Y-108053239D01*
X111453807Y-107967937D01*
X111465208Y-107958901D01*
X111579739Y-107844171D01*
X111588751Y-107832760D01*
X111673816Y-107694757D01*
X111679963Y-107681576D01*
X111731138Y-107527290D01*
X111734005Y-107513914D01*
X111743672Y-107419562D01*
X111744000Y-107413146D01*
X111744000Y-106584115D01*
X111739525Y-106568876D01*
X111738135Y-106567671D01*
X111730452Y-106566000D01*
X110891615Y-106566000D01*
X110876376Y-106570475D01*
X110875171Y-106571865D01*
X110873500Y-106579548D01*
X110873500Y-108105884D01*
X110273500Y-108105884D01*
X110273500Y-105947885D01*
X110873500Y-105947885D01*
X110877975Y-105963124D01*
X110879365Y-105964329D01*
X110887048Y-105966000D01*
X111725884Y-105966000D01*
X111741123Y-105961525D01*
X111742328Y-105960135D01*
X111743999Y-105952452D01*
X111743999Y-105118905D01*
X111743662Y-105112386D01*
X111733743Y-105016794D01*
X111730851Y-105003400D01*
X111679412Y-104849216D01*
X111673239Y-104836038D01*
X111587937Y-104698193D01*
X111578901Y-104686792D01*
X111464171Y-104572261D01*
X111452760Y-104563249D01*
X111314757Y-104478184D01*
X111301576Y-104472037D01*
X111147290Y-104420862D01*
X111133914Y-104417995D01*
X111039562Y-104408328D01*
X111033145Y-104408000D01*
X110891615Y-104408000D01*
X110876376Y-104412475D01*
X110875171Y-104413865D01*
X110873500Y-104421548D01*
X110873500Y-105947885D01*
X110273500Y-105947885D01*
X110273500Y-104426116D01*
X110269025Y-104410877D01*
X110267635Y-104409672D01*
X110259952Y-104408001D01*
X110113905Y-104408001D01*
X110107386Y-104408338D01*
X110050503Y-104414240D01*
X109980682Y-104401375D01*
X109928900Y-104352804D01*
X109911500Y-104288913D01*
X109911500Y-103772331D01*
X109931502Y-103704210D01*
X109948405Y-103683236D01*
X110272137Y-103359504D01*
X110287171Y-103346663D01*
X110293254Y-103342243D01*
X110298599Y-103338360D01*
X110316762Y-103318188D01*
X110377205Y-103280950D01*
X110410396Y-103276500D01*
X111317283Y-103276499D01*
X111382128Y-103276499D01*
X111409204Y-103273278D01*
X111514915Y-103226323D01*
X111526172Y-103215047D01*
X111555977Y-103185189D01*
X111596635Y-103144461D01*
X111601338Y-103133824D01*
X111601339Y-103133822D01*
X111639575Y-103047334D01*
X111639575Y-103047333D01*
X111643406Y-103038668D01*
X111646500Y-103012129D01*
X111646499Y-101519872D01*
X111643278Y-101492796D01*
X111602818Y-101401707D01*
X111601047Y-101397720D01*
X111596323Y-101387085D01*
X111586770Y-101377548D01*
X111547102Y-101337949D01*
X111514461Y-101305365D01*
X111503824Y-101300662D01*
X111503822Y-101300661D01*
X111417334Y-101262425D01*
X111417333Y-101262425D01*
X111408668Y-101258594D01*
X111382129Y-101255500D01*
X111359935Y-101255500D01*
X110722499Y-101255501D01*
X110654379Y-101235499D01*
X110607886Y-101181843D01*
X110596500Y-101129501D01*
X110596500Y-100552499D01*
X110616502Y-100484378D01*
X110670158Y-100437885D01*
X110722500Y-100426499D01*
X111663128Y-100426499D01*
X111690204Y-100423278D01*
X111752424Y-100395641D01*
X111785280Y-100381047D01*
X111795915Y-100376323D01*
X111877635Y-100294461D01*
X111882338Y-100283824D01*
X111882339Y-100283822D01*
X111920575Y-100197334D01*
X111920575Y-100197333D01*
X111924406Y-100188668D01*
X111927500Y-100162129D01*
X111927499Y-92369872D01*
X111924278Y-92342796D01*
X111877323Y-92237085D01*
X111861970Y-92221758D01*
X111836189Y-92196023D01*
X111795461Y-92155365D01*
X111784824Y-92150662D01*
X111784822Y-92150661D01*
X111698334Y-92112425D01*
X111698333Y-92112425D01*
X111689668Y-92108594D01*
X111663129Y-92105500D01*
X110080181Y-92105500D01*
X108470872Y-92105501D01*
X108443796Y-92108722D01*
X108435151Y-92112562D01*
X108349378Y-92150661D01*
X108338085Y-92155677D01*
X108329866Y-92163910D01*
X108329865Y-92163911D01*
X108309329Y-92184483D01*
X108256365Y-92237539D01*
X108251662Y-92248176D01*
X108251661Y-92248178D01*
X108213653Y-92334151D01*
X108209594Y-92343332D01*
X108206500Y-92369871D01*
X108206501Y-100162128D01*
X108209722Y-100189204D01*
X108256677Y-100294915D01*
X108338539Y-100376635D01*
X108349176Y-100381338D01*
X108349178Y-100381339D01*
X108435666Y-100419575D01*
X108435667Y-100419575D01*
X108444332Y-100423406D01*
X108470871Y-100426500D01*
X108649500Y-100426500D01*
X108717621Y-100446502D01*
X108764114Y-100500158D01*
X108775500Y-100552500D01*
X108775500Y-102228669D01*
X108755498Y-102296790D01*
X108738595Y-102317764D01*
X108414863Y-102641496D01*
X108399829Y-102654337D01*
X108388401Y-102662640D01*
X108383980Y-102667550D01*
X108383979Y-102667551D01*
X108342530Y-102713585D01*
X108337989Y-102718370D01*
X108323440Y-102732919D01*
X108321364Y-102735483D01*
X108310488Y-102748913D01*
X108306204Y-102753928D01*
X108264752Y-102799965D01*
X108264747Y-102799971D01*
X108260333Y-102804874D01*
X108257033Y-102810590D01*
X108257032Y-102810591D01*
X108253272Y-102817103D01*
X108242073Y-102833397D01*
X108237343Y-102839238D01*
X108237339Y-102839244D01*
X108233185Y-102844374D01*
X108230187Y-102850258D01*
X108202065Y-102905451D01*
X108198917Y-102911250D01*
X108164635Y-102970627D01*
X108162596Y-102976904D01*
X108162595Y-102976905D01*
X108160271Y-102984057D01*
X108152707Y-103002318D01*
X108149291Y-103009023D01*
X108149289Y-103009027D01*
X108146293Y-103014908D01*
X108137605Y-103047334D01*
X108128548Y-103081134D01*
X108126676Y-103087453D01*
X108105491Y-103152654D01*
X108104801Y-103159219D01*
X108104015Y-103166698D01*
X108100412Y-103186141D01*
X108096757Y-103199782D01*
X108096412Y-103206372D01*
X108096411Y-103206376D01*
X108093170Y-103268223D01*
X108092653Y-103274798D01*
X108092007Y-103280950D01*
X108090500Y-103295285D01*
X108090500Y-103315877D01*
X108090327Y-103322471D01*
X108086740Y-103390914D01*
X108087772Y-103397429D01*
X108087772Y-103397431D01*
X108088949Y-103404861D01*
X108090500Y-103424572D01*
X108090500Y-108519428D01*
X108088949Y-108539139D01*
X108086740Y-108553086D01*
X103066500Y-108553086D01*
X103066500Y-104955327D01*
X103086502Y-104887206D01*
X103142762Y-104839559D01*
X103143782Y-104839121D01*
X103259592Y-104789365D01*
X103290051Y-104776279D01*
X103290054Y-104776277D01*
X103294340Y-104774436D01*
X103338937Y-104746839D01*
X103519197Y-104635291D01*
X103519198Y-104635291D01*
X103523169Y-104632833D01*
X103526733Y-104629816D01*
X103526737Y-104629813D01*
X103724989Y-104461980D01*
X103724990Y-104461979D01*
X103728555Y-104458961D01*
X103816734Y-104358412D01*
X103902902Y-104260157D01*
X103902905Y-104260152D01*
X103905984Y-104256642D01*
X103908514Y-104252709D01*
X104049032Y-104034249D01*
X104049035Y-104034244D01*
X104051560Y-104030318D01*
X104162084Y-103784964D01*
X104174477Y-103741021D01*
X104233859Y-103530472D01*
X104233860Y-103530469D01*
X104235129Y-103525968D01*
X104247231Y-103430839D01*
X104268691Y-103262151D01*
X104268691Y-103262145D01*
X104269089Y-103259020D01*
X104269822Y-103231047D01*
X104271494Y-103167160D01*
X104271577Y-103164000D01*
X104260971Y-103021282D01*
X104251980Y-102900293D01*
X104251979Y-102900289D01*
X104251634Y-102895641D01*
X104192245Y-102633177D01*
X104172963Y-102583594D01*
X104096406Y-102386727D01*
X104096405Y-102386725D01*
X104094713Y-102382374D01*
X104092395Y-102378318D01*
X103963501Y-102152799D01*
X103963499Y-102152797D01*
X103961182Y-102148742D01*
X103794584Y-101937414D01*
X103598580Y-101753032D01*
X103552464Y-101721040D01*
X103381307Y-101602304D01*
X103381304Y-101602302D01*
X103377475Y-101599646D01*
X103373298Y-101597586D01*
X103373291Y-101597582D01*
X103140313Y-101482690D01*
X103140309Y-101482689D01*
X103136127Y-101480626D01*
X102879838Y-101398588D01*
X102875231Y-101397838D01*
X102875228Y-101397837D01*
X102631584Y-101358157D01*
X102614238Y-101355332D01*
X102483410Y-101353619D01*
X102349839Y-101351870D01*
X102349836Y-101351870D01*
X102345162Y-101351809D01*
X102165473Y-101376264D01*
X102083148Y-101387468D01*
X102083146Y-101387468D01*
X102078520Y-101388098D01*
X102074038Y-101389404D01*
X102074035Y-101389405D01*
X102016391Y-101406207D01*
X101820172Y-101463400D01*
X101815925Y-101465358D01*
X101815922Y-101465359D01*
X101736036Y-101502187D01*
X101575791Y-101576061D01*
X101571882Y-101578624D01*
X101354660Y-101721040D01*
X101354655Y-101721044D01*
X101350747Y-101723606D01*
X101149983Y-101902794D01*
X100977911Y-102109689D01*
X100975488Y-102113682D01*
X100844834Y-102328993D01*
X100838309Y-102339745D01*
X100836502Y-102344053D01*
X100836502Y-102344054D01*
X100768813Y-102505475D01*
X100734245Y-102587909D01*
X100733094Y-102592441D01*
X100733093Y-102592444D01*
X100716252Y-102658757D01*
X100668006Y-102848728D01*
X100641045Y-103116474D01*
X84643588Y-103116474D01*
X84649828Y-103107562D01*
X84659203Y-103087459D01*
X84737020Y-102920579D01*
X84737021Y-102920578D01*
X84739343Y-102915597D01*
X84745911Y-102891087D01*
X84758477Y-102844189D01*
X84794164Y-102711004D01*
X84812624Y-102500000D01*
X84794164Y-102288996D01*
X84747188Y-102113682D01*
X84740766Y-102089713D01*
X84740765Y-102089711D01*
X84739343Y-102084403D01*
X84682256Y-101961980D01*
X84652151Y-101897419D01*
X84652149Y-101897416D01*
X84649828Y-101892438D01*
X84528339Y-101718933D01*
X84378567Y-101569161D01*
X84205062Y-101447672D01*
X84200084Y-101445351D01*
X84200081Y-101445349D01*
X84018079Y-101360480D01*
X84018078Y-101360479D01*
X84013097Y-101358157D01*
X84007789Y-101356735D01*
X84007787Y-101356734D01*
X83929436Y-101335740D01*
X83808504Y-101303336D01*
X83597500Y-101284876D01*
X83386496Y-101303336D01*
X83265564Y-101335740D01*
X83187213Y-101356734D01*
X83187211Y-101356735D01*
X83181903Y-101358157D01*
X83176922Y-101360479D01*
X83176921Y-101360480D01*
X82994919Y-101445349D01*
X82994916Y-101445351D01*
X82989938Y-101447672D01*
X82816433Y-101569161D01*
X82666661Y-101718933D01*
X82545172Y-101892438D01*
X82542851Y-101897416D01*
X82542849Y-101897419D01*
X82512744Y-101961980D01*
X82455657Y-102084403D01*
X82454235Y-102089711D01*
X82454234Y-102089713D01*
X82447812Y-102113682D01*
X82400836Y-102288996D01*
X82382376Y-102500000D01*
X64851971Y-102500000D01*
X64851971Y-100494669D01*
X75544501Y-100494669D01*
X75544871Y-100501490D01*
X75550395Y-100552352D01*
X75554021Y-100567604D01*
X75599176Y-100688054D01*
X75607714Y-100703649D01*
X75684215Y-100805724D01*
X75696776Y-100818285D01*
X75798851Y-100894786D01*
X75814446Y-100903324D01*
X75934894Y-100948478D01*
X75950149Y-100952105D01*
X76001014Y-100957631D01*
X76007828Y-100958000D01*
X78284385Y-100958000D01*
X78299624Y-100953525D01*
X78300829Y-100952135D01*
X78302500Y-100944452D01*
X78302500Y-100939884D01*
X78902500Y-100939884D01*
X78906975Y-100955123D01*
X78908365Y-100956328D01*
X78916048Y-100957999D01*
X81197169Y-100957999D01*
X81203990Y-100957629D01*
X81254852Y-100952105D01*
X81270104Y-100948479D01*
X81390554Y-100903324D01*
X81406149Y-100894786D01*
X81508224Y-100818285D01*
X81520785Y-100805724D01*
X81597286Y-100703649D01*
X81605824Y-100688054D01*
X81632658Y-100616474D01*
X90641045Y-100616474D01*
X90641269Y-100621140D01*
X90641269Y-100621145D01*
X90647117Y-100742893D01*
X90653956Y-100885263D01*
X90669543Y-100963624D01*
X90699955Y-101116512D01*
X90706455Y-101149192D01*
X90708034Y-101153590D01*
X90708036Y-101153597D01*
X90787355Y-101374517D01*
X90797388Y-101402462D01*
X90924758Y-101639509D01*
X90927553Y-101643253D01*
X90927555Y-101643255D01*
X91082975Y-101851388D01*
X91082980Y-101851394D01*
X91085767Y-101855126D01*
X91089076Y-101858406D01*
X91089081Y-101858412D01*
X91193557Y-101961980D01*
X91276877Y-102044576D01*
X91280639Y-102047334D01*
X91280642Y-102047337D01*
X91456928Y-102176595D01*
X91493891Y-102203697D01*
X91498034Y-102205877D01*
X91498036Y-102205878D01*
X91727890Y-102326810D01*
X91727895Y-102326812D01*
X91732040Y-102328993D01*
X91736463Y-102330538D01*
X91736464Y-102330538D01*
X91879997Y-102380662D01*
X91986094Y-102417713D01*
X91990687Y-102418585D01*
X92245882Y-102467035D01*
X92245885Y-102467035D01*
X92250471Y-102467906D01*
X92384917Y-102473189D01*
X92514695Y-102478288D01*
X92514701Y-102478288D01*
X92519363Y-102478471D01*
X92602420Y-102469375D01*
X92782210Y-102449685D01*
X92782215Y-102449684D01*
X92786863Y-102449175D01*
X92791387Y-102447984D01*
X93042571Y-102381853D01*
X93042573Y-102381852D01*
X93047094Y-102380662D01*
X93294340Y-102274436D01*
X93523169Y-102132833D01*
X93526733Y-102129816D01*
X93526737Y-102129813D01*
X93724989Y-101961980D01*
X93724990Y-101961979D01*
X93728555Y-101958961D01*
X93822894Y-101851388D01*
X93902902Y-101760157D01*
X93902905Y-101760152D01*
X93905984Y-101756642D01*
X93908514Y-101752709D01*
X94049032Y-101534249D01*
X94049035Y-101534244D01*
X94051560Y-101530318D01*
X94162084Y-101284964D01*
X94170274Y-101255925D01*
X94233859Y-101030472D01*
X94233860Y-101030469D01*
X94235129Y-101025968D01*
X94248120Y-100923853D01*
X94268691Y-100762151D01*
X94268691Y-100762145D01*
X94269089Y-100759020D01*
X94271577Y-100664000D01*
X94259401Y-100500158D01*
X94251980Y-100400293D01*
X94251979Y-100400289D01*
X94251634Y-100395641D01*
X94192245Y-100133177D01*
X94126272Y-99963528D01*
X94120224Y-99892791D01*
X94154610Y-99828767D01*
X98043973Y-95939405D01*
X98106285Y-95905379D01*
X98133068Y-95902500D01*
X99789229Y-95902499D01*
X99911128Y-95902499D01*
X99938204Y-95899278D01*
X100005262Y-95869492D01*
X100033280Y-95857047D01*
X100043915Y-95852323D01*
X100059173Y-95837039D01*
X100102942Y-95793193D01*
X100125635Y-95770461D01*
X100130338Y-95759824D01*
X100130339Y-95759822D01*
X100168575Y-95673334D01*
X100168575Y-95673333D01*
X100172406Y-95664668D01*
X100175500Y-95638129D01*
X100175500Y-95636669D01*
X101557001Y-95636669D01*
X101557371Y-95643490D01*
X101562895Y-95694352D01*
X101566521Y-95709604D01*
X101611676Y-95830054D01*
X101620214Y-95845649D01*
X101696715Y-95947724D01*
X101709276Y-95960285D01*
X101811351Y-96036786D01*
X101826946Y-96045324D01*
X101947394Y-96090478D01*
X101962649Y-96094105D01*
X102013514Y-96099631D01*
X102020328Y-96100000D01*
X103396885Y-96100000D01*
X103412124Y-96095525D01*
X103413329Y-96094135D01*
X103415000Y-96086452D01*
X103415000Y-96081884D01*
X104015000Y-96081884D01*
X104019475Y-96097123D01*
X104020865Y-96098328D01*
X104028548Y-96099999D01*
X105409669Y-96099999D01*
X105416490Y-96099629D01*
X105467352Y-96094105D01*
X105482604Y-96090479D01*
X105603054Y-96045324D01*
X105618649Y-96036786D01*
X105720724Y-95960285D01*
X105733285Y-95947724D01*
X105809786Y-95845649D01*
X105818324Y-95830054D01*
X105863478Y-95709606D01*
X105867105Y-95694351D01*
X105872631Y-95643486D01*
X105873000Y-95636672D01*
X105873000Y-95060115D01*
X105868525Y-95044876D01*
X105867135Y-95043671D01*
X105859452Y-95042000D01*
X104033115Y-95042000D01*
X104017876Y-95046475D01*
X104016671Y-95047865D01*
X104015000Y-95055548D01*
X104015000Y-96081884D01*
X103415000Y-96081884D01*
X103415000Y-95060115D01*
X103410525Y-95044876D01*
X103409135Y-95043671D01*
X103401452Y-95042000D01*
X101575116Y-95042000D01*
X101559877Y-95046475D01*
X101558672Y-95047865D01*
X101557001Y-95055548D01*
X101557001Y-95636669D01*
X100175500Y-95636669D01*
X100175499Y-94423885D01*
X101557000Y-94423885D01*
X101561475Y-94439124D01*
X101562865Y-94440329D01*
X101570548Y-94442000D01*
X103396885Y-94442000D01*
X103412124Y-94437525D01*
X103413329Y-94436135D01*
X103415000Y-94428452D01*
X103415000Y-94423885D01*
X104015000Y-94423885D01*
X104019475Y-94439124D01*
X104020865Y-94440329D01*
X104028548Y-94442000D01*
X105854884Y-94442000D01*
X105870123Y-94437525D01*
X105871328Y-94436135D01*
X105872999Y-94428452D01*
X105872999Y-93847331D01*
X105872629Y-93840510D01*
X105867105Y-93789648D01*
X105863479Y-93774396D01*
X105818324Y-93653946D01*
X105809786Y-93638351D01*
X105733285Y-93536276D01*
X105720724Y-93523715D01*
X105618649Y-93447214D01*
X105603054Y-93438676D01*
X105482606Y-93393522D01*
X105467351Y-93389895D01*
X105416486Y-93384369D01*
X105409672Y-93384000D01*
X104033115Y-93384000D01*
X104017876Y-93388475D01*
X104016671Y-93389865D01*
X104015000Y-93397548D01*
X104015000Y-94423885D01*
X103415000Y-94423885D01*
X103415000Y-93402116D01*
X103410525Y-93386877D01*
X103409135Y-93385672D01*
X103401452Y-93384001D01*
X102020331Y-93384001D01*
X102013510Y-93384371D01*
X101962648Y-93389895D01*
X101947396Y-93393521D01*
X101826946Y-93438676D01*
X101811351Y-93447214D01*
X101709276Y-93523715D01*
X101696715Y-93536276D01*
X101620214Y-93638351D01*
X101611676Y-93653946D01*
X101566522Y-93774394D01*
X101562895Y-93789649D01*
X101557369Y-93840514D01*
X101557000Y-93847328D01*
X101557000Y-94423885D01*
X100175499Y-94423885D01*
X100175499Y-93845872D01*
X100172278Y-93818796D01*
X100152555Y-93774394D01*
X100130047Y-93723720D01*
X100125323Y-93713085D01*
X100043461Y-93631365D01*
X100032824Y-93626662D01*
X100032822Y-93626661D01*
X99946334Y-93588425D01*
X99946333Y-93588425D01*
X99937668Y-93584594D01*
X99911129Y-93581500D01*
X98907500Y-93581500D01*
X98839379Y-93561498D01*
X98792886Y-93507842D01*
X98781500Y-93455500D01*
X98781500Y-92297937D01*
X98801502Y-92229816D01*
X98807137Y-92221758D01*
X98839150Y-92179583D01*
X98890414Y-92112044D01*
X98893862Y-92103337D01*
X98942705Y-91979971D01*
X98945685Y-91972445D01*
X98949878Y-91937800D01*
X98956044Y-91886840D01*
X98956500Y-91883074D01*
X98956500Y-91297926D01*
X98945685Y-91208555D01*
X98890414Y-91068956D01*
X98799638Y-90949362D01*
X98680044Y-90858586D01*
X98672063Y-90855426D01*
X98672061Y-90855425D01*
X98586544Y-90821567D01*
X98540445Y-90803315D01*
X98532406Y-90802342D01*
X98524569Y-90800352D01*
X98525320Y-90797395D01*
X98473336Y-90775046D01*
X98433626Y-90716193D01*
X98432038Y-90645214D01*
X98469077Y-90584645D01*
X98525401Y-90558923D01*
X98524569Y-90555648D01*
X98532406Y-90553658D01*
X98540445Y-90552685D01*
X98603328Y-90527788D01*
X98672061Y-90500575D01*
X98672063Y-90500574D01*
X98680044Y-90497414D01*
X98799638Y-90406638D01*
X98828722Y-90368321D01*
X98885840Y-90326154D01*
X98929085Y-90318500D01*
X112219669Y-90318500D01*
X112287790Y-90338502D01*
X112308764Y-90355405D01*
X112590595Y-90637236D01*
X112624621Y-90699548D01*
X112627500Y-90726331D01*
X112627500Y-101495399D01*
X112626652Y-101509989D01*
X112625500Y-101519871D01*
X112625501Y-103012128D01*
X112628722Y-103039204D01*
X112632560Y-103047844D01*
X112632560Y-103047845D01*
X112664652Y-103120095D01*
X112675500Y-103171243D01*
X112675500Y-106071928D01*
X112673949Y-106091639D01*
X112671740Y-106105586D01*
X112672085Y-106112173D01*
X112672085Y-106112178D01*
X112675327Y-106174029D01*
X112675500Y-106180623D01*
X112675500Y-106201215D01*
X112675844Y-106204487D01*
X112677653Y-106221702D01*
X112678170Y-106228277D01*
X112681297Y-106287933D01*
X112681757Y-106296718D01*
X112683465Y-106303091D01*
X112685411Y-106310353D01*
X112689015Y-106329802D01*
X112690491Y-106343850D01*
X112688229Y-106344088D01*
X112683622Y-106404429D01*
X112657630Y-106446082D01*
X112638170Y-106466805D01*
X112634355Y-106473744D01*
X112634351Y-106473750D01*
X112628941Y-106483592D01*
X112618084Y-106500120D01*
X112606340Y-106515260D01*
X112603193Y-106522532D01*
X112603192Y-106522534D01*
X112589498Y-106554178D01*
X112584276Y-106564838D01*
X112563860Y-106601974D01*
X112561888Y-106609656D01*
X112561887Y-106609658D01*
X112559096Y-106620529D01*
X112552694Y-106639230D01*
X112545081Y-106656822D01*
X112543841Y-106664651D01*
X112538450Y-106698689D01*
X112536043Y-106710312D01*
X112533232Y-106721260D01*
X112525500Y-106751376D01*
X112525500Y-106770538D01*
X112523949Y-106790248D01*
X112520952Y-106809171D01*
X112521698Y-106817063D01*
X112524941Y-106851370D01*
X112525500Y-106863228D01*
X112525500Y-108554501D01*
X112505498Y-108622622D01*
X112451842Y-108669115D01*
X112399500Y-108680501D01*
X112089872Y-108680501D01*
X112062796Y-108683722D01*
X112054151Y-108687562D01*
X111968378Y-108725661D01*
X111957085Y-108730677D01*
X111948866Y-108738910D01*
X111948865Y-108738911D01*
X111929956Y-108757853D01*
X111875365Y-108812539D01*
X111870662Y-108823176D01*
X111870661Y-108823178D01*
X111832653Y-108909151D01*
X111828594Y-108918332D01*
X111825500Y-108944871D01*
X111825501Y-109687128D01*
X111828722Y-109714204D01*
X111875677Y-109819915D01*
X111883910Y-109828134D01*
X111883911Y-109828135D01*
X111899709Y-109843905D01*
X111957539Y-109901635D01*
X111968176Y-109906338D01*
X111968178Y-109906339D01*
X112054666Y-109944575D01*
X112054667Y-109944575D01*
X112063332Y-109948406D01*
X112089871Y-109951500D01*
X113127361Y-109951500D01*
X114182128Y-109951499D01*
X114209204Y-109948278D01*
X114257493Y-109926829D01*
X114304280Y-109906047D01*
X114314915Y-109901323D01*
X114396635Y-109819461D01*
X114401338Y-109808824D01*
X114401339Y-109808822D01*
X114439575Y-109722334D01*
X114439575Y-109722333D01*
X114443406Y-109713668D01*
X114446500Y-109687129D01*
X114446499Y-108944872D01*
X114443278Y-108917796D01*
X114412120Y-108847649D01*
X114401047Y-108822720D01*
X114396323Y-108812085D01*
X114314461Y-108730365D01*
X114303824Y-108725662D01*
X114303822Y-108725661D01*
X114217334Y-108687425D01*
X114217333Y-108687425D01*
X114208668Y-108683594D01*
X114182129Y-108680500D01*
X113872500Y-108680500D01*
X113804379Y-108660498D01*
X113757886Y-108606842D01*
X113746500Y-108554500D01*
X113746500Y-108052499D01*
X113766502Y-107984378D01*
X113820158Y-107937885D01*
X113872500Y-107926499D01*
X114019167Y-107926499D01*
X114087288Y-107946501D01*
X114108262Y-107963404D01*
X114446999Y-108302141D01*
X114459839Y-108317174D01*
X114468140Y-108328599D01*
X114473050Y-108333020D01*
X114473051Y-108333021D01*
X114519076Y-108374462D01*
X114523861Y-108379003D01*
X114538419Y-108393561D01*
X114540984Y-108395638D01*
X114554420Y-108406518D01*
X114559440Y-108410806D01*
X114605461Y-108452244D01*
X114605465Y-108452247D01*
X114610374Y-108456667D01*
X114616095Y-108459970D01*
X114622599Y-108463725D01*
X114638896Y-108474926D01*
X114649875Y-108483816D01*
X114655757Y-108486813D01*
X114655760Y-108486815D01*
X114710973Y-108514948D01*
X114716769Y-108518095D01*
X114766088Y-108546569D01*
X114776127Y-108552365D01*
X114782408Y-108554406D01*
X114782413Y-108554408D01*
X114789557Y-108556729D01*
X114807818Y-108564293D01*
X114814523Y-108567709D01*
X114814527Y-108567711D01*
X114820408Y-108570707D01*
X114886641Y-108588454D01*
X114892953Y-108590324D01*
X114958154Y-108611509D01*
X114964719Y-108612199D01*
X114972198Y-108612985D01*
X114991641Y-108616588D01*
X115005282Y-108620243D01*
X115011872Y-108620588D01*
X115011876Y-108620589D01*
X115073723Y-108623830D01*
X115080298Y-108624347D01*
X115094636Y-108625854D01*
X115100785Y-108626500D01*
X115121377Y-108626500D01*
X115127971Y-108626673D01*
X115189822Y-108629915D01*
X115189827Y-108629915D01*
X115196414Y-108630260D01*
X115202929Y-108629228D01*
X115202931Y-108629228D01*
X115209013Y-108628265D01*
X115210361Y-108628051D01*
X115230072Y-108626500D01*
X116253733Y-108626500D01*
X116301951Y-108636091D01*
X116340328Y-108651987D01*
X116364680Y-108662074D01*
X116372864Y-108663151D01*
X116372866Y-108663152D01*
X116470172Y-108675962D01*
X116474259Y-108676500D01*
X117135919Y-108676500D01*
X117797740Y-108676499D01*
X117801824Y-108675961D01*
X117801830Y-108675961D01*
X117899133Y-108663152D01*
X117899135Y-108663151D01*
X117907320Y-108662074D01*
X118043669Y-108605596D01*
X118130278Y-108539139D01*
X118154203Y-108520781D01*
X118154204Y-108520780D01*
X118160754Y-108515754D01*
X118250596Y-108398668D01*
X118307074Y-108262320D01*
X118309211Y-108246093D01*
X118320962Y-108156828D01*
X118320962Y-108156827D01*
X118321500Y-108152741D01*
X118321499Y-107279260D01*
X118307074Y-107169680D01*
X118250596Y-107033331D01*
X118160754Y-106916246D01*
X118043668Y-106826404D01*
X117907320Y-106769926D01*
X117899136Y-106768849D01*
X117899134Y-106768848D01*
X117801828Y-106756038D01*
X117801827Y-106756038D01*
X117797741Y-106755500D01*
X117136081Y-106755500D01*
X116474260Y-106755501D01*
X116470176Y-106756039D01*
X116470170Y-106756039D01*
X116372867Y-106768848D01*
X116372865Y-106768849D01*
X116364680Y-106769926D01*
X116301952Y-106795909D01*
X116253734Y-106805500D01*
X115577833Y-106805500D01*
X115509712Y-106785498D01*
X115488738Y-106768596D01*
X114708404Y-105988263D01*
X114674379Y-105925950D01*
X114671499Y-105899167D01*
X114671499Y-105129260D01*
X114657074Y-105019680D01*
X114600596Y-104883331D01*
X114522537Y-104781602D01*
X114496937Y-104715381D01*
X114496500Y-104704898D01*
X114496500Y-103171376D01*
X114507260Y-103120428D01*
X114539575Y-103047334D01*
X114539575Y-103047333D01*
X114543406Y-103038668D01*
X114546500Y-103012129D01*
X114546499Y-101519872D01*
X114543278Y-101492796D01*
X114502818Y-101401707D01*
X114501047Y-101397720D01*
X114496323Y-101387085D01*
X114485483Y-101376264D01*
X114482287Y-101370423D01*
X114481500Y-101369278D01*
X114481617Y-101369198D01*
X114451403Y-101313981D01*
X114448500Y-101287090D01*
X114448500Y-90378572D01*
X114450051Y-90358861D01*
X114451228Y-90351431D01*
X114451228Y-90351429D01*
X114452260Y-90344914D01*
X114451003Y-90320918D01*
X114448673Y-90276471D01*
X114448500Y-90269877D01*
X114448500Y-90249285D01*
X114446347Y-90228798D01*
X114445830Y-90222223D01*
X114442589Y-90160376D01*
X114442588Y-90160372D01*
X114442243Y-90153782D01*
X114438588Y-90140141D01*
X114434985Y-90120698D01*
X114434199Y-90113219D01*
X114433509Y-90106654D01*
X114412324Y-90041453D01*
X114410452Y-90035134D01*
X114394415Y-89975282D01*
X114394415Y-89975281D01*
X114392707Y-89968908D01*
X114389711Y-89963027D01*
X114389709Y-89963023D01*
X114386293Y-89956318D01*
X114378729Y-89938057D01*
X114376408Y-89930913D01*
X114376406Y-89930908D01*
X114374365Y-89924627D01*
X114340095Y-89865269D01*
X114336948Y-89859473D01*
X114308815Y-89804260D01*
X114308813Y-89804257D01*
X114305816Y-89798375D01*
X114296926Y-89787396D01*
X114285725Y-89771099D01*
X114281971Y-89764596D01*
X114281969Y-89764593D01*
X114278667Y-89758874D01*
X114274245Y-89753963D01*
X114274243Y-89753960D01*
X114232789Y-89707919D01*
X114228509Y-89702909D01*
X114217633Y-89689479D01*
X114215560Y-89686919D01*
X114201011Y-89672370D01*
X114196470Y-89667585D01*
X114155021Y-89621551D01*
X114155020Y-89621550D01*
X114150599Y-89616640D01*
X114139171Y-89608337D01*
X114124137Y-89595496D01*
X113350504Y-88821863D01*
X113337663Y-88806829D01*
X113333243Y-88800746D01*
X113329360Y-88795401D01*
X113278415Y-88749530D01*
X113273630Y-88744989D01*
X113259081Y-88730440D01*
X113251581Y-88724367D01*
X113243087Y-88717488D01*
X113238072Y-88713204D01*
X113192035Y-88671752D01*
X113192029Y-88671747D01*
X113187126Y-88667333D01*
X113181409Y-88664032D01*
X113174897Y-88660272D01*
X113158603Y-88649073D01*
X113152762Y-88644343D01*
X113152756Y-88644339D01*
X113147626Y-88640185D01*
X113086549Y-88609065D01*
X113080750Y-88605917D01*
X113072712Y-88601276D01*
X113021373Y-88571635D01*
X113015095Y-88569595D01*
X113007943Y-88567271D01*
X112989682Y-88559707D01*
X112982977Y-88556291D01*
X112982973Y-88556289D01*
X112977092Y-88553293D01*
X112910859Y-88535546D01*
X112904547Y-88533676D01*
X112839346Y-88512491D01*
X112825302Y-88511015D01*
X112805859Y-88507412D01*
X112792218Y-88503757D01*
X112785628Y-88503412D01*
X112785624Y-88503411D01*
X112723777Y-88500170D01*
X112717202Y-88499653D01*
X112702864Y-88498146D01*
X112696715Y-88497500D01*
X112676123Y-88497500D01*
X112669529Y-88497327D01*
X112607678Y-88494085D01*
X112607673Y-88494085D01*
X112601086Y-88493740D01*
X112594571Y-88494772D01*
X112594569Y-88494772D01*
X112587139Y-88495949D01*
X112567428Y-88497500D01*
X96556572Y-88497500D01*
X96536861Y-88495949D01*
X96529431Y-88494772D01*
X96529429Y-88494772D01*
X96522914Y-88493740D01*
X96516327Y-88494085D01*
X96516322Y-88494085D01*
X96454471Y-88497327D01*
X96447877Y-88497500D01*
X96427285Y-88497500D01*
X96421136Y-88498146D01*
X96406798Y-88499653D01*
X96400223Y-88500170D01*
X96338376Y-88503411D01*
X96338372Y-88503412D01*
X96331782Y-88503757D01*
X96318141Y-88507412D01*
X96298698Y-88511015D01*
X96284654Y-88512491D01*
X96219453Y-88533676D01*
X96213141Y-88535546D01*
X96146908Y-88553293D01*
X96141027Y-88556289D01*
X96141023Y-88556291D01*
X96134318Y-88559707D01*
X96116057Y-88567271D01*
X96108913Y-88569592D01*
X96108908Y-88569594D01*
X96102627Y-88571635D01*
X96096905Y-88574938D01*
X96096904Y-88574939D01*
X96043269Y-88605905D01*
X96037473Y-88609052D01*
X95982260Y-88637185D01*
X95982257Y-88637187D01*
X95976375Y-88640184D01*
X95971247Y-88644337D01*
X95971245Y-88644338D01*
X95965397Y-88649074D01*
X95949099Y-88660275D01*
X95936874Y-88667333D01*
X95931965Y-88671753D01*
X95931961Y-88671756D01*
X95885940Y-88713194D01*
X95880923Y-88717479D01*
X95864919Y-88730439D01*
X95850360Y-88744998D01*
X95845575Y-88749539D01*
X95794640Y-88795401D01*
X95790759Y-88800743D01*
X95790757Y-88800745D01*
X95786340Y-88806825D01*
X95773499Y-88821859D01*
X92504863Y-92090496D01*
X92489829Y-92103337D01*
X92478401Y-92111640D01*
X92473980Y-92116550D01*
X92473979Y-92116551D01*
X92432530Y-92162585D01*
X92427989Y-92167370D01*
X92413440Y-92181919D01*
X92411364Y-92184483D01*
X92400488Y-92197913D01*
X92396204Y-92202928D01*
X92354752Y-92248965D01*
X92354747Y-92248971D01*
X92350333Y-92253874D01*
X92347033Y-92259590D01*
X92347032Y-92259591D01*
X92343272Y-92266103D01*
X92332073Y-92282397D01*
X92327343Y-92288238D01*
X92327339Y-92288244D01*
X92323185Y-92293374D01*
X92320187Y-92299258D01*
X92292065Y-92354451D01*
X92288917Y-92360250D01*
X92254635Y-92419627D01*
X92252596Y-92425904D01*
X92252595Y-92425905D01*
X92250271Y-92433057D01*
X92242707Y-92451318D01*
X92239291Y-92458023D01*
X92239289Y-92458027D01*
X92236293Y-92463908D01*
X92234585Y-92470281D01*
X92234585Y-92470282D01*
X92218548Y-92530134D01*
X92216676Y-92536453D01*
X92195491Y-92601654D01*
X92194801Y-92608219D01*
X92194015Y-92615698D01*
X92190412Y-92635141D01*
X92186757Y-92648782D01*
X92186412Y-92655372D01*
X92186411Y-92655376D01*
X92183170Y-92717223D01*
X92182653Y-92723798D01*
X92181146Y-92738136D01*
X92180500Y-92744285D01*
X92180500Y-92764877D01*
X92180327Y-92771471D01*
X92176740Y-92839914D01*
X92177772Y-92846429D01*
X92177772Y-92846431D01*
X92178949Y-92853861D01*
X92180500Y-92873572D01*
X92180500Y-93879667D01*
X92160498Y-93947788D01*
X92143596Y-93968762D01*
X92061611Y-94050748D01*
X91999299Y-94084773D01*
X91972515Y-94087653D01*
X91691572Y-94087653D01*
X91671861Y-94086102D01*
X91664431Y-94084925D01*
X91664429Y-94084925D01*
X91657914Y-94083893D01*
X91651327Y-94084238D01*
X91651322Y-94084238D01*
X91589471Y-94087480D01*
X91582877Y-94087653D01*
X91562285Y-94087653D01*
X91556136Y-94088299D01*
X91541798Y-94089806D01*
X91535223Y-94090323D01*
X91473376Y-94093564D01*
X91473372Y-94093565D01*
X91466782Y-94093910D01*
X91453141Y-94097565D01*
X91433698Y-94101168D01*
X91419654Y-94102644D01*
X91367209Y-94119684D01*
X91296242Y-94121711D01*
X91235444Y-94085049D01*
X91204323Y-94022482D01*
X91203367Y-94017245D01*
X91162568Y-93876816D01*
X91156321Y-93862380D01*
X91082636Y-93737783D01*
X91072996Y-93725357D01*
X90970643Y-93623004D01*
X90958217Y-93613364D01*
X90833620Y-93539679D01*
X90819184Y-93533432D01*
X90717395Y-93503860D01*
X90703295Y-93503900D01*
X90700000Y-93511170D01*
X90700000Y-94712505D01*
X90695707Y-94745116D01*
X90654727Y-94898060D01*
X90651833Y-94908859D01*
X90651488Y-94915451D01*
X90651487Y-94915454D01*
X90643906Y-95060115D01*
X90641816Y-95099991D01*
X90642848Y-95106506D01*
X90642848Y-95106508D01*
X90668084Y-95265842D01*
X90671756Y-95289029D01*
X90674121Y-95295189D01*
X90674122Y-95295194D01*
X90691631Y-95340805D01*
X90700000Y-95385959D01*
X90700000Y-96475079D01*
X90703973Y-96488610D01*
X90711871Y-96489745D01*
X90819184Y-96458568D01*
X90833620Y-96452321D01*
X90958217Y-96378636D01*
X90970643Y-96368996D01*
X91072996Y-96266643D01*
X91082636Y-96254217D01*
X91156321Y-96129620D01*
X91162568Y-96115184D01*
X91188121Y-96027229D01*
X91226334Y-95967394D01*
X91290830Y-95937716D01*
X91328827Y-95937933D01*
X91508162Y-95966337D01*
X91514749Y-95965992D01*
X91514754Y-95965992D01*
X91692699Y-95956666D01*
X91692702Y-95956665D01*
X91699294Y-95956320D01*
X91705666Y-95954613D01*
X91705670Y-95954612D01*
X91861171Y-95912946D01*
X91893782Y-95908653D01*
X92306767Y-95908653D01*
X92326477Y-95910204D01*
X92352086Y-95914260D01*
X92358674Y-95913915D01*
X92358679Y-95913915D01*
X92393407Y-95912095D01*
X92406593Y-95912095D01*
X92441321Y-95913915D01*
X92441326Y-95913915D01*
X92447914Y-95914260D01*
X92488794Y-95907785D01*
X92501902Y-95906408D01*
X92512281Y-95905864D01*
X92536623Y-95904589D01*
X92536626Y-95904588D01*
X92543218Y-95904243D01*
X92570053Y-95897053D01*
X92576455Y-95895516D01*
X92581928Y-95894353D01*
X92588499Y-95893662D01*
X92594778Y-95891622D01*
X92601239Y-95890249D01*
X92601301Y-95890539D01*
X92608307Y-95888857D01*
X92636952Y-95884320D01*
X92643110Y-95881956D01*
X92643118Y-95881954D01*
X92675582Y-95869492D01*
X92688124Y-95865416D01*
X92728092Y-95854707D01*
X92757070Y-95839942D01*
X92763031Y-95837099D01*
X92764243Y-95836559D01*
X92770526Y-95834518D01*
X92776242Y-95831218D01*
X92779198Y-95829902D01*
X92785286Y-95827380D01*
X92809472Y-95818096D01*
X92809474Y-95818095D01*
X92815635Y-95815730D01*
X92850339Y-95793193D01*
X92861759Y-95786600D01*
X92892740Y-95770814D01*
X92898626Y-95767815D01*
X92926006Y-95745643D01*
X92930700Y-95742041D01*
X92936279Y-95738820D01*
X92941184Y-95734404D01*
X92946612Y-95730673D01*
X92970616Y-95715085D01*
X92970618Y-95715084D01*
X92976153Y-95711489D01*
X93059873Y-95627769D01*
X93064658Y-95623228D01*
X93073606Y-95615172D01*
X93073614Y-95615163D01*
X93078513Y-95610752D01*
X93082263Y-95605591D01*
X93086202Y-95601440D01*
X93677141Y-95010501D01*
X93692175Y-94997660D01*
X93698255Y-94993243D01*
X93698257Y-94993241D01*
X93703599Y-94989360D01*
X93749462Y-94938424D01*
X93754003Y-94933639D01*
X93768561Y-94919081D01*
X93781521Y-94903077D01*
X93785806Y-94898060D01*
X93827244Y-94852039D01*
X93827247Y-94852035D01*
X93831667Y-94847126D01*
X93838725Y-94834901D01*
X93849926Y-94818603D01*
X93854662Y-94812755D01*
X93854663Y-94812753D01*
X93858816Y-94807625D01*
X93863933Y-94797583D01*
X93889948Y-94746527D01*
X93893095Y-94740731D01*
X93924061Y-94687096D01*
X93924062Y-94687095D01*
X93927365Y-94681373D01*
X93929406Y-94675092D01*
X93929408Y-94675087D01*
X93931729Y-94667943D01*
X93939293Y-94649682D01*
X93942708Y-94642980D01*
X93942711Y-94642971D01*
X93945707Y-94637092D01*
X93963451Y-94570872D01*
X93965324Y-94564549D01*
X93984467Y-94505631D01*
X93984467Y-94505630D01*
X93986509Y-94499346D01*
X93987199Y-94492779D01*
X93987201Y-94492771D01*
X93987987Y-94485296D01*
X93991589Y-94465862D01*
X93993534Y-94458601D01*
X93993534Y-94458599D01*
X93995244Y-94452218D01*
X93995780Y-94442000D01*
X93998830Y-94383773D01*
X93999348Y-94377190D01*
X94001154Y-94360013D01*
X94001155Y-94360000D01*
X94001500Y-94356715D01*
X94001500Y-94336129D01*
X94001673Y-94329535D01*
X94004915Y-94267677D01*
X94004915Y-94267673D01*
X94005260Y-94261085D01*
X94003051Y-94247138D01*
X94001500Y-94227427D01*
X94001500Y-93221331D01*
X94021502Y-93153210D01*
X94038405Y-93132236D01*
X96815237Y-90355405D01*
X96877549Y-90321379D01*
X96904332Y-90318500D01*
X97412915Y-90318500D01*
X97481036Y-90338502D01*
X97513278Y-90368321D01*
X97542362Y-90406638D01*
X97661956Y-90497414D01*
X97669937Y-90500574D01*
X97669939Y-90500575D01*
X97738672Y-90527788D01*
X97801555Y-90552685D01*
X97809594Y-90553658D01*
X97817431Y-90555648D01*
X97816680Y-90558605D01*
X97868664Y-90580954D01*
X97908374Y-90639807D01*
X97909962Y-90710786D01*
X97872923Y-90771355D01*
X97816599Y-90797077D01*
X97817431Y-90800352D01*
X97809594Y-90802342D01*
X97801555Y-90803315D01*
X97755456Y-90821567D01*
X97669939Y-90855425D01*
X97669937Y-90855426D01*
X97661956Y-90858586D01*
X97542362Y-90949362D01*
X97451586Y-91068956D01*
X97396315Y-91208555D01*
X97385500Y-91297926D01*
X97385500Y-91883074D01*
X97385956Y-91886840D01*
X97392123Y-91937800D01*
X97396315Y-91972445D01*
X97399295Y-91979971D01*
X97448139Y-92103337D01*
X97451586Y-92112044D01*
X97502851Y-92179583D01*
X97534863Y-92221758D01*
X97560116Y-92288111D01*
X97560500Y-92297937D01*
X97560500Y-93455501D01*
X97540498Y-93523622D01*
X97486842Y-93570115D01*
X97434500Y-93581501D01*
X96518872Y-93581501D01*
X96491796Y-93584722D01*
X96483151Y-93588562D01*
X96397378Y-93626661D01*
X96386085Y-93631677D01*
X96377866Y-93639910D01*
X96377865Y-93639911D01*
X96345023Y-93672811D01*
X96304365Y-93713539D01*
X96299662Y-93724176D01*
X96299661Y-93724178D01*
X96277461Y-93774394D01*
X96257594Y-93819332D01*
X96254500Y-93845871D01*
X96254501Y-95638128D01*
X96257722Y-95665204D01*
X96261562Y-95673849D01*
X96292072Y-95742536D01*
X96304677Y-95770915D01*
X96312911Y-95779135D01*
X96319500Y-95788722D01*
X96316249Y-95790956D01*
X96340094Y-95834508D01*
X96335108Y-95905330D01*
X96306098Y-95950524D01*
X93293647Y-98962976D01*
X93231335Y-98997002D01*
X93160520Y-98991937D01*
X93148827Y-98986889D01*
X93140311Y-98982689D01*
X93140308Y-98982688D01*
X93136127Y-98980626D01*
X93088433Y-98965359D01*
X92985449Y-98932394D01*
X92879838Y-98898588D01*
X92875231Y-98897838D01*
X92875228Y-98897837D01*
X92618849Y-98856083D01*
X92618850Y-98856083D01*
X92614238Y-98855332D01*
X92483410Y-98853619D01*
X92349839Y-98851870D01*
X92349836Y-98851870D01*
X92345162Y-98851809D01*
X92144629Y-98879101D01*
X92083148Y-98887468D01*
X92083146Y-98887468D01*
X92078520Y-98888098D01*
X92074038Y-98889404D01*
X92074035Y-98889405D01*
X91997281Y-98911777D01*
X91820172Y-98963400D01*
X91815925Y-98965358D01*
X91815922Y-98965359D01*
X91744012Y-98998510D01*
X91575791Y-99076061D01*
X91571882Y-99078624D01*
X91354660Y-99221040D01*
X91354655Y-99221044D01*
X91350747Y-99223606D01*
X91149983Y-99402794D01*
X90977911Y-99609689D01*
X90975488Y-99613682D01*
X90844971Y-99828767D01*
X90838309Y-99839745D01*
X90836502Y-99844053D01*
X90836502Y-99844054D01*
X90748936Y-100052876D01*
X90734245Y-100087909D01*
X90733094Y-100092441D01*
X90733093Y-100092444D01*
X90708656Y-100188668D01*
X90668006Y-100348728D01*
X90641045Y-100616474D01*
X81632658Y-100616474D01*
X81650978Y-100567606D01*
X81654605Y-100552351D01*
X81660131Y-100501486D01*
X81660500Y-100494672D01*
X81660500Y-100068115D01*
X81656025Y-100052876D01*
X81654635Y-100051671D01*
X81646952Y-100050000D01*
X78920615Y-100050000D01*
X78905376Y-100054475D01*
X78904171Y-100055865D01*
X78902500Y-100063548D01*
X78902500Y-100939884D01*
X78302500Y-100939884D01*
X78302500Y-100068115D01*
X78298025Y-100052876D01*
X78296635Y-100051671D01*
X78288952Y-100050000D01*
X75562616Y-100050000D01*
X75547377Y-100054475D01*
X75546172Y-100055865D01*
X75544501Y-100063548D01*
X75544501Y-100494669D01*
X64851971Y-100494669D01*
X64851971Y-99431885D01*
X75544500Y-99431885D01*
X75548975Y-99447124D01*
X75550365Y-99448329D01*
X75558048Y-99450000D01*
X78284385Y-99450000D01*
X78299624Y-99445525D01*
X78300829Y-99444135D01*
X78302500Y-99436452D01*
X78302500Y-99431885D01*
X78902500Y-99431885D01*
X78906975Y-99447124D01*
X78908365Y-99448329D01*
X78916048Y-99450000D01*
X81642384Y-99450000D01*
X81657623Y-99445525D01*
X81658828Y-99444135D01*
X81660499Y-99436452D01*
X81660499Y-99005331D01*
X81660129Y-98998510D01*
X81654605Y-98947648D01*
X81650979Y-98932396D01*
X81605824Y-98811946D01*
X81597286Y-98796351D01*
X81520785Y-98694276D01*
X81508224Y-98681715D01*
X81406149Y-98605214D01*
X81390554Y-98596676D01*
X81270106Y-98551522D01*
X81254851Y-98547895D01*
X81203986Y-98542369D01*
X81197172Y-98542000D01*
X78920615Y-98542000D01*
X78905376Y-98546475D01*
X78904171Y-98547865D01*
X78902500Y-98555548D01*
X78902500Y-99431885D01*
X78302500Y-99431885D01*
X78302500Y-98560116D01*
X78298025Y-98544877D01*
X78296635Y-98543672D01*
X78288952Y-98542001D01*
X76007831Y-98542001D01*
X76001010Y-98542371D01*
X75950148Y-98547895D01*
X75934896Y-98551521D01*
X75814446Y-98596676D01*
X75798851Y-98605214D01*
X75696776Y-98681715D01*
X75684215Y-98694276D01*
X75607714Y-98796351D01*
X75599176Y-98811946D01*
X75554022Y-98932394D01*
X75550395Y-98947649D01*
X75544869Y-98998514D01*
X75544500Y-99005328D01*
X75544500Y-99431885D01*
X64851971Y-99431885D01*
X64851971Y-97394669D01*
X65242001Y-97394669D01*
X65242371Y-97401490D01*
X65247895Y-97452352D01*
X65251521Y-97467604D01*
X65296676Y-97588054D01*
X65305214Y-97603649D01*
X65381715Y-97705724D01*
X65394276Y-97718285D01*
X65496351Y-97794786D01*
X65511946Y-97803324D01*
X65632394Y-97848478D01*
X65647649Y-97852105D01*
X65698514Y-97857631D01*
X65705328Y-97858000D01*
X67181885Y-97858000D01*
X67197124Y-97853525D01*
X67198329Y-97852135D01*
X67200000Y-97844452D01*
X67200000Y-97839884D01*
X67800000Y-97839884D01*
X67804475Y-97855123D01*
X67805865Y-97856328D01*
X67813548Y-97857999D01*
X69294669Y-97857999D01*
X69301490Y-97857629D01*
X69352352Y-97852105D01*
X69367604Y-97848479D01*
X69488054Y-97803324D01*
X69503649Y-97794786D01*
X69605724Y-97718285D01*
X69618285Y-97705724D01*
X69694786Y-97603649D01*
X69703324Y-97588054D01*
X69748478Y-97467606D01*
X69752105Y-97452351D01*
X69757631Y-97401486D01*
X69758000Y-97394672D01*
X69758000Y-96518115D01*
X69753525Y-96502876D01*
X69752135Y-96501671D01*
X69744452Y-96500000D01*
X67818115Y-96500000D01*
X67802876Y-96504475D01*
X67801671Y-96505865D01*
X67800000Y-96513548D01*
X67800000Y-97839884D01*
X67200000Y-97839884D01*
X67200000Y-96518115D01*
X67195525Y-96502876D01*
X67194135Y-96501671D01*
X67186452Y-96500000D01*
X65260116Y-96500000D01*
X65244877Y-96504475D01*
X65243672Y-96505865D01*
X65242001Y-96513548D01*
X65242001Y-97394669D01*
X64851971Y-97394669D01*
X64851971Y-95881885D01*
X65242000Y-95881885D01*
X65246475Y-95897124D01*
X65247865Y-95898329D01*
X65255548Y-95900000D01*
X67181885Y-95900000D01*
X67197124Y-95895525D01*
X67198329Y-95894135D01*
X67200000Y-95886452D01*
X67200000Y-95881885D01*
X67800000Y-95881885D01*
X67804475Y-95897124D01*
X67805865Y-95898329D01*
X67813548Y-95900000D01*
X69739884Y-95900000D01*
X69755123Y-95895525D01*
X69756328Y-95894135D01*
X69757999Y-95886452D01*
X69757999Y-95005331D01*
X69757920Y-95003871D01*
X70839500Y-95003871D01*
X70839501Y-97396128D01*
X70842722Y-97423204D01*
X70889677Y-97528915D01*
X70971539Y-97610635D01*
X70982176Y-97615338D01*
X70982178Y-97615339D01*
X71068666Y-97653575D01*
X71068667Y-97653575D01*
X71077332Y-97657406D01*
X71103871Y-97660500D01*
X72885168Y-97660500D01*
X74696128Y-97660499D01*
X74723204Y-97657278D01*
X74754050Y-97643577D01*
X74818280Y-97615047D01*
X74828915Y-97610323D01*
X74851146Y-97588054D01*
X74902417Y-97536693D01*
X74910635Y-97528461D01*
X74915338Y-97517824D01*
X74915339Y-97517822D01*
X74953575Y-97431334D01*
X74953575Y-97431333D01*
X74957406Y-97422668D01*
X74960500Y-97396129D01*
X74960500Y-97286500D01*
X74980502Y-97218379D01*
X75034158Y-97171886D01*
X75086500Y-97160500D01*
X75771690Y-97160500D01*
X75839811Y-97180502D01*
X75860708Y-97197328D01*
X75865804Y-97202415D01*
X75865806Y-97202417D01*
X75874039Y-97210635D01*
X75884676Y-97215338D01*
X75884678Y-97215339D01*
X75971166Y-97253575D01*
X75971167Y-97253575D01*
X75979832Y-97257406D01*
X76006371Y-97260500D01*
X78581061Y-97260500D01*
X81198628Y-97260499D01*
X81225704Y-97257278D01*
X81256550Y-97243577D01*
X81320780Y-97215047D01*
X81331415Y-97210323D01*
X81344388Y-97197328D01*
X81361204Y-97180482D01*
X81423486Y-97146403D01*
X81450377Y-97143500D01*
X84885428Y-97143500D01*
X84905139Y-97145051D01*
X84912569Y-97146228D01*
X84912571Y-97146228D01*
X84919086Y-97147260D01*
X84925673Y-97146915D01*
X84925678Y-97146915D01*
X84987529Y-97143673D01*
X84994123Y-97143500D01*
X85014715Y-97143500D01*
X85020864Y-97142854D01*
X85035202Y-97141347D01*
X85041777Y-97140830D01*
X85103624Y-97137589D01*
X85103628Y-97137588D01*
X85110218Y-97137243D01*
X85123859Y-97133588D01*
X85143302Y-97129985D01*
X85150781Y-97129199D01*
X85157346Y-97128509D01*
X85222547Y-97107324D01*
X85228859Y-97105454D01*
X85295092Y-97087707D01*
X85300973Y-97084711D01*
X85300977Y-97084709D01*
X85307682Y-97081293D01*
X85325943Y-97073729D01*
X85333095Y-97071405D01*
X85333096Y-97071404D01*
X85339373Y-97069365D01*
X85398750Y-97035083D01*
X85404549Y-97031935D01*
X85459742Y-97003813D01*
X85465626Y-97000815D01*
X85470756Y-96996661D01*
X85470762Y-96996657D01*
X85476603Y-96991927D01*
X85492897Y-96980728D01*
X85499409Y-96976968D01*
X85499410Y-96976967D01*
X85505126Y-96973667D01*
X85510029Y-96969253D01*
X85510035Y-96969248D01*
X85556072Y-96927796D01*
X85561087Y-96923512D01*
X85574517Y-96912636D01*
X85577081Y-96910560D01*
X85591630Y-96896011D01*
X85596415Y-96891470D01*
X85642449Y-96850021D01*
X85642450Y-96850020D01*
X85647360Y-96845599D01*
X85655663Y-96834171D01*
X85668504Y-96819137D01*
X86542083Y-95945558D01*
X86604395Y-95911532D01*
X86631178Y-95908653D01*
X88906218Y-95908653D01*
X88938829Y-95912946D01*
X89094330Y-95954612D01*
X89094334Y-95954613D01*
X89100706Y-95956320D01*
X89107298Y-95956665D01*
X89107301Y-95956666D01*
X89285246Y-95965992D01*
X89285251Y-95965992D01*
X89291838Y-95966337D01*
X89298353Y-95965305D01*
X89298355Y-95965305D01*
X89471172Y-95937934D01*
X89541583Y-95947034D01*
X89595897Y-95992756D01*
X89611879Y-96027230D01*
X89637432Y-96115184D01*
X89643679Y-96129620D01*
X89717364Y-96254217D01*
X89727004Y-96266643D01*
X89829357Y-96368996D01*
X89841783Y-96378636D01*
X89966380Y-96452321D01*
X89980816Y-96458568D01*
X90082605Y-96488140D01*
X90096705Y-96488100D01*
X90100000Y-96480830D01*
X90100000Y-95385958D01*
X90108369Y-95340804D01*
X90125876Y-95295197D01*
X90125877Y-95295194D01*
X90128243Y-95289030D01*
X90135598Y-95242594D01*
X90157152Y-95106508D01*
X90157152Y-95106506D01*
X90158184Y-95099991D01*
X90156095Y-95060115D01*
X90148513Y-94915454D01*
X90148512Y-94915451D01*
X90148167Y-94908859D01*
X90145274Y-94898060D01*
X90104293Y-94745116D01*
X90100000Y-94712505D01*
X90100000Y-93516921D01*
X90096027Y-93503390D01*
X90088129Y-93502255D01*
X89980816Y-93533432D01*
X89966380Y-93539679D01*
X89841783Y-93613364D01*
X89829357Y-93623004D01*
X89727004Y-93725357D01*
X89717364Y-93737783D01*
X89643679Y-93862380D01*
X89637432Y-93876816D01*
X89596631Y-94017252D01*
X89595674Y-94022492D01*
X89563757Y-94085910D01*
X89502620Y-94122005D01*
X89432791Y-94119684D01*
X89380346Y-94102644D01*
X89366302Y-94101168D01*
X89346859Y-94097565D01*
X89333218Y-94093910D01*
X89326628Y-94093565D01*
X89326624Y-94093564D01*
X89264777Y-94090323D01*
X89258202Y-94089806D01*
X89243864Y-94088299D01*
X89237715Y-94087653D01*
X89217123Y-94087653D01*
X89210529Y-94087480D01*
X89148678Y-94084238D01*
X89148673Y-94084238D01*
X89142086Y-94083893D01*
X89135571Y-94084925D01*
X89135569Y-94084925D01*
X89128139Y-94086102D01*
X89108428Y-94087653D01*
X86283419Y-94087653D01*
X86263708Y-94086102D01*
X86256278Y-94084925D01*
X86256276Y-94084925D01*
X86249761Y-94083893D01*
X86243174Y-94084238D01*
X86243169Y-94084238D01*
X86181318Y-94087480D01*
X86174724Y-94087653D01*
X86154132Y-94087653D01*
X86147983Y-94088299D01*
X86133645Y-94089806D01*
X86127070Y-94090323D01*
X86065223Y-94093564D01*
X86065219Y-94093565D01*
X86058629Y-94093910D01*
X86044988Y-94097565D01*
X86025545Y-94101168D01*
X86011501Y-94102644D01*
X85946300Y-94123829D01*
X85939988Y-94125699D01*
X85873755Y-94143446D01*
X85867874Y-94146442D01*
X85867870Y-94146444D01*
X85861165Y-94149860D01*
X85842904Y-94157424D01*
X85835752Y-94159748D01*
X85829474Y-94161788D01*
X85778135Y-94191429D01*
X85770097Y-94196070D01*
X85764298Y-94199218D01*
X85703221Y-94230338D01*
X85698091Y-94234492D01*
X85698085Y-94234496D01*
X85692244Y-94239226D01*
X85675950Y-94250425D01*
X85669438Y-94254185D01*
X85663721Y-94257486D01*
X85658818Y-94261900D01*
X85658812Y-94261905D01*
X85612775Y-94303357D01*
X85607760Y-94307641D01*
X85599266Y-94314520D01*
X85591766Y-94320593D01*
X85577217Y-94335142D01*
X85572432Y-94339683D01*
X85527146Y-94380459D01*
X85521487Y-94385554D01*
X85517604Y-94390899D01*
X85513184Y-94396982D01*
X85500343Y-94412016D01*
X84626764Y-95285595D01*
X84564452Y-95319621D01*
X84537669Y-95322500D01*
X81414587Y-95322500D01*
X81343401Y-95300464D01*
X81339193Y-95297583D01*
X81330961Y-95289365D01*
X81320324Y-95284662D01*
X81320322Y-95284661D01*
X81233834Y-95246425D01*
X81233833Y-95246425D01*
X81225168Y-95242594D01*
X81198629Y-95239500D01*
X78623939Y-95239500D01*
X76006372Y-95239501D01*
X75979296Y-95242722D01*
X75873585Y-95289677D01*
X75860764Y-95302520D01*
X75798483Y-95336597D01*
X75771594Y-95339500D01*
X75086499Y-95339500D01*
X75018378Y-95319498D01*
X74971885Y-95265842D01*
X74960499Y-95213500D01*
X74960499Y-95003872D01*
X74957278Y-94976796D01*
X74924535Y-94903080D01*
X74915047Y-94881720D01*
X74910323Y-94871085D01*
X74886323Y-94847126D01*
X74857750Y-94818603D01*
X74828461Y-94789365D01*
X74817824Y-94784662D01*
X74817822Y-94784661D01*
X74731334Y-94746425D01*
X74731333Y-94746425D01*
X74722668Y-94742594D01*
X74696129Y-94739500D01*
X72914833Y-94739500D01*
X71103872Y-94739501D01*
X71076796Y-94742722D01*
X71068151Y-94746562D01*
X70982378Y-94784661D01*
X70971085Y-94789677D01*
X70962866Y-94797910D01*
X70962865Y-94797911D01*
X70948047Y-94812755D01*
X70889365Y-94871539D01*
X70884662Y-94882176D01*
X70884661Y-94882178D01*
X70860878Y-94935974D01*
X70842594Y-94977332D01*
X70839500Y-95003871D01*
X69757920Y-95003871D01*
X69757629Y-94998510D01*
X69752105Y-94947648D01*
X69748479Y-94932396D01*
X69703324Y-94811946D01*
X69694786Y-94796351D01*
X69618285Y-94694276D01*
X69605724Y-94681715D01*
X69503649Y-94605214D01*
X69488054Y-94596676D01*
X69367606Y-94551522D01*
X69352351Y-94547895D01*
X69301486Y-94542369D01*
X69294672Y-94542000D01*
X67818115Y-94542000D01*
X67802876Y-94546475D01*
X67801671Y-94547865D01*
X67800000Y-94555548D01*
X67800000Y-95881885D01*
X67200000Y-95881885D01*
X67200000Y-94560116D01*
X67195525Y-94544877D01*
X67194135Y-94543672D01*
X67186452Y-94542001D01*
X65705331Y-94542001D01*
X65698510Y-94542371D01*
X65647648Y-94547895D01*
X65632396Y-94551521D01*
X65511946Y-94596676D01*
X65496351Y-94605214D01*
X65394276Y-94681715D01*
X65381715Y-94694276D01*
X65305214Y-94796351D01*
X65296676Y-94811946D01*
X65251522Y-94932394D01*
X65247895Y-94947649D01*
X65242369Y-94998514D01*
X65242000Y-95005328D01*
X65242000Y-95881885D01*
X64851971Y-95881885D01*
X64851971Y-93500000D01*
X82382376Y-93500000D01*
X82400836Y-93711004D01*
X82417822Y-93774396D01*
X82446030Y-93879667D01*
X82455657Y-93915597D01*
X82457979Y-93920578D01*
X82457980Y-93920579D01*
X82538645Y-94093564D01*
X82545172Y-94107562D01*
X82666661Y-94281067D01*
X82816433Y-94430839D01*
X82989938Y-94552328D01*
X82994916Y-94554649D01*
X82994919Y-94554651D01*
X83171714Y-94637092D01*
X83181903Y-94641843D01*
X83187211Y-94643265D01*
X83187213Y-94643266D01*
X83211158Y-94649682D01*
X83386496Y-94696664D01*
X83597500Y-94715124D01*
X83808504Y-94696664D01*
X83983842Y-94649682D01*
X84007787Y-94643266D01*
X84007789Y-94643265D01*
X84013097Y-94641843D01*
X84023286Y-94637092D01*
X84200081Y-94554651D01*
X84200084Y-94554649D01*
X84205062Y-94552328D01*
X84378567Y-94430839D01*
X84528339Y-94281067D01*
X84649828Y-94107562D01*
X84656356Y-94093564D01*
X84737020Y-93920579D01*
X84737021Y-93920578D01*
X84739343Y-93915597D01*
X84748971Y-93879667D01*
X84777178Y-93774396D01*
X84794164Y-93711004D01*
X84812624Y-93500000D01*
X84794164Y-93288996D01*
X84739343Y-93084403D01*
X84710648Y-93022867D01*
X84652151Y-92897419D01*
X84652149Y-92897416D01*
X84649828Y-92892438D01*
X84528339Y-92718933D01*
X84378567Y-92569161D01*
X84205062Y-92447672D01*
X84200084Y-92445351D01*
X84200081Y-92445349D01*
X84018079Y-92360480D01*
X84018078Y-92360479D01*
X84013097Y-92358157D01*
X84007789Y-92356735D01*
X84007787Y-92356734D01*
X83923506Y-92334151D01*
X83808504Y-92303336D01*
X83597500Y-92284876D01*
X83386496Y-92303336D01*
X83271494Y-92334151D01*
X83187213Y-92356734D01*
X83187211Y-92356735D01*
X83181903Y-92358157D01*
X83176922Y-92360479D01*
X83176921Y-92360480D01*
X82994919Y-92445349D01*
X82994916Y-92445351D01*
X82989938Y-92447672D01*
X82816433Y-92569161D01*
X82666661Y-92718933D01*
X82545172Y-92892438D01*
X82542851Y-92897416D01*
X82542849Y-92897419D01*
X82484352Y-93022867D01*
X82455657Y-93084403D01*
X82400836Y-93288996D01*
X82382376Y-93500000D01*
X64851971Y-93500000D01*
X64851971Y-89431879D01*
X79627036Y-89431879D01*
X79627211Y-89436331D01*
X79629400Y-89492043D01*
X79637057Y-89686919D01*
X79637658Y-89702226D01*
X79638458Y-89706606D01*
X79679424Y-89930913D01*
X79686266Y-89968379D01*
X79771891Y-90225027D01*
X79773883Y-90229014D01*
X79773884Y-90229016D01*
X79853477Y-90388306D01*
X79892823Y-90467051D01*
X80046650Y-90689620D01*
X80049672Y-90692889D01*
X80227287Y-90885033D01*
X80227292Y-90885038D01*
X80230303Y-90888295D01*
X80440117Y-91059111D01*
X80443934Y-91061409D01*
X80668091Y-91196362D01*
X80668095Y-91196364D01*
X80671907Y-91198659D01*
X80676014Y-91200398D01*
X80916943Y-91302419D01*
X80916948Y-91302421D01*
X80921046Y-91304156D01*
X80925343Y-91305295D01*
X80925348Y-91305297D01*
X81046110Y-91337316D01*
X81182565Y-91373496D01*
X81451244Y-91405297D01*
X81721724Y-91398922D01*
X81726118Y-91398191D01*
X81726125Y-91398190D01*
X81984206Y-91355234D01*
X81984210Y-91355233D01*
X81988608Y-91354501D01*
X82246569Y-91272918D01*
X82250580Y-91270992D01*
X82250585Y-91270990D01*
X82486444Y-91157732D01*
X82486445Y-91157731D01*
X82490463Y-91155802D01*
X82631732Y-91061409D01*
X82711713Y-91007968D01*
X82711717Y-91007965D01*
X82715421Y-91005490D01*
X82718738Y-91002519D01*
X82718742Y-91002516D01*
X82913638Y-90827952D01*
X82913639Y-90827951D01*
X82916956Y-90824980D01*
X83040481Y-90678029D01*
X83088174Y-90621292D01*
X83088176Y-90621289D01*
X83091046Y-90617875D01*
X83096717Y-90608783D01*
X83231854Y-90392097D01*
X83231856Y-90392094D01*
X83234218Y-90388306D01*
X83238522Y-90378572D01*
X83267549Y-90312913D01*
X83343615Y-90140855D01*
X83417055Y-89880458D01*
X83422182Y-89842287D01*
X83452644Y-89615493D01*
X83452645Y-89615485D01*
X83453071Y-89612311D01*
X83453379Y-89602511D01*
X83456750Y-89495265D01*
X83456750Y-89495260D01*
X83456851Y-89492043D01*
X83452907Y-89436331D01*
X83438058Y-89226613D01*
X83437743Y-89222164D01*
X83380798Y-88957669D01*
X83359582Y-88900158D01*
X83288696Y-88708014D01*
X83287155Y-88703837D01*
X83257778Y-88649392D01*
X83160793Y-88469647D01*
X83158680Y-88465731D01*
X82997937Y-88248103D01*
X82808135Y-88055295D01*
X82756931Y-88016217D01*
X82596598Y-87893856D01*
X82593058Y-87891154D01*
X82531824Y-87856861D01*
X82360886Y-87761131D01*
X82360883Y-87761130D01*
X82357000Y-87758955D01*
X82352855Y-87757351D01*
X82352852Y-87757350D01*
X82213334Y-87703375D01*
X82104670Y-87661336D01*
X81841102Y-87600245D01*
X81571556Y-87576899D01*
X81567121Y-87577143D01*
X81567117Y-87577143D01*
X81457177Y-87583194D01*
X81301410Y-87591766D01*
X81297047Y-87592634D01*
X81297046Y-87592634D01*
X81040422Y-87643680D01*
X81040420Y-87643681D01*
X81036054Y-87644549D01*
X80780782Y-87734194D01*
X80540688Y-87858913D01*
X80537073Y-87861496D01*
X80537067Y-87861500D01*
X80324183Y-88013629D01*
X80324179Y-88013632D01*
X80320562Y-88016217D01*
X80124796Y-88202968D01*
X79957297Y-88415440D01*
X79905724Y-88504229D01*
X79823641Y-88645545D01*
X79823638Y-88645551D01*
X79821407Y-88649392D01*
X79819737Y-88653515D01*
X79741249Y-88847293D01*
X79719836Y-88900158D01*
X79654612Y-89162733D01*
X79627036Y-89431879D01*
X64851971Y-89431879D01*
X64851971Y-87780201D01*
X64853882Y-87758339D01*
X64854848Y-87752855D01*
X64856761Y-87741998D01*
X64854845Y-87731140D01*
X64854843Y-87720119D01*
X64855872Y-87720119D01*
X64855377Y-87707364D01*
X64858043Y-87680271D01*
X64863989Y-87619822D01*
X64868805Y-87595598D01*
X64900825Y-87490002D01*
X64910277Y-87467177D01*
X64962287Y-87369857D01*
X64976010Y-87349316D01*
X65046009Y-87264014D01*
X65063475Y-87246546D01*
X65148777Y-87176536D01*
X65169319Y-87162811D01*
X65266628Y-87110799D01*
X65289451Y-87101345D01*
X65395054Y-87069314D01*
X65419283Y-87064496D01*
X65506551Y-87055906D01*
X65519570Y-87056403D01*
X65519570Y-87055417D01*
X65530594Y-87055418D01*
X65541449Y-87057333D01*
X65552303Y-87055420D01*
X65552308Y-87055420D01*
X65557777Y-87054456D01*
X65579648Y-87052543D01*
X131854971Y-87052543D01*
X131923092Y-87072545D01*
G37*
%TD.AperFunction*%
%TD*%
M02*
