%TF.GenerationSoftware,KiCad,Pcbnew,6.0.6*%
%TF.CreationDate,2023-04-20T16:23:06+02:00*%
%TF.ProjectId,light-strip,6c696768-742d-4737-9472-69702e6b6963,rev?*%
%TF.SameCoordinates,Original*%
%TF.FileFunction,Copper,L1,Top*%
%TF.FilePolarity,Positive*%
%FSLAX46Y46*%
G04 Gerber Fmt 4.6, Leading zero omitted, Abs format (unit mm)*
G04 Created by KiCad (PCBNEW 6.0.6) date 2023-04-20 16:23:06*
%MOMM*%
%LPD*%
G01*
G04 APERTURE LIST*
%TA.AperFunction,Profile*%
%ADD10C,0.050000*%
%TD*%
%TA.AperFunction,SMDPad,CuDef*%
%ADD11R,8.000000X5.000000*%
%TD*%
%TA.AperFunction,SMDPad,CuDef*%
%ADD12R,2.500000X2.200000*%
%TD*%
%TA.AperFunction,SMDPad,CuDef*%
%ADD13R,1.550000X2.200000*%
%TD*%
%TA.AperFunction,Conductor*%
%ADD14C,2.000000*%
%TD*%
%TA.AperFunction,Conductor*%
%ADD15C,1.500000*%
%TD*%
G04 APERTURE END LIST*
D10*
X14500000Y-103800000D02*
X284500000Y-103800000D01*
X284500000Y-103800000D02*
X284500000Y-116200000D01*
X284500000Y-116200000D02*
X14500000Y-116200000D01*
X14500000Y-116200000D02*
X14500000Y-103800000D01*
D11*
%TO.P,J2,1,Pin_1*%
%TO.N,Net-(D3-Pad2)*%
X279000000Y-107000000D03*
%TD*%
%TO.P,J1,1,Pin_1*%
%TO.N,Net-(D1-Pad1)*%
X279000000Y-113000000D03*
%TD*%
D12*
%TO.P,D5,1,K*%
%TO.N,Net-(D4-Pad2)*%
X148450000Y-110000000D03*
D13*
%TO.P,D5,2,A*%
%TO.N,Net-(D5-Pad2)*%
X151025000Y-110000000D03*
%TD*%
D12*
%TO.P,D6,1,K*%
%TO.N,Net-(D5-Pad2)*%
X178450000Y-110000000D03*
D13*
%TO.P,D6,2,A*%
%TO.N,Net-(D3-Pad2)*%
X181025000Y-110000000D03*
%TD*%
D11*
%TO.P,J3,1,Pin_1*%
%TO.N,Net-(D1-Pad1)*%
X20000000Y-113000000D03*
%TD*%
D12*
%TO.P,D2,1,K*%
%TO.N,Net-(D1-Pad2)*%
X58450000Y-110000000D03*
D13*
%TO.P,D2,2,A*%
%TO.N,Net-(D2-Pad2)*%
X61025000Y-110000000D03*
%TD*%
D12*
%TO.P,D7,1,K*%
%TO.N,Net-(D1-Pad1)*%
X208450000Y-110000000D03*
D13*
%TO.P,D7,2,A*%
%TO.N,Net-(D7-Pad2)*%
X211025000Y-110000000D03*
%TD*%
D12*
%TO.P,D4,1,K*%
%TO.N,Net-(D1-Pad1)*%
X118450000Y-110000000D03*
D13*
%TO.P,D4,2,A*%
%TO.N,Net-(D4-Pad2)*%
X121025000Y-110000000D03*
%TD*%
D11*
%TO.P,J4,1,Pin_1*%
%TO.N,Net-(D3-Pad2)*%
X20000000Y-107000000D03*
%TD*%
D12*
%TO.P,D1,1,K*%
%TO.N,Net-(D1-Pad1)*%
X28450000Y-110000000D03*
D13*
%TO.P,D1,2,A*%
%TO.N,Net-(D1-Pad2)*%
X31025000Y-110000000D03*
%TD*%
D12*
%TO.P,D3,1,K*%
%TO.N,Net-(D2-Pad2)*%
X88450000Y-110000000D03*
D13*
%TO.P,D3,2,A*%
%TO.N,Net-(D3-Pad2)*%
X91025000Y-110000000D03*
%TD*%
D12*
%TO.P,D9,1,K*%
%TO.N,Net-(D8-Pad2)*%
X268450000Y-110000000D03*
D13*
%TO.P,D9,2,A*%
%TO.N,Net-(D3-Pad2)*%
X271025000Y-110000000D03*
%TD*%
D12*
%TO.P,D8,1,K*%
%TO.N,Net-(D7-Pad2)*%
X238450000Y-110000000D03*
D13*
%TO.P,D8,2,A*%
%TO.N,Net-(D8-Pad2)*%
X241025000Y-110000000D03*
%TD*%
D14*
%TO.N,Net-(D3-Pad2)*%
X93400000Y-105110000D02*
X277110000Y-105110000D01*
X277110000Y-105110000D02*
X279000000Y-107000000D01*
X94510000Y-105110000D02*
X21890000Y-105110000D01*
X21890000Y-105110000D02*
X20000000Y-107000000D01*
%TO.N,Net-(D1-Pad1)*%
X279000000Y-113000000D02*
X277110000Y-114890000D01*
X277110000Y-114890000D02*
X21890000Y-114890000D01*
X21890000Y-114890000D02*
X20000000Y-113000000D01*
D15*
X118450000Y-110000000D02*
X118450000Y-114800000D01*
X208450000Y-110000000D02*
X208450000Y-114850000D01*
X28450000Y-110000000D02*
X28450000Y-114450000D01*
X28450000Y-114450000D02*
X28300000Y-114600000D01*
%TO.N,Net-(D3-Pad2)*%
X181025000Y-110000000D02*
X181025000Y-105475000D01*
X271025000Y-110000000D02*
X271025000Y-105925000D01*
X91025000Y-110000000D02*
X91025000Y-108525000D01*
X91025000Y-108525000D02*
X91000000Y-108500000D01*
X91000000Y-108500000D02*
X91000000Y-105300000D01*
%TO.N,Net-(D4-Pad2)*%
X148450000Y-110000000D02*
X121025000Y-110000000D01*
%TO.N,Net-(D7-Pad2)*%
X238450000Y-110000000D02*
X211025000Y-110000000D01*
%TO.N,Net-(D8-Pad2)*%
X268450000Y-110000000D02*
X241025000Y-110000000D01*
%TO.N,Net-(D1-Pad2)*%
X58450000Y-110000000D02*
X31025000Y-110000000D01*
%TO.N,Net-(D2-Pad2)*%
X88450000Y-110000000D02*
X61025000Y-110000000D01*
%TO.N,Net-(D5-Pad2)*%
X178450000Y-110000000D02*
X151025000Y-110000000D01*
%TD*%
M02*
